<svg width="24" height="24" viewBox="0 0 24 24" fill="none" xmlns="http://www.w3.org/2000/svg">
<path d="M11 14L8 11.5989L9 10.5L11 12L14 8.5L15 9.67937L11 14Z" fill="#38D547"/>
<path d="M11.5 1C9.4233 1 7.39323 1.61581 5.66652 2.76957C3.9398 3.92332 2.59399 5.5632 1.79927 7.48182C1.00455 9.40045 0.796614 11.5116 1.20176 13.5484C1.6069 15.5852 2.60693 17.4562 4.07538 18.9246C5.54383 20.3931 7.41476 21.3931 9.45156 21.7982C11.4884 22.2034 13.5996 21.9955 15.5182 21.2007C17.4368 20.406 19.0767 19.0602 20.2304 17.3335C21.3842 15.6068 22 13.5767 22 11.5C22 8.71523 20.8938 6.04451 18.9246 4.07538C16.9555 2.10625 14.2848 1 11.5 1ZM11.5 20.5C9.71997 20.5 7.97992 19.9722 6.49987 18.9832C5.01983 17.9943 3.86628 16.5887 3.18509 14.9442C2.5039 13.2996 2.32567 11.49 2.67294 9.74419C3.0202 7.99836 3.87737 6.39471 5.13604 5.13604C6.39472 3.87737 7.99836 3.0202 9.74419 2.67293C11.49 2.32567 13.2996 2.5039 14.9442 3.18508C16.5887 3.86627 17.9943 5.01983 18.9832 6.49987C19.9722 7.97991 20.5 9.71997 20.5 11.5C20.5 13.8869 19.5518 16.1761 17.864 17.864C16.1761 19.5518 13.887 20.5 11.5 20.5Z" fill="#38D547"/>
</svg>
