<svg width="62" height="62" viewBox="0 0 62 62" fill="none" xmlns="http://www.w3.org/2000/svg">
<g style="mix-blend-mode:luminosity" opacity="0.5">
<path d="M58.8099 30.3151L51.1489 22.6541V11.8199C51.1489 11.563 51.0468 11.3166 50.8651 11.1349C50.6835 10.9533 50.4371 10.8512 50.1801 10.8512H39.346L31.6849 3.19013C31.595 3.10013 31.4883 3.02874 31.3707 2.98003C31.2532 2.93132 31.1273 2.90625 31 2.90625C30.8728 2.90625 30.7469 2.93132 30.6293 2.98003C30.5118 3.02874 30.405 3.10013 30.3151 3.19013L22.6541 10.8512H11.8199C11.563 10.8512 11.3166 10.9533 11.1349 11.1349C10.9533 11.3166 10.8512 11.563 10.8512 11.8199V22.6541L3.19013 30.3151C3.10013 30.405 3.02874 30.5118 2.98003 30.6293C2.93132 30.7469 2.90625 30.8728 2.90625 31C2.90625 31.1273 2.93132 31.2532 2.98003 31.3707C3.02874 31.4883 3.10013 31.595 3.19013 31.6849L10.8512 39.346V50.1801C10.8512 50.4371 10.9533 50.6835 11.1349 50.8651C11.3166 51.0468 11.563 51.1489 11.8199 51.1489H22.6541L30.3151 58.8099C30.405 58.8999 30.5118 58.9713 30.6293 59.02C30.7469 59.0687 30.8728 59.0938 31 59.0938C31.1272 59.0938 31.2532 59.0687 31.3707 59.02C31.4882 58.9713 31.595 58.8999 31.6849 58.8099L39.346 51.1489H50.1801C50.4371 51.1489 50.6835 51.0468 50.8651 50.8651C51.0468 50.6835 51.1489 50.4371 51.1489 50.1801V39.346L58.8099 31.6849C58.8999 31.595 58.9713 31.4883 59.02 31.3707C59.0687 31.2532 59.0938 31.1273 59.0938 31C59.0938 30.8728 59.0687 30.7469 59.02 30.6293C58.9713 30.5118 58.8999 30.405 58.8099 30.3151Z" fill="url(#paint0_linear_235_3780)"/>
<path opacity="0.5" d="M31 53.6139C30.8728 53.614 30.7468 53.589 30.6293 53.5403C30.5117 53.4916 30.405 53.4201 30.3151 53.33L24.259 47.2739H15.6952C15.4383 47.2739 15.1919 47.1718 15.0102 46.9901C14.8286 46.8085 14.7265 46.5621 14.7265 46.3051V37.7414L8.67036 31.685C8.48874 31.5033 8.38672 31.2569 8.38672 31C8.38672 30.7432 8.48874 30.4968 8.67036 30.3151L14.7265 24.259V15.6952C14.7265 15.4383 14.8286 15.1919 15.0102 15.0102C15.1919 14.8286 15.4383 14.7265 15.6952 14.7265H24.259L30.3151 8.67036C30.4968 8.48874 30.7432 8.38672 31 8.38672C31.2569 8.38672 31.5033 8.48874 31.6849 8.67036L37.7411 14.7265H46.3048C46.5618 14.7265 46.8082 14.8286 46.9899 15.0102C47.1715 15.1919 47.2736 15.4383 47.2736 15.6952V24.259L53.3297 30.3151C53.5113 30.4968 53.6134 30.7432 53.6134 31C53.6134 31.2569 53.5113 31.5033 53.3297 31.685L47.2736 37.7411V46.3048C47.2736 46.5618 47.1715 46.8082 46.9899 46.9899C46.8082 47.1715 46.5618 47.2736 46.3048 47.2736H37.7411L31.6849 53.3297C31.5951 53.4199 31.4884 53.4914 31.3709 53.5402C31.2533 53.5889 31.1273 53.614 31 53.6139ZM16.6637 45.3364H24.6602C24.9171 45.3364 25.1634 45.4385 25.3451 45.6202L31 51.2752L36.655 45.6202C36.8367 45.4385 37.083 45.3364 37.3399 45.3364H45.3364V37.3399C45.3364 37.083 45.4385 36.8367 45.6202 36.655L51.2752 31L45.6202 25.3451C45.4385 25.1634 45.3364 24.9171 45.3364 24.6602V16.6637H37.3399C37.083 16.6637 36.8367 16.5616 36.655 16.3799L31 10.7249L25.3451 16.3799C25.1634 16.5616 24.9171 16.6637 24.6602 16.6637H16.6637V24.6602C16.6637 24.9171 16.5616 25.1634 16.3799 25.3451L10.7249 31L16.3799 36.655C16.5616 36.8367 16.6637 37.083 16.6637 37.3399V45.3364Z" fill="white"/>
<path d="M44.3978 34.3348L42.3652 31.3088C41.7444 30.3358 40.8518 29.5661 39.7981 29.0951C38.7443 28.6241 37.5755 28.4725 36.4364 28.659C35.538 28.8292 34.6904 29.2025 33.9583 29.7503L33.325 30.225L34.4875 31.775L35.1209 31.3003C35.551 30.9693 36.0466 30.7335 36.5747 30.6085C37.1029 30.4834 37.6516 30.472 38.1845 30.5749C38.7174 30.6779 39.2223 30.8929 39.6659 31.2056C40.1094 31.5184 40.4815 31.9218 40.7574 32.3892L41.7759 33.9062H31.9688V21.3125H30.0312V30.7711L27.0228 24.7542L25.2897 25.6208L30.0119 35.0655C29.9642 36.0568 29.5375 36.992 28.8199 37.6778C28.1024 38.3635 27.1488 38.7473 26.1562 38.75H23.25V40.6875H26.1562C27.5286 40.6852 28.856 40.1978 29.9037 39.3114C30.9514 38.425 31.652 37.1968 31.8816 35.8438H43.5938C43.7694 35.8437 43.9417 35.796 44.0923 35.7056C44.2428 35.6152 44.366 35.4856 44.4486 35.3306C44.5312 35.1756 44.5701 35.0011 44.5611 34.8257C44.5522 34.6503 44.4957 34.4806 44.3978 34.3348Z" fill="white"/>
<path d="M24.2188 21.3125H22.2812V31.9688C22.2801 32.9961 21.8715 33.9811 21.145 34.7075C20.4186 35.434 19.4336 35.8426 18.4062 35.8438V37.7812C19.9473 37.7796 21.4248 37.1666 22.5144 36.0769C23.6041 34.9873 24.2171 33.5098 24.2188 31.9688V21.3125Z" fill="white"/>
</g>
<defs>
<linearGradient id="paint0_linear_235_3780" x1="31" y1="59.0938" x2="31" y2="2.90628" gradientUnits="userSpaceOnUse">
<stop stop-color="#00684E"/>
<stop offset="1" stop-color="#009C6B"/>
</linearGradient>
</defs>
</svg>
