<svg width="20" height="20" viewBox="0 0 20 20" fill="none" xmlns="http://www.w3.org/2000/svg">
<path d="M13.75 2.5H6.25C4.17893 2.5 2.5 4.17893 2.5 6.25V13.75C2.5 15.8211 4.17893 17.5 6.25 17.5H13.75C15.8211 17.5 17.5 15.8211 17.5 13.75V6.25C17.5 4.17893 15.8211 2.5 13.75 2.5Z" stroke="#5D5FEF" stroke-width="1.25" stroke-linecap="round" stroke-linejoin="round"/>
<path d="M13.2976 9.51102C13.4004 10.2046 13.282 10.9129 12.9591 11.5352C12.6362 12.1575 12.1252 12.6622 11.499 12.9774C10.8727 13.2926 10.163 13.4023 9.47076 13.291C8.77854 13.1796 8.13907 12.8528 7.64331 12.357C7.14754 11.8612 6.82072 11.2217 6.70933 10.5295C6.59794 9.83731 6.70766 9.1276 7.02288 8.50133C7.3381 7.87506 7.84276 7.36413 8.46509 7.04122C9.08743 6.7183 9.79574 6.59984 10.4893 6.70268C11.1967 6.80759 11.8516 7.13724 12.3574 7.64294C12.8631 8.14864 13.1927 8.80358 13.2976 9.51102Z" stroke="#5D5FEF" stroke-width="1.25" stroke-linecap="round" stroke-linejoin="round"/>
<path d="M14.583 5.41663H14.5913" stroke="#5D5FEF" stroke-width="2" stroke-linecap="round" stroke-linejoin="round"/>
</svg>
