<svg width="16" height="16" viewBox="0 0 16 16" fill="none" xmlns="http://www.w3.org/2000/svg">
<mask id="path-1-inside-1_235_6954" fill="white">
<path d="M3 15H9C9.26512 14.9997 9.5193 14.8942 9.70677 14.7068C9.89424 14.5193 9.9997 14.2651 10 14V12.5H9V14H3V2H9V3.5H10V2C9.9997 1.73488 9.89424 1.4807 9.70677 1.29323C9.5193 1.10576 9.26512 1.0003 9 1H3C2.73488 1.0003 2.4807 1.10576 2.29323 1.29323C2.10576 1.4807 2.0003 1.73488 2 2V14C2.0003 14.2651 2.10576 14.5193 2.29323 14.7068C2.4807 14.8942 2.73488 14.9997 3 15Z"/>
</mask>
<path d="M9 15V16L9.00115 16L9 15ZM10 14L11 14.0011V14H10ZM10 12.5H11V11.5H10V12.5ZM9 12.5V11.5H8V12.5H9ZM9 14V15H10V14H9ZM3 14H2V15H3V14ZM3 2V1H2V2H3ZM9 2H10V1H9V2ZM9 3.5H8V4.5H9V3.5ZM10 3.5V4.5H11V3.5H10ZM10 2H11L11 1.99885L10 2ZM9 1L9.00115 0H9V1ZM3 1V-7.15256e-07L2.99885 6.55651e-07L3 1ZM2 2L1 1.99885V2H2ZM2 14H0.999999L1 14.0011L2 14ZM3 16H9V14H3V16ZM9.00115 16C9.53109 15.9994 10.0392 15.7886 10.4139 15.4139L8.99966 13.9997L8.99885 14L9.00115 16ZM10.4139 15.4139C10.7886 15.0392 10.9994 14.5311 11 14.0011L9 13.9989L8.99966 13.9997L10.4139 15.4139ZM11 14V12.5H9V14H11ZM10 11.5H9V13.5H10V11.5ZM8 12.5V14H10V12.5H8ZM9 13H3V15H9V13ZM4 14V2H2V14H4ZM3 3H9V1H3V3ZM8 2V3.5H10V2H8ZM9 4.5H10V2.5H9V4.5ZM11 3.5V2H9V3.5H11ZM11 1.99885C10.9994 1.46891 10.7886 0.960849 10.4139 0.586123L8.99966 2.00034L9 2.00115L11 1.99885ZM10.4139 0.586123C10.0392 0.211397 9.53109 0.00060904 9.00115 6.55651e-07L8.99885 2L8.99966 2.00034L10.4139 0.586123ZM9 0H3V2H9V0ZM2.99885 6.55651e-07C2.46891 0.00060904 1.96085 0.211397 1.58612 0.586123L3.00034 2.00034L3.00115 2L2.99885 6.55651e-07ZM1.58612 0.586123C1.2114 0.960848 1.00061 1.46891 1 1.99885L3 2.00115L3.00034 2.00034L1.58612 0.586123ZM1 2V14H3V2H1ZM1 14.0011C1.00061 14.5311 1.2114 15.0392 1.58612 15.4139L3.00034 13.9997L3 13.9989L1 14.0011ZM1.58612 15.4139C1.96085 15.7886 2.46891 15.9994 2.99885 16L3.00115 14L3.00034 13.9997L1.58612 15.4139Z" fill="#DF3C3C" mask="url(#path-1-inside-1_235_6954)"/>
<path d="M10.293 10.293L12.086 8.5H5V7.5H12.086L10.293 5.707L11 5L14 8L11 11L10.293 10.293Z" fill="#DF3C3C"/>
</svg>
