<svg width="16" height="16" viewBox="0 0 16 16" fill="none" xmlns="http://www.w3.org/2000/svg">
<path d="M10.0003 9.00004C9.73662 9.00004 9.47883 8.92184 9.25957 8.77533C9.0403 8.62882 8.8694 8.42059 8.76849 8.17695C8.66757 7.93332 8.64117 7.66523 8.69261 7.40659C8.74406 7.14795 8.87105 6.91037 9.05752 6.7239C9.24399 6.53743 9.48156 6.41044 9.74021 6.35899C9.99885 6.30755 10.2669 6.33395 10.5106 6.43487C10.7542 6.53579 10.9624 6.70668 11.109 6.92595C11.2555 7.14521 11.3337 7.403 11.3337 7.66671C11.3333 8.02021 11.1927 8.35912 10.9427 8.60909C10.6927 8.85905 10.3538 8.99965 10.0003 9.00004ZM10.0003 6.86671C9.8421 6.86671 9.68743 6.91363 9.55587 7.00153C9.42431 7.08944 9.32177 7.21438 9.26122 7.36056C9.20067 7.50674 9.18483 7.6676 9.2157 7.82278C9.24657 7.97796 9.32276 8.12051 9.43464 8.23239C9.54652 8.34427 9.68907 8.42047 9.84425 8.45134C9.99944 8.4822 10.1603 8.46636 10.3065 8.40581C10.4527 8.34526 10.5776 8.24272 10.6655 8.11116C10.7534 7.9796 10.8003 7.82493 10.8003 7.66671C10.8001 7.45461 10.7157 7.25126 10.5658 7.10128C10.4158 6.9513 10.2124 6.86694 10.0003 6.86671Z" fill="white" stroke="white" stroke-width="0.5"/>
<path d="M14.6272 6.33329L8.66699 12.2935L9.04015 12.6666L15.0003 6.70644L14.6272 6.33329Z" fill="white" stroke="white" stroke-width="0.5"/>
<path d="M13.6663 12.6667C13.4026 12.6667 13.1448 12.5885 12.9256 12.442C12.7063 12.2955 12.5354 12.0872 12.4345 11.8436C12.3336 11.5999 12.3072 11.3319 12.3586 11.0732C12.4101 10.8146 12.5371 10.577 12.7235 10.3905C12.91 10.2041 13.1476 10.0771 13.4062 10.0256C13.6649 9.97417 13.933 10.0006 14.1766 10.1015C14.4202 10.2024 14.6285 10.3733 14.775 10.5926C14.9215 10.8118 14.9997 11.0696 14.9997 11.3333C14.9993 11.6868 14.8587 12.0257 14.6087 12.2757C14.3588 12.5257 14.0198 12.6663 13.6663 12.6667ZM13.6663 10.5333C13.5081 10.5333 13.3534 10.5803 13.2219 10.6682C13.0903 10.7561 12.9878 10.881 12.9272 11.0272C12.8667 11.1734 12.8508 11.3342 12.8817 11.4894C12.9126 11.6446 12.9888 11.7871 13.1007 11.899C13.2125 12.0109 13.3551 12.0871 13.5103 12.118C13.6655 12.1488 13.8263 12.133 13.9725 12.0724C14.1187 12.0119 14.2436 11.9093 14.3315 11.7778C14.4194 11.6462 14.4663 11.4916 14.4663 11.3333C14.4661 11.1212 14.3817 10.9179 14.2318 10.7679C14.0818 10.6179 13.8784 10.5336 13.6663 10.5333Z" fill="white" stroke="white" stroke-width="0.5"/>
<path d="M7.07091 11.4073C6.45576 12.2469 5.60091 12.6667 4.50636 12.6667C3.41182 12.6667 2.55273 12.249 1.92909 11.4135C1.3097 10.5739 1 9.43298 1 7.99069C1 6.56087 1.31182 5.42823 1.93545 4.59278C2.55909 3.75318 3.41606 3.33337 4.50636 3.33337C5.59667 3.33337 6.45152 3.7511 7.07091 4.58655C7.6903 5.41784 8 6.55048 8 7.98445C8 9.42675 7.6903 10.5677 7.07091 11.4073ZM2.98545 10.5656C3.34606 11.1849 3.85303 11.4946 4.50636 11.4946C5.1597 11.4946 5.66455 11.1849 6.02091 10.5656C6.38152 9.94215 6.56182 9.08384 6.56182 7.99069C6.56182 6.91001 6.37939 6.06001 6.01455 5.4407C5.65394 4.81723 5.15121 4.5055 4.50636 4.5055C3.86152 4.5055 3.35667 4.81723 2.99182 5.4407C2.62697 6.06417 2.44455 6.91417 2.44455 7.99069C2.44455 9.08384 2.62485 9.94215 2.98545 10.5656Z" fill="white"/>
</svg>
