<svg width="76" height="101" viewBox="0 0 76 101" fill="none" xmlns="http://www.w3.org/2000/svg">
<g filter="url(#filter0_f_235_5738)">
<rect x="1.87305" y="1.94983" width="72.8254" height="97.1005" rx="4" fill="#FBF9FA"/>
<rect x="2.87305" y="2.94983" width="70.8254" height="95.1005" rx="3" stroke="#548557" stroke-width="2"/>
</g>
<line opacity="0.5" x1="3.08594" y1="50.0001" x2="73.4838" y2="50.0001" stroke="#548557"/>
<g filter="url(#filter1_f_235_5738)">
<path d="M8.22631 37.8926C8.22631 37.8076 8.20235 37.7365 8.15442 37.6792C8.10587 37.6211 8.04628 37.5921 7.97565 37.5921L7.89525 37.5921L7.91133 37.8802C7.91575 37.9527 7.93183 38.009 7.95957 38.0491C7.98732 38.0884 8.02452 38.1081 8.07118 38.1081C8.11785 38.1081 8.15537 38.0884 8.18374 38.0491C8.21212 38.0097 8.22631 37.9575 8.22631 37.8926ZM8.3663 37.933C8.3663 38.0401 8.33918 38.1268 8.28495 38.1931C8.23072 38.2587 8.15947 38.2915 8.07118 38.2915C7.98669 38.2915 7.91921 38.2577 7.86877 38.19C7.81832 38.1216 7.78994 38.0252 7.78364 37.9009L7.76756 37.5921L7.68527 37.5921C7.62536 37.5921 7.57838 37.6129 7.54433 37.6543C7.51028 37.6957 7.49326 37.7538 7.49326 37.8284C7.49326 37.8967 7.50713 37.9524 7.53487 37.9952C7.56199 38.038 7.60014 38.0653 7.64932 38.077L7.64932 38.2511C7.56167 38.2449 7.48979 38.2034 7.43367 38.1268C7.37691 38.0494 7.34854 37.9486 7.34854 37.8242C7.34854 37.6978 7.37754 37.5977 7.43556 37.5237C7.49357 37.4491 7.57145 37.4118 7.66919 37.4118L8.34927 37.4118L8.34927 37.5828L8.17996 37.5828L8.17996 37.5869C8.23608 37.6194 8.28117 37.6671 8.31522 37.7299C8.34927 37.7928 8.3663 37.8605 8.3663 37.933Z" fill="black"/>
<path d="M8.34927 37.1735L7.36556 37.1735L7.36556 36.9933L8.34927 36.9933L8.34927 37.1735ZM7.20003 37.0834C7.20003 37.1138 7.18994 37.14 7.16977 37.1621C7.14959 37.1842 7.12563 37.1953 7.09788 37.1953C7.0695 37.1953 7.04554 37.1842 7.02599 37.1621C7.00581 37.14 6.99573 37.1138 6.99573 37.0834C6.99573 37.0523 7.00581 37.0257 7.02599 37.0036C7.04554 36.9815 7.0695 36.9705 7.09788 36.9705C7.12563 36.9705 7.14959 36.9815 7.16977 37.0036C7.18994 37.0257 7.20003 37.0523 7.20003 37.0834Z" fill="black"/>
<path d="M7.63703 36.7684C7.55253 36.7684 7.48348 36.7311 7.42988 36.6565C7.37565 36.5812 7.34854 36.4845 7.34854 36.3664C7.34854 36.2552 7.37565 36.1626 7.42988 36.0887C7.48411 36.0148 7.55285 35.9758 7.63608 35.9717L7.63608 36.1436C7.58816 36.1499 7.55064 36.1733 7.52352 36.2141C7.49641 36.2542 7.48285 36.307 7.48285 36.3726C7.48285 36.4382 7.49641 36.4911 7.52352 36.5312C7.55001 36.5712 7.585 36.5912 7.62851 36.5912C7.69536 36.5912 7.74265 36.5315 7.7704 36.412L7.80729 36.2452C7.83251 36.1367 7.8653 36.0604 7.90566 36.0162C7.94538 35.9713 8.0015 35.9489 8.07402 35.9489C8.15978 35.9489 8.23009 35.9889 8.28495 36.069C8.33918 36.1492 8.3663 36.2521 8.3663 36.3778C8.3663 36.4952 8.33981 36.5923 8.28684 36.669C8.23324 36.7449 8.16262 36.7878 8.07497 36.7974L8.07497 36.6171C8.17964 36.5971 8.23198 36.5135 8.23198 36.3664C8.23198 36.2939 8.21906 36.2366 8.1932 36.1944C8.16672 36.1516 8.13109 36.1302 8.08632 36.1302C8.05101 36.1302 8.02294 36.143 8.00214 36.1685C7.98133 36.1934 7.96367 36.2359 7.94917 36.296L7.90471 36.4856C7.86057 36.6741 7.77134 36.7684 7.63703 36.7684Z" fill="black"/>
<path d="M7.36556 35.5717L8.39751 35.5717C8.49714 35.5717 8.57029 35.5987 8.61695 35.6525C8.66425 35.7064 8.68789 35.7907 8.68789 35.9053C8.68789 35.9268 8.68758 35.9382 8.68695 35.9395L8.5498 35.9395L8.5498 35.9116C8.5498 35.8528 8.53845 35.8117 8.51574 35.7883C8.49304 35.7641 8.45426 35.752 8.3994 35.752L7.36556 35.752L7.36556 35.5717ZM7.20003 35.6619C7.20003 35.6922 7.18994 35.7185 7.16977 35.7406C7.14959 35.7627 7.12563 35.7738 7.09788 35.7738C7.0695 35.7738 7.04554 35.7627 7.02599 35.7406C7.00581 35.7185 6.99573 35.6922 6.99573 35.6619C6.99573 35.6308 7.00581 35.6042 7.02599 35.5821C7.04554 35.56 7.0695 35.5489 7.09788 35.5489C7.12563 35.5489 7.14959 35.56 7.16977 35.5821C7.18994 35.6042 7.20003 35.6308 7.20003 35.6619Z" fill="black"/>
<path d="M8.3663 34.92C8.3663 35.0581 8.31995 35.1697 8.22725 35.2547C8.13456 35.3389 8.01128 35.3811 7.85742 35.3811C7.70418 35.3811 7.58122 35.3389 7.48853 35.2547C7.3952 35.1704 7.34854 35.0602 7.34854 34.9241C7.34854 34.8482 7.3643 34.7801 7.39583 34.72C7.42736 34.6599 7.47055 34.6137 7.52541 34.5812L7.52541 34.577L6.98437 34.577L6.98437 34.3968L8.34927 34.3968L8.34927 34.5688L8.1828 34.5688L8.1828 34.5719C8.24018 34.6071 8.28527 34.6548 8.31806 34.7148C8.35022 34.7749 8.3663 34.8433 8.3663 34.92ZM7.49325 34.8858C7.49325 34.9811 7.52636 35.0568 7.59257 35.1127C7.65815 35.1687 7.74643 35.1966 7.85742 35.1966C7.96903 35.1966 8.05763 35.1687 8.12321 35.1127C8.18879 35.0568 8.22158 34.9811 8.22158 34.8858C8.22158 34.7926 8.18847 34.7176 8.12226 34.661C8.05542 34.6043 7.96714 34.576 7.85742 34.576C7.74769 34.576 7.65973 34.6047 7.59352 34.662C7.52668 34.7186 7.49325 34.7932 7.49325 34.8858Z" fill="black"/>
<path d="M8.22631 33.7979C8.22631 33.7129 8.20234 33.6418 8.15442 33.5845C8.10587 33.5264 8.04628 33.4974 7.97565 33.4974L7.89525 33.4974L7.91133 33.7855C7.91575 33.858 7.93183 33.9143 7.95957 33.9543C7.98732 33.9937 8.02452 34.0134 8.07118 34.0134C8.11785 34.0134 8.15537 33.9937 8.18374 33.9543C8.21212 33.915 8.22631 33.8628 8.22631 33.7979ZM8.3663 33.8383C8.3663 33.9454 8.33918 34.0321 8.28495 34.0984C8.23072 34.164 8.15947 34.1968 8.07118 34.1968C7.98669 34.1968 7.91921 34.1629 7.86877 34.0953C7.81832 34.0269 7.78994 33.9305 7.78364 33.8062L7.76756 33.4974L7.68527 33.4974C7.62536 33.4974 7.57838 33.5181 7.54433 33.5596C7.51028 33.601 7.49325 33.6591 7.49325 33.7337C7.49325 33.802 7.50713 33.8576 7.53487 33.9005C7.56199 33.9433 7.60014 33.9706 7.64932 33.9823L7.64932 34.1564C7.56167 34.1502 7.48979 34.1087 7.43366 34.0321C7.37691 33.9547 7.34854 33.8538 7.34854 33.7295C7.34854 33.6031 7.37754 33.5029 7.43556 33.429C7.49357 33.3544 7.57145 33.3171 7.66919 33.3171L8.34927 33.3171L8.34927 33.4881L8.17996 33.4881L8.17996 33.4922C8.23608 33.5247 8.28117 33.5724 8.31522 33.6352C8.34927 33.6981 8.3663 33.7658 8.3663 33.8383Z" fill="black"/>
<path d="M7.63703 33.1068C7.55253 33.1068 7.48348 33.0695 7.42988 32.9949C7.37565 32.9196 7.34854 32.8229 7.34854 32.7048C7.34854 32.5936 7.37565 32.501 7.42988 32.4271C7.48411 32.3532 7.55284 32.3142 7.63608 32.31L7.63608 32.482C7.58816 32.4882 7.55064 32.5117 7.52352 32.5525C7.49641 32.5926 7.48285 32.6454 7.48285 32.711C7.48285 32.7766 7.49641 32.8295 7.52352 32.8695C7.55001 32.9096 7.585 32.9296 7.62851 32.9296C7.69536 32.9296 7.74265 32.8699 7.7704 32.7504L7.80728 32.5836C7.83251 32.4751 7.8653 32.3988 7.90566 32.3546C7.94538 32.3097 8.0015 32.2872 8.07402 32.2872C8.15978 32.2872 8.23009 32.3273 8.28495 32.4074C8.33918 32.4876 8.3663 32.5905 8.3663 32.7162C8.3663 32.8336 8.33981 32.9307 8.28684 33.0073C8.23324 33.0833 8.16262 33.1261 8.07497 33.1358L8.07497 32.9555C8.17964 32.9355 8.23198 32.8519 8.23198 32.7048C8.23198 32.6323 8.21906 32.5749 8.1932 32.5328C8.16672 32.49 8.13109 32.4686 8.08632 32.4686C8.05101 32.4686 8.02294 32.4813 8.00213 32.5069C7.98133 32.5318 7.96367 32.5742 7.94917 32.6343L7.90471 32.8239C7.86057 33.0125 7.77134 33.1068 7.63703 33.1068Z" fill="black"/>
<path d="M8.22631 31.3092C8.22631 31.2242 8.20234 31.153 8.15442 31.0957C8.10587 31.0377 8.04628 31.0087 7.97565 31.0087L7.89525 31.0087L7.91133 31.2967C7.91575 31.3692 7.93182 31.4255 7.95957 31.4656C7.98732 31.505 8.02452 31.5247 8.07118 31.5247C8.11785 31.5247 8.15537 31.505 8.18374 31.4656C8.21212 31.4262 8.22631 31.3741 8.22631 31.3092ZM8.3663 31.3496C8.3663 31.4566 8.33918 31.5433 8.28495 31.6096C8.23072 31.6752 8.15947 31.7081 8.07118 31.7081C7.98669 31.7081 7.91921 31.6742 7.86877 31.6065C7.81832 31.5381 7.78994 31.4418 7.78364 31.3174L7.76756 31.0087L7.68527 31.0087C7.62536 31.0087 7.57838 31.0294 7.54433 31.0708C7.51028 31.1123 7.49325 31.1703 7.49325 31.2449C7.49325 31.3133 7.50713 31.3689 7.53487 31.4117C7.56199 31.4546 7.60014 31.4818 7.64932 31.4936L7.64932 31.6676C7.56167 31.6614 7.48979 31.62 7.43366 31.5433C7.37691 31.466 7.34854 31.3651 7.34854 31.2408C7.34854 31.1144 7.37754 31.0142 7.43556 30.9403C7.49357 30.8657 7.57145 30.8284 7.66919 30.8284L8.34927 30.8284L8.34927 30.9994L8.17996 30.9994L8.17996 31.0035C8.23608 31.036 8.28117 31.0836 8.31522 31.1465C8.34927 31.2093 8.3663 31.277 8.3663 31.3496Z" fill="black"/>
<path d="M7.63703 30.6181C7.55253 30.6181 7.48348 30.5808 7.42988 30.5062C7.37565 30.4309 7.34854 30.3342 7.34854 30.2161C7.34854 30.1048 7.37565 30.0123 7.42988 29.9384C7.48411 29.8645 7.55284 29.8254 7.63608 29.8213L7.63608 29.9933C7.58816 29.9995 7.55064 30.023 7.52352 30.0637C7.49641 30.1038 7.48285 30.1567 7.48285 30.2223C7.48285 30.2879 7.49641 30.3407 7.52352 30.3808C7.55001 30.4209 7.585 30.4409 7.62851 30.4409C7.69536 30.4409 7.74265 30.3811 7.7704 30.2616L7.80728 30.0948C7.83251 29.9864 7.8653 29.9101 7.90566 29.8659C7.94538 29.821 8.0015 29.7985 8.07402 29.7985C8.15978 29.7985 8.23009 29.8386 8.28495 29.9187C8.33918 29.9988 8.3663 30.1017 8.3663 30.2275C8.3663 30.3449 8.33981 30.4419 8.28684 30.5186C8.23324 30.5946 8.16262 30.6374 8.07497 30.6471L8.07497 30.4668C8.17964 30.4468 8.23198 30.3632 8.23198 30.2161C8.23198 30.1435 8.21906 30.0862 8.1932 30.0441C8.16672 30.0012 8.13109 29.9798 8.08632 29.9798C8.05101 29.9798 8.02294 29.9926 8.00213 30.0182C7.98133 30.043 7.96367 30.0855 7.94917 30.1456L7.90471 30.3352C7.86057 30.5238 7.77134 30.6181 7.63703 30.6181Z" fill="black"/>
<path d="M8.3663 29.2027C8.3663 29.3409 8.31995 29.4524 8.22725 29.5374C8.13456 29.6217 8.01128 29.6638 7.85742 29.6638C7.70418 29.6638 7.58122 29.6217 7.48853 29.5374C7.3952 29.4531 7.34854 29.343 7.34854 29.2069C7.34854 29.1309 7.3643 29.0629 7.39583 29.0028C7.42736 28.9427 7.47055 28.8964 7.52541 28.8639L7.52541 28.8598L6.98437 28.8598L6.98437 28.6795L8.34927 28.6795L8.34927 28.8515L8.1828 28.8515L8.1828 28.8546C8.24018 28.8898 8.28527 28.9375 8.31806 28.9976C8.35022 29.0577 8.3663 29.1261 8.3663 29.2027ZM7.49325 29.1685C7.49325 29.2639 7.52636 29.3395 7.59257 29.3955C7.65815 29.4514 7.74643 29.4794 7.85742 29.4794C7.96903 29.4794 8.05763 29.4514 8.12321 29.3955C8.18879 29.3395 8.22158 29.2639 8.22158 29.1685C8.22158 29.0753 8.18847 29.0004 8.12226 28.9437C8.05542 28.8871 7.96714 28.8588 7.85742 28.8588C7.74769 28.8588 7.65973 28.8874 7.59352 28.9447C7.52668 29.0014 7.49325 29.076 7.49325 29.1685Z" fill="black"/>
<path d="M8.3663 28.0278C8.3663 28.1659 8.31995 28.2775 8.22725 28.3625C8.13456 28.4467 8.01128 28.4889 7.85742 28.4889C7.70418 28.4889 7.58122 28.4467 7.48853 28.3625C7.3952 28.2782 7.34854 28.168 7.34854 28.0319C7.34854 27.956 7.3643 27.8879 7.39583 27.8278C7.42736 27.7677 7.47055 27.7214 7.52541 27.689L7.52541 27.6848L6.98437 27.6848L6.98437 27.5046L8.34927 27.5046L8.34927 27.6766L8.1828 27.6766L8.1828 27.6797C8.24018 27.7149 8.28527 27.7625 8.31806 27.8226C8.35022 27.8827 8.3663 27.9511 8.3663 28.0278ZM7.49325 27.9936C7.49325 28.0889 7.52636 28.1646 7.59257 28.2205C7.65815 28.2765 7.74643 28.3044 7.85742 28.3044C7.96903 28.3044 8.05763 28.2765 8.12321 28.2205C8.18879 28.1646 8.22158 28.0889 8.22158 27.9936C8.22158 27.9004 8.18847 27.8254 8.12226 27.7688C8.05542 27.7121 7.96714 27.6838 7.85742 27.6838C7.74769 27.6838 7.65973 27.7125 7.59352 27.7698C7.52668 27.8264 7.49325 27.901 7.49325 27.9936Z" fill="black"/>
<path d="M7.63703 27.2797C7.55253 27.2797 7.48348 27.2424 7.42988 27.1678C7.37565 27.0925 7.34854 26.9958 7.34854 26.8777C7.34854 26.7665 7.37565 26.6739 7.42988 26.6C7.48411 26.5261 7.55284 26.4871 7.63608 26.483L7.63608 26.6549C7.58816 26.6612 7.55064 26.6846 7.52352 26.7254C7.49641 26.7655 7.48285 26.8183 7.48285 26.8839C7.48285 26.9495 7.49641 27.0024 7.52352 27.0425C7.55001 27.0825 7.585 27.1025 7.62851 27.1025C7.69536 27.1025 7.74265 27.0428 7.7704 26.9233L7.80728 26.7565C7.83251 26.648 7.8653 26.5717 7.90566 26.5275C7.94538 26.4826 8.0015 26.4602 8.07402 26.4602C8.15978 26.4602 8.23009 26.5002 8.28495 26.5803C8.33918 26.6605 8.3663 26.7634 8.3663 26.8891C8.3663 27.0065 8.33981 27.1036 8.28684 27.1803C8.23324 27.2562 8.16262 27.2991 8.07497 27.3087L8.07497 27.1284C8.17964 27.1084 8.23198 27.0248 8.23198 26.8777C8.23198 26.8052 8.21906 26.7479 8.1932 26.7057C8.16672 26.6629 8.13109 26.6415 8.08632 26.6415C8.051 26.6415 8.02294 26.6543 8.00213 26.6798C7.98133 26.7047 7.96367 26.7472 7.94917 26.8073L7.90471 26.9969C7.86057 27.1854 7.77134 27.2797 7.63703 27.2797Z" fill="black"/>
<path d="M8.3663 25.8644C8.3663 26.0025 8.31995 26.1141 8.22725 26.1991C8.13456 26.2833 8.01128 26.3255 7.85742 26.3255C7.70418 26.3255 7.58122 26.2833 7.48853 26.1991C7.3952 26.1148 7.34854 26.0046 7.34854 25.8685C7.34854 25.7926 7.3643 25.7245 7.39583 25.6644C7.42736 25.6043 7.47055 25.5581 7.52541 25.5256L7.52541 25.5214L6.98437 25.5214L6.98437 25.3412L8.34927 25.3412L8.34927 25.5132L8.1828 25.5132L8.1828 25.5163C8.24018 25.5515 8.28527 25.5991 8.31806 25.6592C8.35022 25.7193 8.3663 25.7877 8.3663 25.8644ZM7.49325 25.8302C7.49325 25.9255 7.52636 26.0012 7.59257 26.0571C7.65815 26.1131 7.74643 26.141 7.85742 26.141C7.96903 26.141 8.05763 26.1131 8.12321 26.0571C8.18879 26.0012 8.22158 25.9255 8.22158 25.8302C8.22158 25.737 8.18847 25.662 8.12226 25.6054C8.05542 25.5487 7.96714 25.5204 7.85742 25.5204C7.74769 25.5204 7.65973 25.5491 7.59352 25.6064C7.52668 25.663 7.49325 25.7376 7.49325 25.8302Z" fill="black"/>
<path d="M8.34927 24.6532L7.36556 24.6532L7.36556 24.4729L8.34927 24.4729L8.34927 24.6532ZM7.20003 24.563C7.20003 24.5934 7.18994 24.6197 7.16977 24.6418C7.14959 24.6639 7.12562 24.6749 7.09788 24.6749C7.0695 24.6749 7.04554 24.6639 7.02599 24.6418C7.00581 24.6197 6.99572 24.5934 6.99572 24.563C6.99572 24.532 7.00581 24.5054 7.02599 24.4833C7.04554 24.4612 7.0695 24.4501 7.09788 24.4501C7.12562 24.4501 7.14959 24.4612 7.16977 24.4833C7.18994 24.5054 7.20003 24.532 7.20003 24.563Z" fill="black"/>
<path d="M7.36556 23.6046L8.39751 23.6046C8.49714 23.6046 8.57029 23.6316 8.61695 23.6855C8.66425 23.7393 8.68789 23.8236 8.68789 23.9383C8.68789 23.9597 8.68758 23.9711 8.68695 23.9725L8.5498 23.9725L8.5498 23.9445C8.5498 23.8858 8.53844 23.8447 8.51574 23.8212C8.49304 23.797 8.45426 23.7849 8.3994 23.7849L7.36556 23.7849L7.36556 23.6046ZM7.20003 23.6948C7.20003 23.7252 7.18994 23.7514 7.16977 23.7735C7.14959 23.7956 7.12562 23.8067 7.09788 23.8067C7.0695 23.8067 7.04554 23.7956 7.02599 23.7735C7.00581 23.7514 6.99572 23.7252 6.99572 23.6948C6.99572 23.6637 7.00581 23.6371 7.02599 23.615C7.04554 23.5929 7.0695 23.5818 7.09788 23.5818C7.12562 23.5818 7.14959 23.5929 7.16977 23.615C7.18994 23.6371 7.20003 23.6637 7.20003 23.6948Z" fill="black"/>
<path d="M8.3663 22.9146C8.3663 23.0652 8.32058 23.186 8.22914 23.2772C8.13708 23.3684 8.01317 23.414 7.85742 23.414C7.70166 23.414 7.57807 23.3684 7.48663 23.2772C7.39457 23.186 7.34854 23.0652 7.34854 22.9146C7.34854 22.7647 7.39457 22.6442 7.48663 22.553C7.57807 22.4618 7.70166 22.4162 7.85742 22.4162C8.01254 22.4162 8.13613 22.4618 8.2282 22.553C8.32026 22.6442 8.3663 22.7647 8.3663 22.9146ZM8.1251 23.1456C8.18942 23.0883 8.22158 23.0113 8.22158 22.9146C8.22158 22.8179 8.18973 22.7412 8.12604 22.6846C8.06172 22.6279 7.97218 22.5996 7.85742 22.5996C7.74265 22.5996 7.65342 22.6279 7.58973 22.6846C7.52541 22.7412 7.49325 22.8179 7.49325 22.9146C7.49325 23.0113 7.52541 23.0883 7.58973 23.1456C7.65405 23.2023 7.74328 23.2306 7.85742 23.2306C7.97155 23.2306 8.06078 23.2023 8.1251 23.1456Z" fill="black"/>
<path d="M8.3663 21.8256C8.3663 21.9638 8.31995 22.0753 8.22725 22.1603C8.13456 22.2446 8.01128 22.2867 7.85742 22.2867C7.70418 22.2867 7.58122 22.2446 7.48852 22.1603C7.3952 22.076 7.34854 21.9659 7.34854 21.8298C7.34854 21.7538 7.3643 21.6858 7.39583 21.6257C7.42736 21.5656 7.47055 21.5193 7.52541 21.4868L7.52541 21.4827L6.98437 21.4827L6.98437 21.3024L8.34927 21.3024L8.34927 21.4744L8.1828 21.4744L8.1828 21.4775C8.24018 21.5127 8.28527 21.5604 8.31806 21.6205C8.35022 21.6806 8.3663 21.749 8.3663 21.8256ZM7.49325 21.7914C7.49325 21.8868 7.52636 21.9624 7.59257 22.0184C7.65815 22.0743 7.74643 22.1023 7.85742 22.1023C7.96903 22.1023 8.05763 22.0743 8.12321 22.0184C8.18879 21.9624 8.22158 21.8868 8.22158 21.7914C8.22158 21.6982 8.18847 21.6232 8.12226 21.5666C8.05542 21.51 7.96714 21.4816 7.85742 21.4816C7.74769 21.4816 7.65973 21.5103 7.59352 21.5676C7.52668 21.6243 7.49325 21.6989 7.49325 21.7914Z" fill="black"/>
<path d="M8.3663 19.7804C8.3663 19.9185 8.31995 20.0301 8.22725 20.115C8.13456 20.1993 8.01128 20.2414 7.85742 20.2414C7.70418 20.2414 7.58122 20.1993 7.48852 20.115C7.3952 20.0307 7.34854 19.9206 7.34854 19.7845C7.34854 19.7085 7.3643 19.6405 7.39583 19.5804C7.42736 19.5203 7.47055 19.474 7.52541 19.4415L7.52541 19.4374L6.98437 19.4374L6.98437 19.2571L8.34927 19.2571L8.34927 19.4291L8.1828 19.4291L8.1828 19.4322C8.24018 19.4674 8.28527 19.5151 8.31806 19.5752C8.35022 19.6353 8.3663 19.7037 8.3663 19.7804ZM7.49325 19.7462C7.49325 19.8415 7.52636 19.9171 7.59257 19.9731C7.65815 20.029 7.74643 20.057 7.85742 20.057C7.96903 20.057 8.05763 20.029 8.12321 19.9731C8.18879 19.9171 8.22158 19.8415 8.22158 19.7462C8.22158 19.6529 8.18847 19.578 8.12226 19.5213C8.05542 19.4647 7.96714 19.4364 7.85742 19.4364C7.74769 19.4364 7.65973 19.465 7.59352 19.5224C7.52668 19.579 7.49325 19.6536 7.49325 19.7462Z" fill="black"/>
<path d="M7.63703 19.0323C7.55253 19.0323 7.48348 18.995 7.42988 18.9204C7.37565 18.8451 7.34854 18.7484 7.34854 18.6303C7.34854 18.5191 7.37565 18.4265 7.42988 18.3526C7.48411 18.2787 7.55284 18.2397 7.63608 18.2355L7.63608 18.4075C7.58816 18.4137 7.55064 18.4372 7.52352 18.478C7.49641 18.518 7.48285 18.5709 7.48285 18.6365C7.48285 18.7021 7.49641 18.7549 7.52352 18.795C7.55001 18.8351 7.585 18.8551 7.62851 18.8551C7.69536 18.8551 7.74265 18.7954 7.7704 18.6759L7.80728 18.509C7.83251 18.4006 7.8653 18.3243 7.90566 18.2801C7.94538 18.2352 8.0015 18.2127 8.07402 18.2127C8.15978 18.2127 8.23009 18.2528 8.28495 18.3329C8.33918 18.413 8.3663 18.516 8.3663 18.6417C8.3663 18.7591 8.33981 18.8561 8.28684 18.9328C8.23324 19.0088 8.16262 19.0516 8.07497 19.0613L8.07497 18.881C8.17964 18.861 8.23198 18.7774 8.23198 18.6303C8.23198 18.5577 8.21905 18.5004 8.1932 18.4583C8.16672 18.4154 8.13109 18.394 8.08632 18.394C8.051 18.394 8.02294 18.4068 8.00213 18.4324C7.98133 18.4572 7.96367 18.4997 7.94917 18.5598L7.90471 18.7494C7.86057 18.938 7.77134 19.0323 7.63703 19.0323Z" fill="black"/>
<path d="M7.63703 18.0438C7.55253 18.0438 7.48348 18.0065 7.42988 17.9319C7.37565 17.8566 7.34854 17.7599 7.34854 17.6418C7.34854 17.5306 7.37565 17.4381 7.42988 17.3641C7.48411 17.2902 7.55284 17.2512 7.63608 17.2471L7.63608 17.4191C7.58816 17.4253 7.55064 17.4488 7.52352 17.4895C7.49641 17.5296 7.48285 17.5824 7.48285 17.648C7.48285 17.7137 7.49641 17.7665 7.52352 17.8066C7.55001 17.8466 7.585 17.8667 7.62851 17.8667C7.69536 17.8667 7.74265 17.8069 7.7704 17.6874L7.80728 17.5206C7.83251 17.4121 7.8653 17.3358 7.90566 17.2916C7.94538 17.2467 8.0015 17.2243 8.07402 17.2243C8.15978 17.2243 8.23009 17.2643 8.28495 17.3445C8.33918 17.4246 8.3663 17.5275 8.3663 17.6532C8.3663 17.7706 8.33981 17.8677 8.28684 17.9444C8.23324 18.0203 8.16262 18.0632 8.07497 18.0728L8.07497 17.8926C8.17964 17.8725 8.23198 17.7889 8.23198 17.6418C8.23198 17.5693 8.21905 17.512 8.1932 17.4698C8.16672 17.427 8.13109 17.4056 8.08632 17.4056C8.051 17.4056 8.02294 17.4184 8.00213 17.4439C7.98133 17.4688 7.96367 17.5113 7.94917 17.5714L7.90471 17.761C7.86057 17.9495 7.77134 18.0438 7.63703 18.0438Z" fill="black"/>
<path d="M8.3663 16.5902C8.3663 16.7407 8.32058 16.8616 8.22914 16.9528C8.13708 17.044 8.01317 17.0896 7.85742 17.0896C7.70166 17.0896 7.57807 17.044 7.48663 16.9528C7.39457 16.8616 7.34854 16.7407 7.34854 16.5902C7.34854 16.4403 7.39457 16.3197 7.48663 16.2286C7.57807 16.1374 7.70166 16.0918 7.85742 16.0918C8.01254 16.0918 8.13613 16.1374 8.2282 16.2286C8.32026 16.3197 8.3663 16.4403 8.3663 16.5902ZM8.1251 16.8212C8.18942 16.7639 8.22158 16.6869 8.22158 16.5902C8.22158 16.4935 8.18973 16.4168 8.12604 16.3601C8.06172 16.3035 7.97218 16.2752 7.85742 16.2752C7.74265 16.2752 7.65342 16.3035 7.58973 16.3601C7.52541 16.4168 7.49325 16.4935 7.49325 16.5902C7.49325 16.6869 7.52541 16.7639 7.58973 16.8212C7.65405 16.8779 7.74328 16.9062 7.85742 16.9062C7.97155 16.9062 8.06078 16.8779 8.1251 16.8212Z" fill="black"/>
<path d="M7.80255 15.7198L7.36556 15.2432L7.36556 15.0246L7.79026 15.4919L8.34927 15.0101L8.34927 15.2194L7.89147 15.6193L7.97849 15.7198L8.34927 15.7198L8.34927 15.9001L6.98437 15.9001L6.98437 15.7198L7.80255 15.7198Z" fill="black"/>
</g>
<g filter="url(#filter2_f_235_5738)">
<path d="M8.22631 82.752C8.22631 82.667 8.20235 82.5959 8.15442 82.5385C8.10587 82.4805 8.04628 82.4515 7.97565 82.4515L7.89525 82.4515L7.91133 82.7395C7.91575 82.8121 7.93183 82.8684 7.95957 82.9084C7.98732 82.9478 8.02452 82.9675 8.07118 82.9675C8.11785 82.9675 8.15537 82.9478 8.18374 82.9084C8.21212 82.8691 8.22631 82.8169 8.22631 82.752ZM8.3663 82.7924C8.3663 82.8994 8.33918 82.9861 8.28495 83.0524C8.23072 83.1181 8.15947 83.1509 8.07118 83.1509C7.98669 83.1509 7.91921 83.117 7.86877 83.0493C7.81832 82.981 7.78994 82.8846 7.78364 82.7603L7.76756 82.4515L7.68527 82.4515C7.62536 82.4515 7.57838 82.4722 7.54433 82.5137C7.51028 82.5551 7.49326 82.6131 7.49326 82.6877C7.49326 82.7561 7.50713 82.8117 7.53487 82.8546C7.56199 82.8974 7.60014 82.9247 7.64932 82.9364L7.64932 83.1105C7.56167 83.1043 7.48979 83.0628 7.43367 82.9861C7.37691 82.9088 7.34854 82.8079 7.34854 82.6836C7.34854 82.5572 7.37754 82.457 7.43556 82.3831C7.49357 82.3085 7.57145 82.2712 7.66919 82.2712L8.34927 82.2712L8.34927 82.4422L8.17996 82.4422L8.17996 82.4463C8.23608 82.4788 8.28117 82.5264 8.31522 82.5893C8.34927 82.6522 8.3663 82.7199 8.3663 82.7924Z" fill="black"/>
<path d="M8.34927 82.0329L7.36556 82.0329L7.36556 81.8526L8.34927 81.8526L8.34927 82.0329ZM7.20003 81.9428C7.20003 81.9732 7.18994 81.9994 7.16977 82.0215C7.14959 82.0436 7.12563 82.0547 7.09788 82.0547C7.0695 82.0547 7.04554 82.0436 7.02599 82.0215C7.00581 81.9994 6.99573 81.9732 6.99573 81.9428C6.99573 81.9117 7.00581 81.8851 7.02599 81.863C7.04554 81.8409 7.0695 81.8298 7.09788 81.8298C7.12563 81.8298 7.14959 81.8409 7.16977 81.863C7.18994 81.8851 7.20003 81.9117 7.20003 81.9428Z" fill="black"/>
<path d="M7.63703 81.6278C7.55253 81.6278 7.48348 81.5905 7.42988 81.5159C7.37565 81.4406 7.34854 81.3439 7.34854 81.2258C7.34854 81.1146 7.37565 81.022 7.42988 80.9481C7.48411 80.8742 7.55285 80.8352 7.63608 80.831L7.63608 81.003C7.58816 81.0092 7.55064 81.0327 7.52352 81.0735C7.49641 81.1135 7.48285 81.1664 7.48285 81.232C7.48285 81.2976 7.49641 81.3505 7.52352 81.3905C7.55001 81.4306 7.585 81.4506 7.62851 81.4506C7.69536 81.4506 7.74265 81.3909 7.7704 81.2714L7.80729 81.1046C7.83251 80.9961 7.8653 80.9198 7.90566 80.8756C7.94538 80.8307 8.0015 80.8082 8.07402 80.8082C8.15978 80.8082 8.23009 80.8483 8.28495 80.9284C8.33918 81.0085 8.3663 81.1115 8.3663 81.2372C8.3663 81.3546 8.33981 81.4517 8.28684 81.5283C8.23324 81.6043 8.16262 81.6471 8.07497 81.6568L8.07497 81.4765C8.17964 81.4565 8.23198 81.3729 8.23198 81.2258C8.23198 81.1533 8.21906 81.0959 8.1932 81.0538C8.16672 81.011 8.13109 80.9896 8.08632 80.9896C8.05101 80.9896 8.02294 81.0023 8.00214 81.0279C7.98133 81.0528 7.96367 81.0952 7.94917 81.1553L7.90471 81.3449C7.86057 81.5335 7.77134 81.6278 7.63703 81.6278Z" fill="black"/>
<path d="M7.36556 80.4311L8.39751 80.4311C8.49714 80.4311 8.57029 80.458 8.61695 80.5119C8.66425 80.5658 8.68789 80.6501 8.68789 80.7647C8.68789 80.7861 8.68758 80.7975 8.68695 80.7989L8.5498 80.7989L8.5498 80.7709C8.5498 80.7122 8.53845 80.6711 8.51574 80.6476C8.49304 80.6235 8.45426 80.6114 8.3994 80.6114L7.36556 80.6114L7.36556 80.4311ZM7.20003 80.5212C7.20003 80.5516 7.18994 80.5779 7.16977 80.6C7.14959 80.6221 7.12563 80.6331 7.09788 80.6331C7.0695 80.6331 7.04554 80.6221 7.02599 80.6C7.00581 80.5779 6.99573 80.5516 6.99573 80.5212C6.99573 80.4901 7.00581 80.4636 7.02599 80.4414C7.04554 80.4193 7.0695 80.4083 7.09788 80.4083C7.12563 80.4083 7.14959 80.4193 7.16977 80.4414C7.18994 80.4636 7.20003 80.4901 7.20003 80.5212Z" fill="black"/>
<path d="M8.3663 79.7794C8.3663 79.9175 8.31995 80.0291 8.22725 80.114C8.13456 80.1983 8.01128 80.2404 7.85742 80.2404C7.70418 80.2404 7.58122 80.1983 7.48853 80.114C7.3952 80.0298 7.34854 79.9196 7.34854 79.7835C7.34854 79.7075 7.3643 79.6395 7.39583 79.5794C7.42736 79.5193 7.47055 79.473 7.52541 79.4406L7.52541 79.4364L6.98437 79.4364L6.98437 79.2561L8.34927 79.2561L8.34927 79.4281L8.1828 79.4281L8.1828 79.4312C8.24018 79.4665 8.28527 79.5141 8.31806 79.5742C8.35022 79.6343 8.3663 79.7027 8.3663 79.7794ZM7.49325 79.7452C7.49325 79.8405 7.52636 79.9161 7.59257 79.9721C7.65815 80.028 7.74643 80.056 7.85742 80.056C7.96903 80.056 8.05763 80.028 8.12321 79.9721C8.18879 79.9161 8.22158 79.8405 8.22158 79.7452C8.22158 79.6519 8.18847 79.577 8.12226 79.5203C8.05542 79.4637 7.96714 79.4354 7.85742 79.4354C7.74769 79.4354 7.65973 79.4641 7.59352 79.5214C7.52668 79.578 7.49325 79.6526 7.49325 79.7452Z" fill="black"/>
<path d="M8.22631 78.6573C8.22631 78.5723 8.20234 78.5012 8.15442 78.4438C8.10587 78.3858 8.04628 78.3568 7.97565 78.3568L7.89525 78.3568L7.91133 78.6448C7.91575 78.7174 7.93183 78.7737 7.95957 78.8137C7.98732 78.8531 8.02452 78.8728 8.07118 78.8728C8.11785 78.8728 8.15537 78.8531 8.18374 78.8137C8.21212 78.7743 8.22631 78.7222 8.22631 78.6573ZM8.3663 78.6977C8.3663 78.8047 8.33918 78.8914 8.28495 78.9577C8.23072 79.0234 8.15947 79.0562 8.07118 79.0562C7.98669 79.0562 7.91921 79.0223 7.86877 78.9546C7.81832 78.8862 7.78994 78.7899 7.78364 78.6656L7.76756 78.3568L7.68527 78.3568C7.62536 78.3568 7.57838 78.3775 7.54433 78.419C7.51028 78.4604 7.49325 78.5184 7.49325 78.593C7.49325 78.6614 7.50713 78.717 7.53487 78.7598C7.56199 78.8027 7.60014 78.83 7.64932 78.8417L7.64932 79.0158C7.56167 79.0095 7.48979 78.9681 7.43366 78.8914C7.37691 78.8141 7.34854 78.7132 7.34854 78.5889C7.34854 78.4625 7.37754 78.3623 7.43556 78.2884C7.49357 78.2138 7.57145 78.1765 7.66919 78.1765L8.34927 78.1765L8.34927 78.3475L8.17996 78.3475L8.17996 78.3516C8.23608 78.3841 8.28117 78.4317 8.31522 78.4946C8.34927 78.5575 8.3663 78.6251 8.3663 78.6977Z" fill="black"/>
<path d="M7.63703 77.9662C7.55253 77.9662 7.48348 77.9289 7.42988 77.8543C7.37565 77.779 7.34854 77.6823 7.34854 77.5642C7.34854 77.453 7.37565 77.3604 7.42988 77.2865C7.48411 77.2126 7.55284 77.1736 7.63608 77.1694L7.63608 77.3414C7.58816 77.3476 7.55064 77.3711 7.52352 77.4119C7.49641 77.4519 7.48285 77.5048 7.48285 77.5704C7.48285 77.636 7.49641 77.6888 7.52352 77.7289C7.55001 77.769 7.585 77.789 7.62851 77.789C7.69536 77.789 7.74265 77.7293 7.7704 77.6098L7.80728 77.4429C7.83251 77.3345 7.8653 77.2582 7.90566 77.214C7.94538 77.1691 8.0015 77.1466 8.07402 77.1466C8.15978 77.1466 8.23009 77.1867 8.28495 77.2668C8.33918 77.3469 8.3663 77.4499 8.3663 77.5756C8.3663 77.693 8.33981 77.79 8.28684 77.8667C8.23324 77.9427 8.16262 77.9855 8.07497 77.9952L8.07497 77.8149C8.17964 77.7949 8.23198 77.7113 8.23198 77.5642C8.23198 77.4916 8.21906 77.4343 8.1932 77.3922C8.16672 77.3493 8.13109 77.3279 8.08632 77.3279C8.05101 77.3279 8.02294 77.3407 8.00213 77.3663C7.98133 77.3911 7.96367 77.4336 7.94917 77.4937L7.90471 77.6833C7.86057 77.8719 7.77134 77.9662 7.63703 77.9662Z" fill="black"/>
<path d="M8.22631 76.1685C8.22631 76.0836 8.20234 76.0124 8.15442 75.9551C8.10587 75.8971 8.04628 75.8681 7.97565 75.8681L7.89525 75.8681L7.91133 76.1561C7.91575 76.2286 7.93182 76.2849 7.95957 76.325C7.98732 76.3644 8.02452 76.384 8.07118 76.384C8.11785 76.384 8.15537 76.3644 8.18374 76.325C8.21212 76.2856 8.22631 76.2335 8.22631 76.1685ZM8.3663 76.2089C8.3663 76.316 8.33918 76.4027 8.28495 76.469C8.23072 76.5346 8.15947 76.5674 8.07118 76.5674C7.98669 76.5674 7.91921 76.5336 7.86877 76.4659C7.81832 76.3975 7.78994 76.3012 7.78364 76.1768L7.76756 75.8681L7.68527 75.8681C7.62536 75.8681 7.57838 75.8888 7.54433 75.9302C7.51028 75.9717 7.49325 76.0297 7.49325 76.1043C7.49325 76.1727 7.50713 76.2283 7.53487 76.2711C7.56199 76.3139 7.60014 76.3412 7.64932 76.353L7.64932 76.527C7.56167 76.5208 7.48979 76.4794 7.43366 76.4027C7.37691 76.3253 7.34854 76.2245 7.34854 76.1001C7.34854 75.9737 7.37754 75.8736 7.43556 75.7997C7.49357 75.7251 7.57145 75.6878 7.66919 75.6878L8.34927 75.6878L8.34927 75.8587L8.17996 75.8587L8.17996 75.8629C8.23608 75.8953 8.28117 75.943 8.31522 76.0059C8.34927 76.0687 8.3663 76.1364 8.3663 76.2089Z" fill="black"/>
<path d="M7.63703 75.4774C7.55253 75.4774 7.48348 75.4401 7.42988 75.3655C7.37565 75.2903 7.34854 75.1935 7.34854 75.0754C7.34854 74.9642 7.37565 74.8717 7.42988 74.7978C7.48411 74.7238 7.55284 74.6848 7.63608 74.6807L7.63608 74.8527C7.58816 74.8589 7.55064 74.8824 7.52352 74.9231C7.49641 74.9632 7.48285 75.016 7.48285 75.0816C7.48285 75.1473 7.49641 75.2001 7.52352 75.2402C7.55001 75.2802 7.585 75.3003 7.62851 75.3003C7.69536 75.3003 7.74265 75.2405 7.7704 75.121L7.80728 74.9542C7.83251 74.8458 7.8653 74.7694 7.90566 74.7252C7.94538 74.6803 8.0015 74.6579 8.07402 74.6579C8.15978 74.6579 8.23009 74.6979 8.28495 74.7781C8.33918 74.8582 8.3663 74.9611 8.3663 75.0868C8.3663 75.2043 8.33981 75.3013 8.28684 75.378C8.23324 75.454 8.16262 75.4968 8.07497 75.5065L8.07497 75.3262C8.17964 75.3061 8.23198 75.2226 8.23198 75.0754C8.23198 75.0029 8.21906 74.9456 8.1932 74.9034C8.16672 74.8606 8.13109 74.8392 8.08632 74.8392C8.05101 74.8392 8.02294 74.852 8.00213 74.8775C7.98133 74.9024 7.96367 74.9449 7.94917 75.005L7.90471 75.1946C7.86057 75.3832 7.77134 75.4774 7.63703 75.4774Z" fill="black"/>
<path d="M8.3663 74.0621C8.3663 74.2003 8.31995 74.3118 8.22725 74.3968C8.13456 74.4811 8.01128 74.5232 7.85742 74.5232C7.70418 74.5232 7.58122 74.4811 7.48853 74.3968C7.3952 74.3125 7.34854 74.2023 7.34854 74.0663C7.34854 73.9903 7.3643 73.9222 7.39583 73.8621C7.42736 73.8021 7.47055 73.7558 7.52541 73.7233L7.52541 73.7192L6.98437 73.7192L6.98437 73.5389L8.34927 73.5389L8.34927 73.7109L8.1828 73.7109L8.1828 73.714C8.24018 73.7492 8.28527 73.7969 8.31806 73.857C8.35022 73.9171 8.3663 73.9854 8.3663 74.0621ZM7.49325 74.0279C7.49325 74.1232 7.52636 74.1989 7.59257 74.2548C7.65815 74.3108 7.74643 74.3388 7.85742 74.3388C7.96903 74.3388 8.05763 74.3108 8.12321 74.2548C8.18879 74.1989 8.22158 74.1232 8.22158 74.0279C8.22158 73.9347 8.18847 73.8597 8.12226 73.8031C8.05542 73.7464 7.96714 73.7181 7.85742 73.7181C7.74769 73.7181 7.65973 73.7468 7.59352 73.8041C7.52668 73.8608 7.49325 73.9354 7.49325 74.0279Z" fill="black"/>
<path d="M8.3663 72.8872C8.3663 73.0253 8.31995 73.1369 8.22725 73.2218C8.13456 73.3061 8.01128 73.3482 7.85742 73.3482C7.70418 73.3482 7.58122 73.3061 7.48853 73.2218C7.3952 73.1376 7.34854 73.0274 7.34854 72.8913C7.34854 72.8153 7.3643 72.7473 7.39583 72.6872C7.42736 72.6271 7.47055 72.5808 7.52541 72.5484L7.52541 72.5442L6.98437 72.5442L6.98437 72.3639L8.34927 72.3639L8.34927 72.5359L8.1828 72.5359L8.1828 72.539C8.24018 72.5743 8.28527 72.6219 8.31806 72.682C8.35022 72.7421 8.3663 72.8105 8.3663 72.8872ZM7.49325 72.853C7.49325 72.9483 7.52636 73.0239 7.59257 73.0799C7.65815 73.1358 7.74643 73.1638 7.85742 73.1638C7.96903 73.1638 8.05763 73.1358 8.12321 73.0799C8.18879 73.0239 8.22158 72.9483 8.22158 72.853C8.22158 72.7597 8.18847 72.6848 8.12226 72.6281C8.05542 72.5715 7.96714 72.5432 7.85742 72.5432C7.74769 72.5432 7.65973 72.5718 7.59352 72.6292C7.52668 72.6858 7.49325 72.7604 7.49325 72.853Z" fill="black"/>
<path d="M7.63703 72.1391C7.55253 72.1391 7.48348 72.1018 7.42988 72.0272C7.37565 71.9519 7.34854 71.8552 7.34854 71.7371C7.34854 71.6259 7.37565 71.5333 7.42988 71.4594C7.48411 71.3855 7.55284 71.3465 7.63608 71.3423L7.63608 71.5143C7.58816 71.5205 7.55064 71.544 7.52352 71.5848C7.49641 71.6248 7.48285 71.6777 7.48285 71.7433C7.48285 71.8089 7.49641 71.8618 7.52352 71.9018C7.55001 71.9419 7.585 71.9619 7.62851 71.9619C7.69536 71.9619 7.74265 71.9022 7.7704 71.7827L7.80728 71.6159C7.83251 71.5074 7.8653 71.4311 7.90566 71.3869C7.94538 71.342 8.0015 71.3195 8.07402 71.3195C8.15978 71.3195 8.23009 71.3596 8.28495 71.4397C8.33918 71.5198 8.3663 71.6228 8.3663 71.7485C8.3663 71.8659 8.33981 71.963 8.28684 72.0396C8.23324 72.1156 8.16262 72.1584 8.07497 72.1681L8.07497 71.9878C8.17964 71.9678 8.23198 71.8842 8.23198 71.7371C8.23198 71.6646 8.21906 71.6072 8.1932 71.5651C8.16672 71.5223 8.13109 71.5009 8.08632 71.5009C8.051 71.5009 8.02294 71.5136 8.00213 71.5392C7.98133 71.5641 7.96367 71.6065 7.94917 71.6666L7.90471 71.8562C7.86057 72.0448 7.77134 72.1391 7.63703 72.1391Z" fill="black"/>
<path d="M8.3663 70.7238C8.3663 70.8619 8.31995 70.9735 8.22725 71.0584C8.13456 71.1427 8.01128 71.1848 7.85742 71.1848C7.70418 71.1848 7.58122 71.1427 7.48853 71.0584C7.3952 70.9742 7.34854 70.864 7.34854 70.7279C7.34854 70.6519 7.3643 70.5839 7.39583 70.5238C7.42736 70.4637 7.47055 70.4174 7.52541 70.385L7.52541 70.3808L6.98437 70.3808L6.98437 70.2005L8.34927 70.2005L8.34927 70.3725L8.1828 70.3725L8.1828 70.3756C8.24018 70.4109 8.28527 70.4585 8.31806 70.5186C8.35022 70.5787 8.3663 70.6471 8.3663 70.7238ZM7.49325 70.6896C7.49325 70.7849 7.52636 70.8605 7.59257 70.9165C7.65815 70.9724 7.74643 71.0004 7.85742 71.0004C7.96903 71.0004 8.05763 70.9724 8.12321 70.9165C8.18879 70.8605 8.22158 70.7849 8.22158 70.6896C8.22158 70.5963 8.18847 70.5214 8.12226 70.4647C8.05542 70.4081 7.96714 70.3798 7.85742 70.3798C7.74769 70.3798 7.65973 70.4084 7.59352 70.4658C7.52668 70.5224 7.49325 70.597 7.49325 70.6896Z" fill="black"/>
<path d="M8.34927 69.5126L7.36556 69.5126L7.36556 69.3323L8.34927 69.3323L8.34927 69.5126ZM7.20003 69.4224C7.20003 69.4528 7.18994 69.4791 7.16977 69.5012C7.14959 69.5233 7.12562 69.5343 7.09788 69.5343C7.0695 69.5343 7.04554 69.5233 7.02599 69.5012C7.00581 69.4791 6.99572 69.4528 6.99572 69.4224C6.99572 69.3913 7.00581 69.3647 7.02599 69.3426C7.04554 69.3205 7.0695 69.3095 7.09788 69.3095C7.12562 69.3095 7.14959 69.3205 7.16977 69.3426C7.18994 69.3647 7.20003 69.3913 7.20003 69.4224Z" fill="black"/>
<path d="M7.36556 68.464L8.39751 68.464C8.49714 68.464 8.57029 68.4909 8.61695 68.5448C8.66425 68.5987 8.68789 68.683 8.68789 68.7976C8.68789 68.8191 8.68758 68.8304 8.68695 68.8318L8.5498 68.8318L8.5498 68.8039C8.5498 68.7451 8.53844 68.704 8.51574 68.6806C8.49304 68.6564 8.45426 68.6443 8.3994 68.6443L7.36556 68.6443L7.36556 68.464ZM7.20003 68.5542C7.20003 68.5845 7.18994 68.6108 7.16977 68.6329C7.14959 68.655 7.12562 68.6661 7.09788 68.6661C7.0695 68.6661 7.04554 68.655 7.02599 68.6329C7.00581 68.6108 6.99572 68.5845 6.99572 68.5542C6.99572 68.5231 7.00581 68.4965 7.02599 68.4744C7.04554 68.4523 7.0695 68.4412 7.09788 68.4412C7.12562 68.4412 7.14959 68.4523 7.16977 68.4744C7.18994 68.4965 7.20003 68.5231 7.20003 68.5542Z" fill="black"/>
<path d="M8.3663 67.774C8.3663 67.9245 8.32058 68.0454 8.22914 68.1366C8.13708 68.2278 8.01317 68.2734 7.85742 68.2734C7.70166 68.2734 7.57807 68.2278 7.48663 68.1366C7.39457 68.0454 7.34854 67.9245 7.34854 67.774C7.34854 67.6241 7.39457 67.5035 7.48663 67.4124C7.57807 67.3212 7.70166 67.2756 7.85742 67.2756C8.01254 67.2756 8.13613 67.3212 8.2282 67.4124C8.32026 67.5035 8.3663 67.6241 8.3663 67.774ZM8.1251 68.005C8.18942 67.9477 8.22158 67.8707 8.22158 67.774C8.22158 67.6773 8.18973 67.6006 8.12604 67.5439C8.06172 67.4873 7.97218 67.459 7.85742 67.459C7.74265 67.459 7.65342 67.4873 7.58973 67.5439C7.52541 67.6006 7.49325 67.6773 7.49325 67.774C7.49325 67.8707 7.52541 67.9477 7.58973 68.005C7.65405 68.0617 7.74328 68.09 7.85742 68.09C7.97155 68.09 8.06078 68.0617 8.1251 68.005Z" fill="black"/>
<path d="M8.3663 66.685C8.3663 66.8232 8.31995 66.9347 8.22725 67.0197C8.13456 67.1039 8.01128 67.1461 7.85742 67.1461C7.70418 67.1461 7.58122 67.1039 7.48852 67.0197C7.3952 66.9354 7.34854 66.8252 7.34854 66.6892C7.34854 66.6132 7.3643 66.5451 7.39583 66.485C7.42736 66.4249 7.47055 66.3787 7.52541 66.3462L7.52541 66.3421L6.98437 66.3421L6.98437 66.1618L8.34927 66.1618L8.34927 66.3338L8.1828 66.3338L8.1828 66.3369C8.24018 66.3721 8.28527 66.4198 8.31806 66.4799C8.35022 66.54 8.3663 66.6083 8.3663 66.685ZM7.49325 66.6508C7.49325 66.7461 7.52636 66.8218 7.59257 66.8777C7.65815 66.9337 7.74643 66.9617 7.85742 66.9617C7.96903 66.9617 8.05763 66.9337 8.12321 66.8777C8.18879 66.8218 8.22158 66.7461 8.22158 66.6508C8.22158 66.5576 8.18847 66.4826 8.12226 66.426C8.05542 66.3693 7.96714 66.341 7.85742 66.341C7.74769 66.341 7.65973 66.3697 7.59352 66.427C7.52668 66.4837 7.49325 66.5583 7.49325 66.6508Z" fill="black"/>
<path d="M8.3663 64.6397C8.3663 64.7779 8.31995 64.8894 8.22725 64.9744C8.13456 65.0587 8.01128 65.1008 7.85742 65.1008C7.70418 65.1008 7.58122 65.0587 7.48852 64.9744C7.3952 64.8901 7.34854 64.7799 7.34854 64.6439C7.34854 64.5679 7.3643 64.4999 7.39583 64.4398C7.42736 64.3797 7.47055 64.3334 7.52541 64.3009L7.52541 64.2968L6.98437 64.2968L6.98437 64.1165L8.34927 64.1165L8.34927 64.2885L8.1828 64.2885L8.1828 64.2916C8.24018 64.3268 8.28527 64.3745 8.31806 64.4346C8.35022 64.4947 8.3663 64.5631 8.3663 64.6397ZM7.49325 64.6055C7.49325 64.7009 7.52636 64.7765 7.59257 64.8324C7.65815 64.8884 7.74643 64.9164 7.85742 64.9164C7.96903 64.9164 8.05763 64.8884 8.12321 64.8324C8.18879 64.7765 8.22158 64.7009 8.22158 64.6055C8.22158 64.5123 8.18847 64.4373 8.12226 64.3807C8.05542 64.3241 7.96714 64.2957 7.85742 64.2957C7.74769 64.2957 7.65973 64.3244 7.59352 64.3817C7.52668 64.4384 7.49325 64.513 7.49325 64.6055Z" fill="black"/>
<path d="M7.63703 63.8917C7.55253 63.8917 7.48348 63.8544 7.42988 63.7798C7.37565 63.7045 7.34854 63.6078 7.34854 63.4896C7.34854 63.3784 7.37565 63.2859 7.42988 63.212C7.48411 63.1381 7.55284 63.099 7.63608 63.0949L7.63608 63.2669C7.58816 63.2731 7.55064 63.2966 7.52352 63.3373C7.49641 63.3774 7.48285 63.4302 7.48285 63.4959C7.48285 63.5615 7.49641 63.6143 7.52352 63.6544C7.55001 63.6944 7.585 63.7145 7.62851 63.7145C7.69536 63.7145 7.74265 63.6547 7.7704 63.5352L7.80728 63.3684C7.83251 63.26 7.8653 63.1836 7.90566 63.1394C7.94538 63.0945 8.0015 63.0721 8.07402 63.0721C8.15978 63.0721 8.23009 63.1122 8.28495 63.1923C8.33918 63.2724 8.3663 63.3753 8.3663 63.501C8.3663 63.6185 8.33981 63.7155 8.28684 63.7922C8.23324 63.8682 8.16262 63.911 8.07497 63.9207L8.07497 63.7404C8.17964 63.7204 8.23198 63.6368 8.23198 63.4896C8.23198 63.4171 8.21905 63.3598 8.1932 63.3176C8.16672 63.2748 8.13109 63.2534 8.08632 63.2534C8.051 63.2534 8.02294 63.2662 8.00213 63.2917C7.98133 63.3166 7.96367 63.3591 7.94917 63.4192L7.90471 63.6088C7.86057 63.7974 7.77134 63.8917 7.63703 63.8917Z" fill="black"/>
<path d="M7.63703 62.9032C7.55253 62.9032 7.48348 62.8659 7.42988 62.7913C7.37565 62.716 7.34854 62.6193 7.34854 62.5012C7.34854 62.39 7.37565 62.2974 7.42988 62.2235C7.48411 62.1496 7.55284 62.1106 7.63608 62.1064L7.63608 62.2784C7.58816 62.2846 7.55064 62.3081 7.52352 62.3489C7.49641 62.3889 7.48285 62.4418 7.48285 62.5074C7.48285 62.573 7.49641 62.6259 7.52352 62.6659C7.55001 62.706 7.585 62.726 7.62851 62.726C7.69536 62.726 7.74265 62.6663 7.7704 62.5468L7.80728 62.38C7.83251 62.2715 7.8653 62.1952 7.90566 62.151C7.94538 62.1061 8.0015 62.0836 8.07402 62.0836C8.15978 62.0836 8.23009 62.1237 8.28495 62.2038C8.33918 62.284 8.3663 62.3869 8.3663 62.5126C8.3663 62.63 8.33981 62.7271 8.28684 62.8037C8.23324 62.8797 8.16262 62.9225 8.07497 62.9322L8.07497 62.7519C8.17964 62.7319 8.23198 62.6483 8.23198 62.5012C8.23198 62.4287 8.21905 62.3713 8.1932 62.3292C8.16672 62.2864 8.13109 62.265 8.08632 62.265C8.051 62.265 8.02294 62.2777 8.00213 62.3033C7.98133 62.3282 7.96367 62.3706 7.94917 62.4307L7.90471 62.6203C7.86057 62.8089 7.77134 62.9032 7.63703 62.9032Z" fill="black"/>
<path d="M8.3663 61.4495C8.3663 61.6001 8.32058 61.721 8.22914 61.8122C8.13708 61.9034 8.01317 61.9489 7.85742 61.9489C7.70166 61.9489 7.57807 61.9034 7.48663 61.8122C7.39457 61.721 7.34854 61.6001 7.34854 61.4495C7.34854 61.2997 7.39457 61.1791 7.48663 61.0879C7.57807 60.9968 7.70166 60.9512 7.85742 60.9512C8.01254 60.9512 8.13613 60.9968 8.2282 61.0879C8.32026 61.1791 8.3663 61.2997 8.3663 61.4495ZM8.1251 61.6806C8.18942 61.6233 8.22158 61.5462 8.22158 61.4495C8.22158 61.3528 8.18973 61.2762 8.12604 61.2195C8.06172 61.1629 7.97218 61.1346 7.85742 61.1346C7.74265 61.1346 7.65342 61.1629 7.58973 61.2195C7.52541 61.2762 7.49325 61.3528 7.49325 61.4495C7.49325 61.5462 7.52541 61.6233 7.58973 61.6806C7.65405 61.7372 7.74328 61.7656 7.85742 61.7656C7.97155 61.7656 8.06078 61.7372 8.1251 61.6806Z" fill="black"/>
<path d="M7.80255 60.5792L7.36556 60.1026L7.36556 59.884L7.79026 60.3513L8.34927 59.8695L8.34927 60.0788L7.89147 60.4787L7.97849 60.5792L8.34927 60.5792L8.34927 60.7595L6.98437 60.7595L6.98437 60.5792L7.80255 60.5792Z" fill="black"/>
</g>
<g filter="url(#filter3_f_235_5738)">
<rect x="15.4336" y="9.26392" width="14.8995" height="33.0704" stroke="#364E9F"/>
</g>
<g filter="url(#filter4_f_235_5738)">
<circle cx="33.1526" cy="16.1937" r="4.90846" stroke="#2B3FF4" stroke-width="0.5"/>
</g>
<g filter="url(#filter5_f_235_5738)">
<circle cx="33.1038" cy="16.1458" r="3.72487" stroke="#2B3FF4" stroke-width="0.5"/>
</g>
<g opacity="0.2" filter="url(#filter6_f_235_5738)">
<path d="M68.9532 91.2633C68.9532 91.8178 68.7494 92.2656 68.3419 92.6066C67.9343 92.9449 67.3922 93.114 66.7157 93.114C66.0419 93.114 65.5013 92.9449 65.0937 92.6066C64.6833 92.2684 64.4782 91.8261 64.4782 91.2799C64.4782 90.9749 64.5475 90.7018 64.6861 90.4606C64.8247 90.2194 65.0147 90.0336 65.2559 89.9033L65.2559 89.8866L62.877 89.8866L62.877 89.163L68.8784 89.163L68.8784 89.8534L68.1464 89.8534L68.1464 89.8659C68.3987 90.0073 68.5969 90.1986 68.7411 90.4398C68.8825 90.681 68.9532 90.9555 68.9532 91.2633ZM65.1145 91.126C65.1145 91.5086 65.26 91.8123 65.5512 92.0368C65.8395 92.2614 66.2277 92.3737 66.7157 92.3737C67.2064 92.3737 67.596 92.2614 67.8844 92.0368C68.1727 91.8123 68.3169 91.5086 68.3169 91.126C68.3169 90.7517 68.1713 90.4509 67.8802 90.2235C67.5863 89.9962 67.1981 89.8825 66.7157 89.8825C66.2332 89.8825 65.8465 89.9976 65.5553 90.2277C65.2614 90.455 65.1145 90.7545 65.1145 91.126Z" fill="black"/>
<path d="M65.7466 88.2605C65.3751 88.2605 65.0715 88.1108 64.8358 87.8113C64.5974 87.5091 64.4782 87.1209 64.4782 86.6468C64.4782 86.2004 64.5974 85.8289 64.8358 85.5322C65.0743 85.2355 65.3765 85.0789 65.7425 85.0622L65.7425 85.7526C65.5318 85.7776 65.3668 85.8718 65.2476 86.0354C65.1283 86.1962 65.0687 86.4084 65.0687 86.6718C65.0687 86.9352 65.1283 87.1473 65.2476 87.3081C65.364 87.4689 65.5179 87.5493 65.7092 87.5493C66.0031 87.5493 66.2111 87.3095 66.3331 86.8298L66.4953 86.1602C66.6062 85.7249 66.7503 85.4185 66.9278 85.2411C67.1025 85.0608 67.3492 84.9707 67.6681 84.9707C68.0452 84.9707 68.3543 85.1315 68.5955 85.4532C68.834 85.7748 68.9532 86.1879 68.9532 86.6926C68.9532 87.1639 68.8368 87.5535 68.6039 87.8612C68.3682 88.1662 68.0577 88.3381 67.6723 88.3769L67.6723 87.6533C68.1325 87.5729 68.3626 87.2374 68.3626 86.6468C68.3626 86.3557 68.3058 86.1255 68.1921 85.9564C68.0757 85.7845 67.919 85.6986 67.7222 85.6986C67.5669 85.6986 67.4435 85.7498 67.352 85.8524C67.2605 85.9523 67.1829 86.1228 67.1191 86.364L66.9236 87.1251C66.7296 87.882 66.3372 88.2605 65.7466 88.2605Z" fill="black"/>
<path d="M68.9532 82.5793C68.9532 83.1339 68.7494 83.5816 68.3419 83.9227C67.9343 84.2609 67.3922 84.4301 66.7157 84.4301C66.0419 84.4301 65.5013 84.2609 65.0937 83.9227C64.6833 83.5844 64.4782 83.1422 64.4782 82.596C64.4782 82.291 64.5475 82.0179 64.6861 81.7766C64.8247 81.5354 65.0147 81.3496 65.2559 81.2193L65.2559 81.2027L62.877 81.2027L62.877 80.479L68.8784 80.479L68.8784 81.1694L68.1464 81.1694L68.1464 81.1819C68.3987 81.3233 68.5969 81.5146 68.7411 81.7558C68.8825 81.9971 68.9532 82.2716 68.9532 82.5793ZM65.1145 82.4421C65.1145 82.8247 65.26 83.1283 65.5512 83.3529C65.8395 83.5775 66.2277 83.6898 66.7157 83.6898C67.2064 83.6898 67.596 83.5775 67.8844 83.3529C68.1727 83.1283 68.3169 82.8247 68.3169 82.4421C68.3169 82.0678 68.1713 81.7669 67.8802 81.5396C67.5863 81.3122 67.1981 81.1985 66.7157 81.1985C66.2332 81.1985 65.8465 81.3136 65.5553 81.5437C65.2614 81.7711 65.1145 82.0705 65.1145 82.4421Z" fill="black"/>
<path d="M68.3377 78.0751C68.3377 77.7341 68.2323 77.4485 68.0216 77.2184C67.8081 76.9855 67.5461 76.869 67.2356 76.869L66.882 76.869L66.9528 78.0252C66.9722 78.3164 67.0429 78.5423 67.1649 78.7032C67.2869 78.8612 67.4504 78.9402 67.6556 78.9402C67.8608 78.9402 68.0258 78.8612 68.1505 78.7032C68.2753 78.5451 68.3377 78.3358 68.3377 78.0751ZM68.9532 78.2373C68.9532 78.6671 68.834 79.0151 68.5955 79.2813C68.3571 79.5447 68.0438 79.6764 67.6556 79.6764C67.2841 79.6764 66.9874 79.5405 66.7656 79.2688C66.5438 78.9943 66.419 78.6075 66.3913 78.1084L66.3206 76.869L65.9588 76.869C65.6954 76.869 65.4888 76.9522 65.3391 77.1186C65.1893 77.2849 65.1145 77.5178 65.1145 77.8173C65.1145 78.0918 65.1755 78.315 65.2975 78.4869C65.4167 78.6588 65.5844 78.7683 65.8007 78.8154L65.8007 79.5142C65.4153 79.4892 65.0992 79.3228 64.8525 79.0151C64.6029 78.7045 64.4782 78.2997 64.4782 77.8007C64.4782 77.2933 64.6057 76.8912 64.8608 76.5946C65.1159 76.2951 65.4583 76.1454 65.8881 76.1454L68.8784 76.1454L68.8784 76.8316L68.1339 76.8316L68.1339 76.8482C68.3807 76.9786 68.5789 77.1699 68.7286 77.4222C68.8784 77.6745 68.9532 77.9462 68.9532 78.2373Z" fill="black"/>
<path d="M65.7466 75.3011C65.3751 75.3011 65.0715 75.1514 64.8358 74.8519C64.5974 74.5497 64.4782 74.1615 64.4782 73.6874C64.4782 73.241 64.5974 72.8695 64.8358 72.5728C65.0743 72.2761 65.3765 72.1195 65.7425 72.1029L65.7425 72.7932C65.5318 72.8182 65.3668 72.9125 65.2476 73.0761C65.1283 73.2369 65.0687 73.449 65.0687 73.7124C65.0687 73.9758 65.1283 74.1879 65.2476 74.3487C65.364 74.5095 65.5179 74.5899 65.7092 74.5899C66.0031 74.5899 66.2111 74.3501 66.3331 73.8704L66.4953 73.2008C66.6062 72.7655 66.7503 72.4591 66.9278 72.2817C67.1025 72.1015 67.3492 72.0114 67.6681 72.0114C68.0452 72.0114 68.3543 72.1722 68.5955 72.4938C68.834 72.8154 68.9532 73.2285 68.9532 73.7332C68.9532 74.2045 68.8368 74.5941 68.6039 74.9018C68.3682 75.2068 68.0577 75.3787 67.6723 75.4176L67.6723 74.6939C68.1325 74.6135 68.3626 74.278 68.3626 73.6874C68.3626 73.3963 68.3058 73.1662 68.1921 72.997C68.0757 72.8251 67.919 72.7392 67.7222 72.7392C67.5669 72.7392 67.4435 72.7905 67.352 72.8931C67.2605 72.9929 67.1829 73.1634 67.1191 73.4046L66.9236 74.1657C66.7296 74.9226 66.3372 75.3011 65.7466 75.3011Z" fill="black"/>
<path d="M68.3377 69.8321C68.3377 69.491 68.2323 69.2054 68.0216 68.9753C67.8081 68.7424 67.5461 68.6259 67.2356 68.6259L66.882 68.6259L66.9528 69.7821C66.9722 70.0733 67.0429 70.2992 67.1649 70.4601C67.2869 70.6181 67.4504 70.6971 67.6556 70.6971C67.8608 70.6971 68.0258 70.6181 68.1505 70.4601C68.2753 70.302 68.3377 70.0927 68.3377 69.8321ZM68.9532 69.9943C68.9532 70.424 68.834 70.772 68.5955 71.0382C68.3571 71.3016 68.0438 71.4333 67.6556 71.4333C67.2841 71.4333 66.9874 71.2974 66.7656 71.0257C66.5438 70.7512 66.419 70.3644 66.3913 69.8653L66.3206 68.6259L65.9588 68.6259C65.6954 68.6259 65.4888 68.7091 65.3391 68.8755C65.1893 69.0418 65.1145 69.2747 65.1145 69.5742C65.1145 69.8487 65.1755 70.0719 65.2975 70.2438C65.4167 70.4157 65.5844 70.5252 65.8007 70.5723L65.8007 71.2711C65.4153 71.2461 65.0992 71.0797 64.8525 70.772C64.6029 70.4614 64.4782 70.0566 64.4782 69.5576C64.4782 69.0502 64.6057 68.6481 64.8608 68.3515C65.1159 68.052 65.4583 67.9023 65.8881 67.9023L68.8784 67.9023L68.8784 68.5885L68.1339 68.5885L68.1339 68.6052C68.3807 68.7355 68.5789 68.9268 68.7286 69.1791C68.8784 69.4314 68.9532 69.7031 68.9532 69.9943Z" fill="black"/>
<path d="M68.3377 65.5566C68.3377 65.2156 68.2323 64.93 68.0216 64.6999C67.8081 64.467 67.5461 64.3505 67.2356 64.3505L66.882 64.3505L66.9528 65.5067C66.9722 65.7978 67.0429 66.0238 67.1649 66.1846C67.2869 66.3427 67.4504 66.4217 67.6556 66.4217C67.8608 66.4217 68.0258 66.3427 68.1505 66.1846C68.2753 66.0266 68.3377 65.8173 68.3377 65.5566ZM68.9532 65.7188C68.9532 66.1486 68.834 66.4966 68.5955 66.7627C68.3571 67.0261 68.0438 67.1578 67.6556 67.1578C67.2841 67.1578 66.9874 67.022 66.7656 66.7502C66.5438 66.4758 66.419 66.089 66.3913 65.5899L66.3206 64.3505L65.9588 64.3505C65.6954 64.3505 65.4888 64.4337 65.3391 64.6001C65.1893 64.7664 65.1145 64.9993 65.1145 65.2988C65.1145 65.5733 65.1755 65.7965 65.2975 65.9684C65.4167 66.1403 65.5844 66.2498 65.8007 66.2969L65.8007 66.9956C65.4153 66.9707 65.0992 66.8043 64.8525 66.4966C64.6029 66.186 64.4782 65.7812 64.4782 65.2821C64.4782 64.7747 64.6057 64.3727 64.8608 64.076C65.1159 63.7766 65.4583 63.6269 65.8881 63.6269L68.8784 63.6269L68.8784 64.3131L68.1339 64.3131L68.1339 64.3297C68.3807 64.46 68.5789 64.6513 68.7286 64.9037C68.8784 65.156 68.9532 65.4277 68.9532 65.7188Z" fill="black"/>
<path d="M68.9532 61.0691C68.9532 61.6236 68.7494 62.0714 68.3418 62.4124C67.9343 62.7507 67.3922 62.9198 66.7157 62.9198C66.0419 62.9198 65.5013 62.7507 65.0937 62.4124C64.6833 62.0742 64.4782 61.6319 64.4782 61.0857C64.4782 60.7807 64.5475 60.5076 64.6861 60.2664C64.8247 60.0252 65.0147 59.8394 65.2559 59.7091L65.2559 59.6925L62.877 59.6925L62.877 58.9688L68.8784 58.9688L68.8784 59.6592L68.1464 59.6592L68.1464 59.6717C68.3987 59.8131 68.5969 60.0044 68.7411 60.2456C68.8825 60.4868 68.9532 60.7613 68.9532 61.0691ZM65.1145 60.9318C65.1145 61.3145 65.26 61.6181 65.5512 61.8427C65.8395 62.0672 66.2277 62.1795 66.7157 62.1795C67.2064 62.1795 67.596 62.0672 67.8844 61.8427C68.1727 61.6181 68.3169 61.3145 68.3169 60.9318C68.3169 60.5575 68.1713 60.2567 67.8802 60.0293C67.5863 59.802 67.1981 59.6883 66.7157 59.6883C66.2332 59.6883 65.8465 59.8034 65.5553 60.0335C65.2614 60.2609 65.1145 60.5603 65.1145 60.9318Z" fill="black"/>
<path d="M68.3377 56.5649C68.3377 56.2239 68.2323 55.9383 68.0216 55.7082C67.8081 55.4753 67.5461 55.3588 67.2356 55.3588L66.882 55.3588L66.9528 56.515C66.9722 56.8061 67.0429 57.0321 67.1649 57.1929C67.2869 57.351 67.4504 57.43 67.6556 57.43C67.8608 57.43 68.0258 57.351 68.1505 57.1929C68.2753 57.0349 68.3377 56.8255 68.3377 56.5649ZM68.9532 56.7271C68.9532 57.1569 68.834 57.5048 68.5955 57.771C68.3571 58.0344 68.0438 58.1661 67.6556 58.1661C67.2841 58.1661 66.9874 58.0303 66.7656 57.7585C66.5438 57.484 66.419 57.0973 66.3913 56.5982L66.3206 55.3588L65.9588 55.3588C65.6954 55.3588 65.4888 55.442 65.3391 55.6083C65.1893 55.7747 65.1145 56.0076 65.1145 56.3071C65.1145 56.5815 65.1755 56.8047 65.2975 56.9767C65.4167 57.1486 65.5844 57.2581 65.8007 57.3052L65.8007 58.0039C65.4153 57.979 65.0992 57.8126 64.8525 57.5048C64.6029 57.1943 64.4782 56.7895 64.4782 56.2904C64.4782 55.783 64.6057 55.381 64.8608 55.0843C65.1159 54.7849 65.4583 54.6351 65.8881 54.6351L68.8784 54.6351L68.8784 55.3214L68.1339 55.3214L68.1339 55.338C68.3807 55.4683 68.5789 55.6596 68.7286 55.9119C68.8784 56.1643 68.9532 56.436 68.9532 56.7271Z" fill="black"/>
</g>
<g opacity="0.2" filter="url(#filter7_f_235_5738)">
<path d="M68.9532 43.5648C68.9532 44.1193 68.7494 44.5671 68.3419 44.9081C67.9343 45.2464 67.3922 45.4155 66.7157 45.4155C66.0419 45.4155 65.5013 45.2464 65.0937 44.9081C64.6833 44.5699 64.4782 44.1276 64.4782 43.5814C64.4782 43.2764 64.5475 43.0033 64.6861 42.7621C64.8247 42.5209 65.0147 42.3351 65.2559 42.2048L65.2559 42.1882L62.877 42.1882L62.877 41.4645L68.8784 41.4645L68.8784 42.1549L68.1464 42.1549L68.1464 42.1674C68.3987 42.3088 68.5969 42.5001 68.7411 42.7413C68.8825 42.9825 68.9532 43.257 68.9532 43.5648ZM65.1145 43.4275C65.1145 43.8102 65.26 44.1138 65.5512 44.3384C65.8395 44.5629 66.2277 44.6752 66.7157 44.6752C67.2064 44.6752 67.596 44.5629 67.8844 44.3384C68.1727 44.1138 68.3169 43.8102 68.3169 43.4275C68.3169 43.0532 68.1713 42.7524 67.8802 42.525C67.5863 42.2977 67.1981 42.184 66.7157 42.184C66.2332 42.184 65.8465 42.2991 65.5553 42.5292C65.2614 42.7566 65.1145 43.056 65.1145 43.4275Z" fill="black"/>
<path d="M65.7466 40.562C65.3751 40.562 65.0715 40.4123 64.8358 40.1128C64.5974 39.8106 64.4782 39.4224 64.4782 38.9483C64.4782 38.5019 64.5974 38.1304 64.8358 37.8337C65.0743 37.537 65.3765 37.3804 65.7425 37.3637L65.7425 38.0541C65.5318 38.0791 65.3668 38.1734 65.2476 38.3369C65.1283 38.4978 65.0687 38.7099 65.0687 38.9733C65.0687 39.2367 65.1283 39.4488 65.2476 39.6096C65.364 39.7704 65.5179 39.8508 65.7092 39.8508C66.0031 39.8508 66.2111 39.611 66.3331 39.1313L66.4953 38.4617C66.6062 38.0264 66.7503 37.72 66.9278 37.5426C67.1025 37.3624 67.3492 37.2722 67.6681 37.2722C68.0452 37.2722 68.3543 37.4331 68.5955 37.7547C68.834 38.0763 68.9532 38.4894 68.9532 38.9941C68.9532 39.4654 68.8368 39.855 68.6039 40.1627C68.3682 40.4677 68.0577 40.6396 67.6723 40.6785L67.6723 39.9548C68.1325 39.8744 68.3626 39.5389 68.3626 38.9483C68.3626 38.6572 68.3058 38.4271 68.1921 38.2579C68.0757 38.086 67.919 38.0001 67.7222 38.0001C67.5669 38.0001 67.4435 38.0514 67.352 38.154C67.2605 38.2538 67.1829 38.4243 67.1191 38.6655L66.9236 39.4266C66.7296 40.1835 66.3372 40.562 65.7466 40.562Z" fill="black"/>
<path d="M68.9532 34.8808C68.9532 35.4354 68.7494 35.8831 68.3419 36.2242C67.9343 36.5624 67.3922 36.7316 66.7157 36.7316C66.0419 36.7316 65.5013 36.5624 65.0937 36.2242C64.6833 35.8859 64.4782 35.4437 64.4782 34.8975C64.4782 34.5925 64.5475 34.3194 64.6861 34.0782C64.8247 33.8369 65.0147 33.6512 65.2559 33.5208L65.2559 33.5042L62.877 33.5042L62.877 32.7806L68.8784 32.7806L68.8784 33.4709L68.1464 33.4709L68.1464 33.4834C68.3987 33.6248 68.5969 33.8161 68.7411 34.0574C68.8825 34.2986 68.9532 34.5731 68.9532 34.8808ZM65.1145 34.7436C65.1145 35.1262 65.26 35.4298 65.5512 35.6544C65.8395 35.879 66.2277 35.9913 66.7157 35.9913C67.2064 35.9913 67.596 35.879 67.8844 35.6544C68.1727 35.4298 68.3169 35.1262 68.3169 34.7436C68.3169 34.3693 68.1713 34.0684 67.8802 33.8411C67.5863 33.6137 67.1981 33.5001 66.7157 33.5001C66.2332 33.5001 65.8465 33.6151 65.5553 33.8452C65.2614 34.0726 65.1145 34.3721 65.1145 34.7436Z" fill="black"/>
<path d="M68.3377 30.3767C68.3377 30.0356 68.2323 29.75 68.0216 29.5199C67.8081 29.287 67.5461 29.1706 67.2356 29.1706L66.882 29.1706L66.9528 30.3268C66.9722 30.6179 67.0429 30.8439 67.1649 31.0047C67.2869 31.1627 67.4504 31.2417 67.6556 31.2417C67.8608 31.2417 68.0258 31.1627 68.1505 31.0047C68.2753 30.8466 68.3377 30.6373 68.3377 30.3767ZM68.9532 30.5389C68.9532 30.9686 68.834 31.3166 68.5955 31.5828C68.3571 31.8462 68.0438 31.9779 67.6556 31.9779C67.2841 31.9779 66.9874 31.842 66.7656 31.5703C66.5438 31.2958 66.419 30.909 66.3913 30.4099L66.3206 29.1706L65.9588 29.1706C65.6954 29.1706 65.4888 29.2537 65.3391 29.4201C65.1893 29.5865 65.1145 29.8194 65.1145 30.1188C65.1145 30.3933 65.1755 30.6165 65.2975 30.7884C65.4167 30.9603 65.5844 31.0698 65.8007 31.117L65.8007 31.8157C65.4153 31.7907 65.0992 31.6244 64.8525 31.3166C64.6029 31.0061 64.4782 30.6012 64.4782 30.1022C64.4782 29.5948 64.6057 29.1927 64.8608 28.8961C65.1159 28.5966 65.4583 28.4469 65.8881 28.4469L68.8784 28.4469L68.8784 29.1331L68.1339 29.1331L68.1339 29.1498C68.3807 29.2801 68.5789 29.4714 68.7286 29.7237C68.8784 29.976 68.9532 30.2477 68.9532 30.5389Z" fill="black"/>
<path d="M65.7466 27.6026C65.3751 27.6026 65.0715 27.4529 64.8358 27.1535C64.5974 26.8512 64.4782 26.4631 64.4782 25.9889C64.4782 25.5425 64.5974 25.171 64.8358 24.8743C65.0743 24.5777 65.3765 24.421 65.7425 24.4044L65.7425 25.0948C65.5318 25.1197 65.3668 25.214 65.2476 25.3776C65.1283 25.5384 65.0687 25.7505 65.0687 26.0139C65.0687 26.2773 65.1283 26.4894 65.2476 26.6502C65.364 26.811 65.5179 26.8914 65.7092 26.8914C66.0031 26.8914 66.2111 26.6516 66.3331 26.1719L66.4953 25.5023C66.6062 25.067 66.7503 24.7607 66.9278 24.5832C67.1025 24.403 67.3492 24.3129 67.6681 24.3129C68.0452 24.3129 68.3543 24.4737 68.5955 24.7953C68.834 25.1169 68.9532 25.5301 68.9532 26.0347C68.9532 26.506 68.8368 26.8956 68.6039 27.2034C68.3682 27.5084 68.0577 27.6803 67.6723 27.7191L67.6723 26.9954C68.1325 26.915 68.3626 26.5795 68.3626 25.9889C68.3626 25.6978 68.3058 25.4677 68.1921 25.2985C68.0757 25.1266 67.919 25.0407 67.7222 25.0407C67.5669 25.0407 67.4435 25.092 67.352 25.1946C67.2605 25.2944 67.1829 25.4649 67.1191 25.7061L66.9236 26.4672C66.7296 27.2242 66.3372 27.6026 65.7466 27.6026Z" fill="black"/>
<path d="M68.3377 22.1336C68.3377 21.7925 68.2323 21.5069 68.0216 21.2768C67.8081 21.0439 67.5461 20.9275 67.2356 20.9275L66.882 20.9275L66.9528 22.0837C66.9722 22.3748 67.0429 22.6008 67.1649 22.7616C67.2869 22.9196 67.4504 22.9986 67.6556 22.9986C67.8608 22.9986 68.0258 22.9196 68.1505 22.7616C68.2753 22.6035 68.3377 22.3942 68.3377 22.1336ZM68.9532 22.2958C68.9532 22.7255 68.834 23.0735 68.5955 23.3397C68.3571 23.6031 68.0438 23.7348 67.6556 23.7348C67.2841 23.7348 66.9874 23.5989 66.7656 23.3272C66.5438 23.0527 66.419 22.6659 66.3913 22.1668L66.3206 20.9275L65.9588 20.9275C65.6954 20.9275 65.4888 21.0106 65.3391 21.177C65.1893 21.3434 65.1145 21.5763 65.1145 21.8757C65.1145 22.1502 65.1755 22.3734 65.2975 22.5453C65.4167 22.7172 65.5844 22.8267 65.8007 22.8739L65.8007 23.5726C65.4153 23.5476 65.0992 23.3813 64.8525 23.0735C64.6029 22.763 64.4782 22.3582 64.4782 21.8591C64.4782 21.3517 64.6057 20.9496 64.8608 20.653C65.1159 20.3535 65.4583 20.2038 65.8881 20.2038L68.8784 20.2038L68.8784 20.89L68.1339 20.89L68.1339 20.9067C68.3807 21.037 68.5789 21.2283 68.7286 21.4806C68.8784 21.7329 68.9532 22.0046 68.9532 22.2958Z" fill="black"/>
<path d="M68.3377 17.8581C68.3377 17.5171 68.2323 17.2315 68.0216 17.0014C67.8081 16.7685 67.5461 16.652 67.2356 16.652L66.882 16.652L66.9528 17.8082C66.9722 18.0994 67.0429 18.3253 67.1649 18.4861C67.2869 18.6442 67.4504 18.7232 67.6556 18.7232C67.8608 18.7232 68.0258 18.6442 68.1505 18.4861C68.2753 18.3281 68.3377 18.1188 68.3377 17.8581ZM68.9532 18.0203C68.9532 18.4501 68.834 18.7981 68.5955 19.0642C68.3571 19.3276 68.0438 19.4593 67.6556 19.4593C67.2841 19.4593 66.9874 19.3235 66.7656 19.0518C66.5438 18.7773 66.419 18.3905 66.3913 17.8914L66.3206 16.652L65.9588 16.652C65.6954 16.652 65.4888 16.7352 65.3391 16.9016C65.1893 17.0679 65.1145 17.3008 65.1145 17.6003C65.1145 17.8748 65.1755 18.098 65.2975 18.2699C65.4167 18.4418 65.5844 18.5513 65.8007 18.5984L65.8007 19.2971C65.4153 19.2722 65.0992 19.1058 64.8525 18.7981C64.6029 18.4875 64.4782 18.0827 64.4782 17.5836C64.4782 17.0762 64.6057 16.6742 64.8608 16.3775C65.1159 16.0781 65.4583 15.9284 65.8881 15.9284L68.8784 15.9284L68.8784 16.6146L68.1339 16.6146L68.1339 16.6312C68.3807 16.7616 68.5789 16.9529 68.7286 17.2052C68.8784 17.4575 68.9532 17.7292 68.9532 18.0203Z" fill="black"/>
<path d="M68.9532 13.3706C68.9532 13.9251 68.7494 14.3729 68.3418 14.7139C67.9343 15.0522 67.3922 15.2213 66.7157 15.2213C66.0419 15.2213 65.5013 15.0522 65.0937 14.7139C64.6833 14.3757 64.4782 13.9334 64.4782 13.3872C64.4782 13.0822 64.5475 12.8091 64.6861 12.5679C64.8247 12.3267 65.0147 12.1409 65.2559 12.0106L65.2559 11.994L62.877 11.994L62.877 11.2703L68.8784 11.2703L68.8784 11.9607L68.1464 11.9607L68.1464 11.9732C68.3987 12.1146 68.5969 12.3059 68.7411 12.5471C68.8825 12.7883 68.9532 13.0628 68.9532 13.3706ZM65.1145 13.2334C65.1145 13.616 65.26 13.9196 65.5512 14.1442C65.8395 14.3688 66.2277 14.481 66.7157 14.481C67.2064 14.481 67.596 14.3688 67.8844 14.1442C68.1727 13.9196 68.3169 13.616 68.3169 13.2334C68.3169 12.859 68.1713 12.5582 67.8802 12.3309C67.5863 12.1035 67.1981 11.9898 66.7157 11.9898C66.2332 11.9898 65.8465 12.1049 65.5553 12.335C65.2614 12.5624 65.1145 12.8618 65.1145 13.2334Z" fill="black"/>
<path d="M68.3377 8.86642C68.3377 8.52539 68.2323 8.2398 68.0216 8.00967C67.8081 7.77677 67.5461 7.66032 67.2356 7.66032L66.882 7.66032L66.9528 8.81652C66.9722 9.10764 67.0429 9.33361 67.1649 9.49443C67.2869 9.65247 67.4504 9.73149 67.6556 9.73149C67.8608 9.73149 68.0258 9.65247 68.1505 9.49443C68.2753 9.33639 68.3377 9.12705 68.3377 8.86642ZM68.9532 9.02863C68.9532 9.45839 68.834 9.80635 68.5955 10.0725C68.3571 10.3359 68.0438 10.4676 67.6556 10.4676C67.2841 10.4676 66.9874 10.3318 66.7656 10.0601C66.5438 9.78556 66.419 9.39877 66.3913 8.8997L66.3206 7.66032L65.9588 7.66032C65.6954 7.66032 65.4888 7.7435 65.3391 7.90986C65.1893 8.07622 65.1145 8.30912 65.1145 8.60857C65.1145 8.88306 65.1755 9.10626 65.2975 9.27816C65.4167 9.45007 65.5844 9.55959 65.8007 9.60672L65.8007 10.3054C65.4153 10.2805 65.0992 10.1141 64.8525 9.80635C64.6029 9.49582 64.4782 9.09101 64.4782 8.59193C64.4782 8.08454 64.6057 7.6825 64.8608 7.38583C65.1159 7.08638 65.4583 6.93666 65.8881 6.93666L68.8784 6.93666L68.8784 7.62289L68.1339 7.62289L68.1339 7.63953C68.3807 7.76984 68.5789 7.96115 68.7286 8.21346C68.8784 8.46577 68.9532 8.7375 68.9532 9.02863Z" fill="black"/>
</g>
<g filter="url(#filter8_f_235_5738)">
<line x1="21.6797" y1="13.8744" x2="21.6797" y2="37.1558" stroke="#343283"/>
</g>
<g filter="url(#filter9_f_235_5738)">
<line x1="25.6543" y1="13.8744" x2="25.6543" y2="37.1558" stroke="#343283"/>
</g>
<defs>
<filter id="filter0_f_235_5738" x="0.873047" y="0.949829" width="74.8262" height="99.1005" filterUnits="userSpaceOnUse" color-interpolation-filters="sRGB">
<feFlood flood-opacity="0" result="BackgroundImageFix"/>
<feBlend mode="normal" in="SourceGraphic" in2="BackgroundImageFix" result="shape"/>
<feGaussianBlur stdDeviation="0.5" result="effect1_foregroundBlur_235_5738"/>
</filter>
<filter id="filter1_f_235_5738" x="3.98438" y="12.0101" width="7.70312" height="29.2814" filterUnits="userSpaceOnUse" color-interpolation-filters="sRGB">
<feFlood flood-opacity="0" result="BackgroundImageFix"/>
<feBlend mode="normal" in="SourceGraphic" in2="BackgroundImageFix" result="shape"/>
<feGaussianBlur stdDeviation="1.5" result="effect1_foregroundBlur_235_5738"/>
</filter>
<filter id="filter2_f_235_5738" x="3.98438" y="56.8695" width="7.70312" height="29.2814" filterUnits="userSpaceOnUse" color-interpolation-filters="sRGB">
<feFlood flood-opacity="0" result="BackgroundImageFix"/>
<feBlend mode="normal" in="SourceGraphic" in2="BackgroundImageFix" result="shape"/>
<feGaussianBlur stdDeviation="1.5" result="effect1_foregroundBlur_235_5738"/>
</filter>
<filter id="filter3_f_235_5738" x="12.9336" y="6.76392" width="19.9004" height="38.0703" filterUnits="userSpaceOnUse" color-interpolation-filters="sRGB">
<feFlood flood-opacity="0" result="BackgroundImageFix"/>
<feBlend mode="normal" in="SourceGraphic" in2="BackgroundImageFix" result="shape"/>
<feGaussianBlur stdDeviation="1" result="effect1_foregroundBlur_235_5738"/>
</filter>
<filter id="filter4_f_235_5738" x="26.9941" y="10.0353" width="12.3164" height="12.3169" filterUnits="userSpaceOnUse" color-interpolation-filters="sRGB">
<feFlood flood-opacity="0" result="BackgroundImageFix"/>
<feBlend mode="normal" in="SourceGraphic" in2="BackgroundImageFix" result="shape"/>
<feGaussianBlur stdDeviation="0.5" result="effect1_foregroundBlur_235_5738"/>
</filter>
<filter id="filter5_f_235_5738" x="28.1289" y="11.1709" width="9.94922" height="9.94971" filterUnits="userSpaceOnUse" color-interpolation-filters="sRGB">
<feFlood flood-opacity="0" result="BackgroundImageFix"/>
<feBlend mode="normal" in="SourceGraphic" in2="BackgroundImageFix" result="shape"/>
<feGaussianBlur stdDeviation="0.5" result="effect1_foregroundBlur_235_5738"/>
</filter>
<filter id="filter6_f_235_5738" x="58.877" y="50.6351" width="14.0762" height="46.4789" filterUnits="userSpaceOnUse" color-interpolation-filters="sRGB">
<feFlood flood-opacity="0" result="BackgroundImageFix"/>
<feBlend mode="normal" in="SourceGraphic" in2="BackgroundImageFix" result="shape"/>
<feGaussianBlur stdDeviation="2" result="effect1_foregroundBlur_235_5738"/>
</filter>
<filter id="filter7_f_235_5738" x="58.877" y="2.93665" width="14.0762" height="46.4789" filterUnits="userSpaceOnUse" color-interpolation-filters="sRGB">
<feFlood flood-opacity="0" result="BackgroundImageFix"/>
<feBlend mode="normal" in="SourceGraphic" in2="BackgroundImageFix" result="shape"/>
<feGaussianBlur stdDeviation="2" result="effect1_foregroundBlur_235_5738"/>
</filter>
<filter id="filter8_f_235_5738" x="19.1797" y="11.8744" width="5" height="27.2814" filterUnits="userSpaceOnUse" color-interpolation-filters="sRGB">
<feFlood flood-opacity="0" result="BackgroundImageFix"/>
<feBlend mode="normal" in="SourceGraphic" in2="BackgroundImageFix" result="shape"/>
<feGaussianBlur stdDeviation="1" result="effect1_foregroundBlur_235_5738"/>
</filter>
<filter id="filter9_f_235_5738" x="23.1543" y="11.8744" width="5" height="27.2814" filterUnits="userSpaceOnUse" color-interpolation-filters="sRGB">
<feFlood flood-opacity="0" result="BackgroundImageFix"/>
<feBlend mode="normal" in="SourceGraphic" in2="BackgroundImageFix" result="shape"/>
<feGaussianBlur stdDeviation="1" result="effect1_foregroundBlur_235_5738"/>
</filter>
</defs>
</svg>
