<svg width="59" height="60" viewBox="0 0 59 60" fill="none" xmlns="http://www.w3.org/2000/svg">
<g clip-path="url(#clip0_866_7188)">
<path d="M26.1362 52.6139C27.7366 52.1851 28.6864 50.54 28.2576 48.9397C27.8287 47.3393 26.1837 46.3895 24.5833 46.8183C22.9829 47.2472 22.0332 48.8922 22.462 50.4926C22.8908 52.093 24.5358 53.0427 26.1362 52.6139Z" fill="#5D5FEF"/>
<path d="M46.4194 47.1786C48.0198 46.7498 48.9696 45.1048 48.5408 43.5044C48.1119 41.904 46.4669 40.9543 44.8665 41.3831C43.2661 41.8119 42.3164 43.4569 42.7452 45.0573C43.174 46.6577 44.819 47.6075 46.4194 47.1786Z" fill="#5D5FEF"/>
<path d="M8.30578 15.1584C8.15208 14.8475 7.89543 14.5995 7.5795 14.4566C7.26356 14.3136 6.90785 14.2846 6.5729 14.3743L0.777344 15.9272L1.5538 18.825L6.16127 17.5905L19.1766 43.9129C19.3303 44.2238 19.5869 44.4718 19.9029 44.6147C20.2188 44.7577 20.5745 44.7867 20.9095 44.697L46.9895 37.7089L46.213 34.8111L21.3211 41.4808L18.6091 35.9959L44.6601 29.0155C44.9898 28.9272 45.2794 28.7291 45.4813 28.454C45.6832 28.1788 45.7852 27.843 45.7705 27.5021L45.0905 11.8181L42.1241 12.613L42.7219 26.429L17.2531 33.2534L8.30578 15.1584Z" fill="#5D5FEF"/>
<path d="M28.4103 14.7347L26.8574 8.93912L23.9596 9.71558L25.5125 15.5111L19.717 17.064L20.4934 19.9618L26.289 18.4089L27.8419 24.2045L30.7397 23.428L29.1868 17.6325L34.9823 16.0795L34.2059 13.1818L28.4103 14.7347Z" fill="#5D5FEF"/>
</g>
<defs>
<clipPath id="clip0_866_7188">
<rect width="48" height="48" fill="white" transform="translate(0 13.0295) rotate(-15)"/>
</clipPath>
</defs>
</svg>
