<svg width="20" height="20" viewBox="0 0 20 20" fill="none" xmlns="http://www.w3.org/2000/svg">
<g clip-path="url(#clip0_1489_6771)">
<path d="M14.356 7.8684C15.6757 8.74618 17.2924 9.26264 19.0386 9.26264V6.13622C18.7081 6.13629 18.3785 6.10423 18.0552 6.04049V8.50143C16.3092 8.50143 14.6927 7.98496 13.3726 7.10725V13.4874C13.3726 16.679 10.5919 19.2662 7.16185 19.2662C5.88204 19.2662 4.6925 18.9062 3.70435 18.2888C4.83216 19.3617 6.40498 20.0273 8.14502 20.0273C11.5752 20.0273 14.3561 17.4402 14.3561 14.2484V7.8684H14.356V7.8684ZM15.5691 4.71423C14.8946 4.02863 14.4518 3.14263 14.356 2.16311V1.76099H13.4241C13.6587 3.00595 14.4587 4.06957 15.5691 4.71423ZM5.87383 15.8396C5.497 15.3798 5.29337 14.8175 5.29428 14.2392C5.29428 12.7795 6.56617 11.5959 8.13534 11.5959C8.42778 11.5958 8.71847 11.6375 8.99716 11.7198V8.5235C8.67147 8.48197 8.34276 8.46434 8.0142 8.4708V10.9586C7.7353 10.8764 7.44447 10.8346 7.15196 10.8348C5.58279 10.8348 4.31097 12.0183 4.31097 13.4782C4.31097 14.5105 4.94671 15.4042 5.87383 15.8396Z" fill="#FF004F"/>
<path d="M13.3725 7.10718C14.6926 7.9849 16.3091 8.50136 18.0551 8.50136V6.04043C17.0805 5.84727 16.2177 5.37338 15.569 4.71423C14.4585 4.06951 13.6585 3.00589 13.424 1.76099H10.9761V14.2482C10.9706 15.704 9.70088 16.8828 8.13508 16.8828C7.21237 16.8828 6.39265 16.4735 5.87349 15.8396C4.94644 15.4042 4.31071 14.5104 4.31071 13.4783C4.31071 12.0185 5.58253 10.8349 7.1517 10.8349C7.45234 10.8349 7.74212 10.8784 8.01393 10.9587V8.47087C4.64418 8.53564 1.93408 11.0975 1.93408 14.2483C1.93408 15.8212 2.60896 17.247 3.70429 18.2888C4.69244 18.9062 5.88198 19.2662 7.1618 19.2662C10.5919 19.2662 13.3725 16.6789 13.3725 13.4874V7.10718H13.3725Z" fill="white"/>
<path d="M18.055 6.04052V5.37511C17.1761 5.37635 16.3145 5.14734 15.5689 4.71426C16.229 5.38666 17.0981 5.8503 18.055 6.04052ZM13.4239 1.76108C13.4015 1.64211 13.3843 1.52234 13.3724 1.40212V1H9.9926V13.4874C9.9872 14.943 8.71755 16.1217 7.15161 16.1217C6.69187 16.1217 6.25781 16.0202 5.87341 15.8397C6.39256 16.4736 7.21229 16.8828 8.13499 16.8828C9.70065 16.8828 10.9706 15.7042 10.9761 14.2484V1.76108H13.4239ZM8.01399 8.47096V7.76258C7.73158 7.72666 7.44686 7.70864 7.16178 7.70877C3.73142 7.7087 0.950684 10.296 0.950684 13.4874C0.950684 15.4882 2.04356 17.2515 3.70427 18.2888C2.60894 17.247 1.93406 15.8211 1.93406 14.2483C1.93406 11.0976 4.64409 8.53574 8.01399 8.47096Z" fill="#00F2EA"/>
</g>
<defs>
<clipPath id="clip0_1489_6771">
<rect width="20" height="20" fill="white"/>
</clipPath>
</defs>
</svg>
