<svg width="24" height="24" viewBox="0 0 24 24" fill="none" xmlns="http://www.w3.org/2000/svg">
<mask id="path-1-outside-1_301_4006" maskUnits="userSpaceOnUse" x="0" y="5" width="24" height="14" fill="black">
<rect fill="white" y="5" width="24" height="14"/>
<path d="M21.5333 14.525V10.975C22.3644 10.85 23 10.125 23 9.25C23 8.275 22.2422 7.5 21.2889 7.5H15.6667C15.1289 7.5 14.6889 7.05 14.6889 6.5C14.6889 6.225 14.4689 6 14.2 6C13.5156 6 12.88 6.275 12.4156 6.8C11.9511 7.3 11.7067 7.975 11.7556 8.675C11.8044 9.625 12.3911 10.4 13.2222 10.775V14.5H12.8556L8.79778 12.55C8.72445 12.525 8.65111 12.5 8.57778 12.5H2.71111C1.75778 12.5 1 13.275 1 14.25C1 15.225 1.75778 16 2.71111 16H7.02216C7.32206 16 7.61813 16.0674 7.88844 16.1973L11.5356 17.95C11.6089 17.975 11.6822 18 11.7311 18H21.2644C22.2178 18 22.9756 17.225 22.9756 16.25C23 15.375 22.3644 14.65 21.5333 14.525ZM20.5556 11V14.5H19.0889V11H20.5556ZM18.1111 11V14.5L16.6444 14.5V11H18.1111ZM15.6667 11V14.5H14.2V11C14.2244 11 14.2489 11 14.2733 11H15.6667Z"/>
</mask>
<path d="M21.5333 14.525V10.975C22.3644 10.85 23 10.125 23 9.25C23 8.275 22.2422 7.5 21.2889 7.5H15.6667C15.1289 7.5 14.6889 7.05 14.6889 6.5C14.6889 6.225 14.4689 6 14.2 6C13.5156 6 12.88 6.275 12.4156 6.8C11.9511 7.3 11.7067 7.975 11.7556 8.675C11.8044 9.625 12.3911 10.4 13.2222 10.775V14.5H12.8556L8.79778 12.55C8.72445 12.525 8.65111 12.5 8.57778 12.5H2.71111C1.75778 12.5 1 13.275 1 14.25C1 15.225 1.75778 16 2.71111 16H7.02216C7.32206 16 7.61813 16.0674 7.88844 16.1973L11.5356 17.95C11.6089 17.975 11.6822 18 11.7311 18H21.2644C22.2178 18 22.9756 17.225 22.9756 16.25C23 15.375 22.3644 14.65 21.5333 14.525ZM20.5556 11V14.5H19.0889V11H20.5556ZM18.1111 11V14.5L16.6444 14.5V11H18.1111ZM15.6667 11V14.5H14.2V11C14.2244 11 14.2489 11 14.2733 11H15.6667Z" fill="#5D5FEF"/>
<path d="M12.7333 8.6L12.6335 8.60574L12.6335 8.6063L12.7333 8.6ZM13.1244 7.475L13.0529 7.40502L13.05 7.40826L13.1244 7.475ZM7.82 15.05L7.86363 14.9592L7.85227 14.9553L7.82 15.05ZM21.9978 16.25H21.8976L21.898 16.2561L21.9978 16.25ZM8.86622 13.6973L8.90953 13.6072L8.86622 13.6973ZM11.4671 16.8027L11.4238 16.8928L11.4671 16.8027ZM12.8332 8.59426C12.8103 8.19617 12.9476 7.82218 13.1989 7.54174L13.05 7.40826C12.7636 7.72782 12.6075 8.15383 12.6335 8.60574L12.8332 8.59426ZM13.1959 7.54491C13.383 7.35356 13.5892 7.2145 13.8138 7.1456L13.7551 6.9544C13.4908 7.0355 13.257 7.19644 13.0529 7.40509L13.1959 7.54491ZM21.2889 8.6C21.6471 8.6 21.9222 8.8781 21.9222 9.25H22.1222C22.1222 8.7719 21.7618 8.4 21.2889 8.4V8.6ZM21.9222 9.25C21.9222 9.5991 21.645 9.9 21.2889 9.9V10.1C21.7639 10.1 22.1222 9.7009 22.1222 9.25H21.9222ZM21.2889 9.9L14.2733 9.9V10.1H21.2889V9.9ZM14.2733 9.9C13.5166 9.9 12.8785 9.31324 12.8331 8.5937L12.6335 8.6063C12.6859 9.43676 13.4167 10.1 14.2733 10.1V9.9ZM21.2889 16.9H12.3334V17.1H21.2889V16.9ZM11.5104 16.7125L7.86331 14.9599L7.77669 15.1401L11.4238 16.8928L11.5104 16.7125ZM7.85227 14.9553C7.78239 14.9315 7.69291 14.9 7.6 14.9V15.1C7.65376 15.1 7.71094 15.1185 7.78773 15.1447L7.85227 14.9553ZM7.6 14.9H2.71111V15.1H7.6V14.9ZM2.71111 14.9C2.35502 14.9 2.07778 14.5991 2.07778 14.25H1.87778C1.87778 14.7009 2.23609 15.1 2.71111 15.1V14.9ZM2.07778 14.25C2.07778 13.8781 2.35289 13.6 2.71111 13.6V13.4C2.23822 13.4 1.87778 13.7719 1.87778 14.25H2.07778ZM2.71111 13.6H7.99994V13.4H2.71111V13.6ZM8.8229 13.7875L12.47 15.5401L12.5566 15.3599L8.90953 13.6072L8.8229 13.7875ZM21.2644 15.6C21.6227 15.6 21.8978 15.8781 21.8978 16.25H22.0978C22.0978 15.7719 21.7373 15.4 21.2644 15.4V15.6ZM21.898 16.2561C21.9189 16.5993 21.6461 16.9 21.2889 16.9V17.1C21.7628 17.1 22.1255 16.7007 22.0976 16.2439L21.898 16.2561ZM7.99994 13.6C8.28485 13.6 8.56611 13.6641 8.8229 13.7875L8.90953 13.6072C8.6257 13.4708 8.31484 13.4 7.99994 13.4V13.6ZM12.3334 16.9C12.0485 16.9 11.7672 16.8359 11.5104 16.7125L11.4238 16.8928C11.7076 17.0292 12.0185 17.1 12.3334 17.1V16.9ZM21.5333 14.525H21.3333V14.6972L21.5036 14.7228L21.5333 14.525ZM21.5333 10.975L21.5036 10.7772L21.3333 10.8028V10.975H21.5333ZM12.4156 6.8L12.5621 6.93616L12.5654 6.93252L12.4156 6.8ZM11.7556 8.675L11.9553 8.66472L11.9551 8.66107L11.7556 8.675ZM13.2222 10.775H13.4222V10.6458L13.3045 10.5927L13.2222 10.775ZM13.2222 14.5V14.7H13.4222V14.5H13.2222ZM12.8556 14.5L12.7689 14.6803L12.81 14.7H12.8556V14.5ZM8.79778 12.55L8.88441 12.3697L8.87363 12.3646L8.86231 12.3607L8.79778 12.55ZM11.5356 17.95L11.4489 18.1303L11.4597 18.1354L11.471 18.1393L11.5356 17.95ZM22.9756 16.25L22.7756 16.2444V16.25H22.9756ZM20.5556 11H20.7556V10.8H20.5556V11ZM20.5556 14.5V14.7H20.7556V14.5H20.5556ZM19.0889 14.5H18.8889V14.7H19.0889V14.5ZM19.0889 11V10.8H18.8889V11H19.0889ZM18.1111 11H18.3111V10.8H18.1111V11ZM18.1111 14.5V14.7H18.3111V14.5H18.1111ZM16.6444 14.5H16.4444V14.7H16.6444V14.5ZM16.6444 11V10.8H16.4444V11H16.6444ZM15.6667 11H15.8667V10.8H15.6667V11ZM15.6667 14.5V14.7H15.8667V14.5H15.6667ZM14.2 14.5H14V14.7H14.2V14.5ZM14.2 11V10.8H14V11H14.2ZM7.88844 16.1973L7.80181 16.3776L7.88844 16.1973ZM21.7333 14.525V10.975H21.3333V14.525H21.7333ZM21.5631 11.1728C22.4926 11.033 23.2 10.2234 23.2 9.25H22.8C22.8 10.0266 22.2363 10.667 21.5036 10.7772L21.5631 11.1728ZM23.2 9.25C23.2 8.1688 22.3569 7.3 21.2889 7.3V7.7C22.1276 7.7 22.8 8.3812 22.8 9.25H23.2ZM21.2889 7.3H15.6667V7.7H21.2889V7.3ZM15.6667 7.3C15.2436 7.3 14.8889 6.9438 14.8889 6.5H14.4889C14.4889 7.1562 15.0142 7.7 15.6667 7.7V7.3ZM14.8889 6.5C14.8889 6.1188 14.5836 5.8 14.2 5.8V6.2C14.3542 6.2 14.4889 6.3312 14.4889 6.5H14.8889ZM14.2 5.8C13.4598 5.8 12.7692 6.09843 12.2658 6.66748L12.5654 6.93252C12.9908 6.45157 13.5713 6.2 14.2 6.2V5.8ZM12.269 6.66388C11.7672 7.20412 11.5033 7.93333 11.556 8.68893L11.9551 8.66107C11.9101 8.01667 12.135 7.39588 12.5621 6.93612L12.269 6.66388ZM11.5558 8.68528C11.6089 9.71654 12.2467 10.5542 13.14 10.9573L13.3045 10.5927C12.5356 10.2458 12 9.53346 11.9553 8.66472L11.5558 8.68528ZM13.0222 10.775V14.5H13.4222V10.775H13.0222ZM13.2222 14.3H12.8556V14.7H13.2222V14.3ZM12.9422 14.3197L8.88441 12.3697L8.71115 12.7303L12.7689 14.6803L12.9422 14.3197ZM8.86231 12.3607C8.7959 12.3381 8.69026 12.3 8.57778 12.3V12.7C8.61196 12.7 8.65299 12.7119 8.73324 12.7393L8.86231 12.3607ZM8.57778 12.3H2.71111V12.7H8.57778V12.3ZM2.71111 12.3C1.64311 12.3 0.8 13.1688 0.8 14.25H1.2C1.2 13.3812 1.87245 12.7 2.71111 12.7V12.3ZM0.8 14.25C0.8 15.3312 1.64311 16.2 2.71111 16.2L2.71111 15.8C1.87245 15.8 1.2 15.1188 1.2 14.25H0.8ZM2.71111 16.2H7.02216V15.8H2.71111L2.71111 16.2ZM7.80181 16.3776L11.4489 18.1303L11.6222 17.7697L7.97507 16.0171L7.80181 16.3776ZM11.471 18.1393C11.5064 18.1514 11.5487 18.1658 11.5888 18.177C11.6261 18.1874 11.6783 18.2 11.7311 18.2V17.8C11.735 17.8 11.7261 17.8001 11.6962 17.7917C11.6691 17.7842 11.6381 17.7736 11.6001 17.7607L11.471 18.1393ZM11.7311 18.2H21.2644V17.8H11.7311V18.2ZM21.2644 18.2C22.3324 18.2 23.1756 17.3312 23.1756 16.25H22.7756C22.7756 17.1188 22.1031 17.8 21.2644 17.8V18.2ZM23.1755 16.2556C23.2028 15.2772 22.4918 14.4669 21.5631 14.3272L21.5036 14.7228C22.2371 14.8331 22.7972 15.4728 22.7756 16.2444L23.1755 16.2556ZM20.3556 11V14.5H20.7556V11H20.3556ZM20.5556 14.3H19.0889V14.7H20.5556V14.3ZM19.2889 14.5V11H18.8889V14.5H19.2889ZM19.0889 11.2H20.5556V10.8H19.0889V11.2ZM17.9111 11V14.5H18.3111V11H17.9111ZM18.1111 14.3L16.6444 14.3V14.7L18.1111 14.7V14.3ZM16.8444 14.5V11H16.4444V14.5H16.8444ZM16.6444 11.2H18.1111V10.8H16.6444V11.2ZM15.4667 11V14.5H15.8667V11H15.4667ZM15.6667 14.3H14.2V14.7H15.6667V14.3ZM14.4 14.5V11H14V14.5H14.4ZM14.2 11.2C14.2 11.2 14.2001 11.2 14.2001 11.2C14.2002 11.2 14.2002 11.2 14.2003 11.2C14.2003 11.2 14.2004 11.2 14.2004 11.2C14.2005 11.2 14.2005 11.2 14.2006 11.2C14.2006 11.2 14.2007 11.2 14.2007 11.2C14.2008 11.2 14.2008 11.2 14.2009 11.2C14.2009 11.2 14.201 11.2 14.201 11.2C14.2011 11.2 14.2011 11.2 14.2011 11.2C14.2012 11.2 14.2012 11.2 14.2013 11.2C14.2013 11.2 14.2014 11.2 14.2014 11.2C14.2015 11.2 14.2015 11.2 14.2016 11.2C14.2016 11.2 14.2017 11.2 14.2017 11.2C14.2018 11.2 14.2018 11.2 14.2019 11.2C14.2019 11.2 14.202 11.2 14.202 11.2C14.2021 11.2 14.2021 11.2 14.2021 11.2C14.2022 11.2 14.2022 11.2 14.2023 11.2C14.2023 11.2 14.2024 11.2 14.2024 11.2C14.2025 11.2 14.2025 11.2 14.2026 11.2C14.2026 11.2 14.2027 11.2 14.2027 11.2C14.2028 11.2 14.2028 11.2 14.2029 11.2C14.2029 11.2 14.203 11.2 14.203 11.2C14.2031 11.2 14.2031 11.2 14.2032 11.2C14.2032 11.2 14.2032 11.2 14.2033 11.2C14.2033 11.2 14.2034 11.2 14.2034 11.2C14.2035 11.2 14.2035 11.2 14.2036 11.2C14.2036 11.2 14.2037 11.2 14.2037 11.2C14.2038 11.2 14.2038 11.2 14.2039 11.2C14.2039 11.2 14.204 11.2 14.204 11.2C14.2041 11.2 14.2041 11.2 14.2042 11.2C14.2042 11.2 14.2043 11.2 14.2043 11.2C14.2043 11.2 14.2044 11.2 14.2044 11.2C14.2045 11.2 14.2045 11.2 14.2046 11.2C14.2046 11.2 14.2047 11.2 14.2047 11.2C14.2048 11.2 14.2048 11.2 14.2049 11.2C14.2049 11.2 14.205 11.2 14.205 11.2C14.2051 11.2 14.2051 11.2 14.2052 11.2C14.2052 11.2 14.2053 11.2 14.2053 11.2C14.2053 11.2 14.2054 11.2 14.2054 11.2C14.2055 11.2 14.2055 11.2 14.2056 11.2C14.2056 11.2 14.2057 11.2 14.2057 11.2C14.2058 11.2 14.2058 11.2 14.2059 11.2C14.2059 11.2 14.206 11.2 14.206 11.2C14.2061 11.2 14.2061 11.2 14.2062 11.2C14.2062 11.2 14.2063 11.2 14.2063 11.2C14.2064 11.2 14.2064 11.2 14.2064 11.2C14.2065 11.2 14.2065 11.2 14.2066 11.2C14.2066 11.2 14.2067 11.2 14.2067 11.2C14.2068 11.2 14.2068 11.2 14.2069 11.2C14.2069 11.2 14.207 11.2 14.207 11.2C14.2071 11.2 14.2071 11.2 14.2072 11.2C14.2072 11.2 14.2073 11.2 14.2073 11.2C14.2074 11.2 14.2074 11.2 14.2074 11.2C14.2075 11.2 14.2075 11.2 14.2076 11.2C14.2076 11.2 14.2077 11.2 14.2077 11.2C14.2078 11.2 14.2078 11.2 14.2079 11.2C14.2079 11.2 14.208 11.2 14.208 11.2C14.2081 11.2 14.2081 11.2 14.2082 11.2C14.2082 11.2 14.2083 11.2 14.2083 11.2C14.2084 11.2 14.2084 11.2 14.2085 11.2C14.2085 11.2 14.2085 11.2 14.2086 11.2C14.2086 11.2 14.2087 11.2 14.2087 11.2C14.2088 11.2 14.2088 11.2 14.2089 11.2C14.2089 11.2 14.209 11.2 14.209 11.2C14.2091 11.2 14.2091 11.2 14.2092 11.2C14.2092 11.2 14.2093 11.2 14.2093 11.2C14.2094 11.2 14.2094 11.2 14.2095 11.2C14.2095 11.2 14.2095 11.2 14.2096 11.2C14.2096 11.2 14.2097 11.2 14.2097 11.2C14.2098 11.2 14.2098 11.2 14.2099 11.2C14.2099 11.2 14.21 11.2 14.21 11.2C14.2101 11.2 14.2101 11.2 14.2102 11.2C14.2102 11.2 14.2103 11.2 14.2103 11.2C14.2104 11.2 14.2104 11.2 14.2105 11.2C14.2105 11.2 14.2106 11.2 14.2106 11.2C14.2106 11.2 14.2107 11.2 14.2107 11.2C14.2108 11.2 14.2108 11.2 14.2109 11.2C14.2109 11.2 14.211 11.2 14.211 11.2C14.2111 11.2 14.2111 11.2 14.2112 11.2C14.2112 11.2 14.2113 11.2 14.2113 11.2C14.2114 11.2 14.2114 11.2 14.2115 11.2C14.2115 11.2 14.2116 11.2 14.2116 11.2C14.2116 11.2 14.2117 11.2 14.2117 11.2C14.2118 11.2 14.2118 11.2 14.2119 11.2C14.2119 11.2 14.212 11.2 14.212 11.2C14.2121 11.2 14.2121 11.2 14.2122 11.2C14.2122 11.2 14.2123 11.2 14.2123 11.2C14.2124 11.2 14.2124 11.2 14.2125 11.2C14.2125 11.2 14.2126 11.2 14.2126 11.2C14.2127 11.2 14.2127 11.2 14.2127 11.2C14.2128 11.2 14.2128 11.2 14.2129 11.2C14.2129 11.2 14.213 11.2 14.213 11.2C14.2131 11.2 14.2131 11.2 14.2132 11.2C14.2132 11.2 14.2133 11.2 14.2133 11.2C14.2134 11.2 14.2134 11.2 14.2135 11.2C14.2135 11.2 14.2136 11.2 14.2136 11.2C14.2137 11.2 14.2137 11.2 14.2138 11.2C14.2138 11.2 14.2138 11.2 14.2139 11.2C14.2139 11.2 14.214 11.2 14.214 11.2C14.2141 11.2 14.2141 11.2 14.2142 11.2C14.2142 11.2 14.2143 11.2 14.2143 11.2C14.2144 11.2 14.2144 11.2 14.2145 11.2C14.2145 11.2 14.2146 11.2 14.2146 11.2C14.2147 11.2 14.2147 11.2 14.2148 11.2C14.2148 11.2 14.2148 11.2 14.2149 11.2C14.2149 11.2 14.215 11.2 14.215 11.2C14.2151 11.2 14.2151 11.2 14.2152 11.2C14.2152 11.2 14.2153 11.2 14.2153 11.2C14.2154 11.2 14.2154 11.2 14.2155 11.2C14.2155 11.2 14.2156 11.2 14.2156 11.2C14.2157 11.2 14.2157 11.2 14.2158 11.2C14.2158 11.2 14.2159 11.2 14.2159 11.2C14.2159 11.2 14.216 11.2 14.216 11.2C14.2161 11.2 14.2161 11.2 14.2162 11.2C14.2162 11.2 14.2163 11.2 14.2163 11.2C14.2164 11.2 14.2164 11.2 14.2165 11.2C14.2165 11.2 14.2166 11.2 14.2166 11.2C14.2167 11.2 14.2167 11.2 14.2168 11.2C14.2168 11.2 14.2169 11.2 14.2169 11.2C14.2169 11.2 14.217 11.2 14.217 11.2C14.2171 11.2 14.2171 11.2 14.2172 11.2C14.2172 11.2 14.2173 11.2 14.2173 11.2C14.2174 11.2 14.2174 11.2 14.2175 11.2C14.2175 11.2 14.2176 11.2 14.2176 11.2C14.2177 11.2 14.2177 11.2 14.2178 11.2C14.2178 11.2 14.2179 11.2 14.2179 11.2C14.218 11.2 14.218 11.2 14.218 11.2C14.2181 11.2 14.2181 11.2 14.2182 11.2C14.2182 11.2 14.2183 11.2 14.2183 11.2C14.2184 11.2 14.2184 11.2 14.2185 11.2C14.2185 11.2 14.2186 11.2 14.2186 11.2C14.2187 11.2 14.2187 11.2 14.2188 11.2C14.2188 11.2 14.2189 11.2 14.2189 11.2C14.219 11.2 14.219 11.2 14.2191 11.2C14.2191 11.2 14.2191 11.2 14.2192 11.2C14.2192 11.2 14.2193 11.2 14.2193 11.2C14.2194 11.2 14.2194 11.2 14.2195 11.2C14.2195 11.2 14.2196 11.2 14.2196 11.2C14.2197 11.2 14.2197 11.2 14.2198 11.2C14.2198 11.2 14.2199 11.2 14.2199 11.2C14.22 11.2 14.22 11.2 14.2201 11.2C14.2201 11.2 14.2201 11.2 14.2202 11.2C14.2202 11.2 14.2203 11.2 14.2203 11.2C14.2204 11.2 14.2204 11.2 14.2205 11.2C14.2205 11.2 14.2206 11.2 14.2206 11.2C14.2207 11.2 14.2207 11.2 14.2208 11.2C14.2208 11.2 14.2209 11.2 14.2209 11.2C14.221 11.2 14.221 11.2 14.2211 11.2C14.2211 11.2 14.2212 11.2 14.2212 11.2C14.2212 11.2 14.2213 11.2 14.2213 11.2C14.2214 11.2 14.2214 11.2 14.2215 11.2C14.2215 11.2 14.2216 11.2 14.2216 11.2C14.2217 11.2 14.2217 11.2 14.2218 11.2C14.2218 11.2 14.2219 11.2 14.2219 11.2C14.222 11.2 14.222 11.2 14.2221 11.2C14.2221 11.2 14.2222 11.2 14.2222 11.2C14.2222 11.2 14.2223 11.2 14.2223 11.2C14.2224 11.2 14.2224 11.2 14.2225 11.2C14.2225 11.2 14.2226 11.2 14.2226 11.2C14.2227 11.2 14.2227 11.2 14.2228 11.2C14.2228 11.2 14.2229 11.2 14.2229 11.2C14.223 11.2 14.223 11.2 14.2231 11.2C14.2231 11.2 14.2232 11.2 14.2232 11.2C14.2233 11.2 14.2233 11.2 14.2233 11.2C14.2234 11.2 14.2234 11.2 14.2235 11.2C14.2235 11.2 14.2236 11.2 14.2236 11.2C14.2237 11.2 14.2237 11.2 14.2238 11.2C14.2238 11.2 14.2239 11.2 14.2239 11.2C14.224 11.2 14.224 11.2 14.2241 11.2C14.2241 11.2 14.2242 11.2 14.2242 11.2C14.2243 11.2 14.2243 11.2 14.2243 11.2C14.2244 11.2 14.2244 11.2 14.2245 11.2C14.2245 11.2 14.2246 11.2 14.2246 11.2C14.2247 11.2 14.2247 11.2 14.2248 11.2C14.2248 11.2 14.2249 11.2 14.2249 11.2C14.225 11.2 14.225 11.2 14.2251 11.2C14.2251 11.2 14.2252 11.2 14.2252 11.2C14.2253 11.2 14.2253 11.2 14.2254 11.2C14.2254 11.2 14.2254 11.2 14.2255 11.2C14.2255 11.2 14.2256 11.2 14.2256 11.2C14.2257 11.2 14.2257 11.2 14.2258 11.2C14.2258 11.2 14.2259 11.2 14.2259 11.2C14.226 11.2 14.226 11.2 14.2261 11.2C14.2261 11.2 14.2262 11.2 14.2262 11.2C14.2263 11.2 14.2263 11.2 14.2264 11.2C14.2264 11.2 14.2264 11.2 14.2265 11.2C14.2265 11.2 14.2266 11.2 14.2266 11.2C14.2267 11.2 14.2267 11.2 14.2268 11.2C14.2268 11.2 14.2269 11.2 14.2269 11.2C14.227 11.2 14.227 11.2 14.2271 11.2C14.2271 11.2 14.2272 11.2 14.2272 11.2C14.2273 11.2 14.2273 11.2 14.2274 11.2C14.2274 11.2 14.2275 11.2 14.2275 11.2C14.2275 11.2 14.2276 11.2 14.2276 11.2C14.2277 11.2 14.2277 11.2 14.2278 11.2C14.2278 11.2 14.2279 11.2 14.2279 11.2C14.228 11.2 14.228 11.2 14.2281 11.2C14.2281 11.2 14.2282 11.2 14.2282 11.2C14.2283 11.2 14.2283 11.2 14.2284 11.2C14.2284 11.2 14.2285 11.2 14.2285 11.2C14.2286 11.2 14.2286 11.2 14.2286 11.2C14.2287 11.2 14.2287 11.2 14.2288 11.2C14.2288 11.2 14.2289 11.2 14.2289 11.2C14.229 11.2 14.229 11.2 14.2291 11.2C14.2291 11.2 14.2292 11.2 14.2292 11.2C14.2293 11.2 14.2293 11.2 14.2294 11.2C14.2294 11.2 14.2295 11.2 14.2295 11.2C14.2296 11.2 14.2296 11.2 14.2296 11.2C14.2297 11.2 14.2297 11.2 14.2298 11.2C14.2298 11.2 14.2299 11.2 14.2299 11.2C14.23 11.2 14.23 11.2 14.2301 11.2C14.2301 11.2 14.2302 11.2 14.2302 11.2C14.2303 11.2 14.2303 11.2 14.2304 11.2C14.2304 11.2 14.2305 11.2 14.2305 11.2C14.2306 11.2 14.2306 11.2 14.2307 11.2C14.2307 11.2 14.2307 11.2 14.2308 11.2C14.2308 11.2 14.2309 11.2 14.2309 11.2C14.231 11.2 14.231 11.2 14.2311 11.2C14.2311 11.2 14.2312 11.2 14.2312 11.2C14.2313 11.2 14.2313 11.2 14.2314 11.2C14.2314 11.2 14.2315 11.2 14.2315 11.2C14.2316 11.2 14.2316 11.2 14.2317 11.2C14.2317 11.2 14.2317 11.2 14.2318 11.2C14.2318 11.2 14.2319 11.2 14.2319 11.2C14.232 11.2 14.232 11.2 14.2321 11.2C14.2321 11.2 14.2322 11.2 14.2322 11.2C14.2323 11.2 14.2323 11.2 14.2324 11.2C14.2324 11.2 14.2325 11.2 14.2325 11.2C14.2326 11.2 14.2326 11.2 14.2327 11.2C14.2327 11.2 14.2328 11.2 14.2328 11.2C14.2328 11.2 14.2329 11.2 14.2329 11.2C14.233 11.2 14.233 11.2 14.2331 11.2C14.2331 11.2 14.2332 11.2 14.2332 11.2C14.2333 11.2 14.2333 11.2 14.2334 11.2C14.2334 11.2 14.2335 11.2 14.2335 11.2C14.2336 11.2 14.2336 11.2 14.2337 11.2C14.2337 11.2 14.2338 11.2 14.2338 11.2C14.2339 11.2 14.2339 11.2 14.2339 11.2C14.234 11.2 14.234 11.2 14.2341 11.2C14.2341 11.2 14.2342 11.2 14.2342 11.2C14.2343 11.2 14.2343 11.2 14.2344 11.2C14.2344 11.2 14.2345 11.2 14.2345 11.2C14.2346 11.2 14.2346 11.2 14.2347 11.2C14.2347 11.2 14.2348 11.2 14.2348 11.2C14.2349 11.2 14.2349 11.2 14.2349 11.2C14.235 11.2 14.235 11.2 14.2351 11.2C14.2351 11.2 14.2352 11.2 14.2352 11.2C14.2353 11.2 14.2353 11.2 14.2354 11.2C14.2354 11.2 14.2355 11.2 14.2355 11.2C14.2356 11.2 14.2356 11.2 14.2357 11.2C14.2357 11.2 14.2358 11.2 14.2358 11.2C14.2359 11.2 14.2359 11.2 14.236 11.2C14.236 11.2 14.236 11.2 14.2361 11.2C14.2361 11.2 14.2362 11.2 14.2362 11.2C14.2363 11.2 14.2363 11.2 14.2364 11.2C14.2364 11.2 14.2365 11.2 14.2365 11.2C14.2366 11.2 14.2366 11.2 14.2367 11.2C14.2367 11.2 14.2368 11.2 14.2368 11.2C14.2369 11.2 14.2369 11.2 14.237 11.2C14.237 11.2 14.237 11.2 14.2371 11.2C14.2371 11.2 14.2372 11.2 14.2372 11.2C14.2373 11.2 14.2373 11.2 14.2374 11.2C14.2374 11.2 14.2375 11.2 14.2375 11.2C14.2376 11.2 14.2376 11.2 14.2377 11.2C14.2377 11.2 14.2378 11.2 14.2378 11.2C14.2379 11.2 14.2379 11.2 14.238 11.2C14.238 11.2 14.2381 11.2 14.2381 11.2C14.2381 11.2 14.2382 11.2 14.2382 11.2C14.2383 11.2 14.2383 11.2 14.2384 11.2C14.2384 11.2 14.2385 11.2 14.2385 11.2C14.2386 11.2 14.2386 11.2 14.2387 11.2C14.2387 11.2 14.2388 11.2 14.2388 11.2C14.2389 11.2 14.2389 11.2 14.239 11.2C14.239 11.2 14.2391 11.2 14.2391 11.2C14.2392 11.2 14.2392 11.2 14.2392 11.2C14.2393 11.2 14.2393 11.2 14.2394 11.2C14.2394 11.2 14.2395 11.2 14.2395 11.2C14.2396 11.2 14.2396 11.2 14.2397 11.2C14.2397 11.2 14.2398 11.2 14.2398 11.2C14.2399 11.2 14.2399 11.2 14.24 11.2C14.24 11.2 14.2401 11.2 14.2401 11.2C14.2402 11.2 14.2402 11.2 14.2402 11.2C14.2403 11.2 14.2403 11.2 14.2404 11.2C14.2404 11.2 14.2405 11.2 14.2405 11.2C14.2406 11.2 14.2406 11.2 14.2407 11.2C14.2407 11.2 14.2408 11.2 14.2408 11.2C14.2409 11.2 14.2409 11.2 14.241 11.2C14.241 11.2 14.2411 11.2 14.2411 11.2C14.2412 11.2 14.2412 11.2 14.2413 11.2C14.2413 11.2 14.2413 11.2 14.2414 11.2C14.2414 11.2 14.2415 11.2 14.2415 11.2C14.2416 11.2 14.2416 11.2 14.2417 11.2C14.2417 11.2 14.2418 11.2 14.2418 11.2C14.2419 11.2 14.2419 11.2 14.242 11.2C14.242 11.2 14.2421 11.2 14.2421 11.2C14.2422 11.2 14.2422 11.2 14.2423 11.2C14.2423 11.2 14.2423 11.2 14.2424 11.2C14.2424 11.2 14.2425 11.2 14.2425 11.2C14.2426 11.2 14.2426 11.2 14.2427 11.2C14.2427 11.2 14.2428 11.2 14.2428 11.2C14.2429 11.2 14.2429 11.2 14.243 11.2C14.243 11.2 14.2431 11.2 14.2431 11.2C14.2432 11.2 14.2432 11.2 14.2433 11.2C14.2433 11.2 14.2434 11.2 14.2434 11.2C14.2434 11.2 14.2435 11.2 14.2435 11.2C14.2436 11.2 14.2436 11.2 14.2437 11.2C14.2437 11.2 14.2438 11.2 14.2438 11.2C14.2439 11.2 14.2439 11.2 14.244 11.2C14.244 11.2 14.2441 11.2 14.2441 11.2C14.2442 11.2 14.2442 11.2 14.2443 11.2C14.2443 11.2 14.2444 11.2 14.2444 11.2C14.2444 11.2 14.2445 11.2 14.2445 11.2C14.2446 11.2 14.2446 11.2 14.2447 11.2C14.2447 11.2 14.2448 11.2 14.2448 11.2C14.2449 11.2 14.2449 11.2 14.245 11.2C14.245 11.2 14.2451 11.2 14.2451 11.2C14.2452 11.2 14.2452 11.2 14.2453 11.2C14.2453 11.2 14.2454 11.2 14.2454 11.2C14.2455 11.2 14.2455 11.2 14.2455 11.2C14.2456 11.2 14.2456 11.2 14.2457 11.2C14.2457 11.2 14.2458 11.2 14.2458 11.2C14.2459 11.2 14.2459 11.2 14.246 11.2C14.246 11.2 14.2461 11.2 14.2461 11.2C14.2462 11.2 14.2462 11.2 14.2463 11.2C14.2463 11.2 14.2464 11.2 14.2464 11.2C14.2465 11.2 14.2465 11.2 14.2465 11.2C14.2466 11.2 14.2466 11.2 14.2467 11.2C14.2467 11.2 14.2468 11.2 14.2468 11.2C14.2469 11.2 14.2469 11.2 14.247 11.2C14.247 11.2 14.2471 11.2 14.2471 11.2C14.2472 11.2 14.2472 11.2 14.2473 11.2C14.2473 11.2 14.2474 11.2 14.2474 11.2C14.2475 11.2 14.2475 11.2 14.2476 11.2C14.2476 11.2 14.2476 11.2 14.2477 11.2C14.2477 11.2 14.2478 11.2 14.2478 11.2C14.2479 11.2 14.2479 11.2 14.248 11.2C14.248 11.2 14.2481 11.2 14.2481 11.2C14.2482 11.2 14.2482 11.2 14.2483 11.2C14.2483 11.2 14.2484 11.2 14.2484 11.2C14.2485 11.2 14.2485 11.2 14.2486 11.2C14.2486 11.2 14.2487 11.2 14.2487 11.2C14.2487 11.2 14.2488 11.2 14.2488 11.2C14.2489 11.2 14.2489 11.2 14.249 11.2C14.249 11.2 14.2491 11.2 14.2491 11.2C14.2492 11.2 14.2492 11.2 14.2493 11.2C14.2493 11.2 14.2494 11.2 14.2494 11.2C14.2495 11.2 14.2495 11.2 14.2496 11.2C14.2496 11.2 14.2497 11.2 14.2497 11.2C14.2497 11.2 14.2498 11.2 14.2498 11.2C14.2499 11.2 14.2499 11.2 14.25 11.2C14.25 11.2 14.2501 11.2 14.2501 11.2C14.2502 11.2 14.2502 11.2 14.2503 11.2C14.2503 11.2 14.2504 11.2 14.2504 11.2C14.2505 11.2 14.2505 11.2 14.2506 11.2C14.2506 11.2 14.2507 11.2 14.2507 11.2C14.2508 11.2 14.2508 11.2 14.2508 11.2C14.2509 11.2 14.2509 11.2 14.251 11.2C14.251 11.2 14.2511 11.2 14.2511 11.2C14.2512 11.2 14.2512 11.2 14.2513 11.2C14.2513 11.2 14.2514 11.2 14.2514 11.2C14.2515 11.2 14.2515 11.2 14.2516 11.2C14.2516 11.2 14.2517 11.2 14.2517 11.2C14.2518 11.2 14.2518 11.2 14.2518 11.2C14.2519 11.2 14.2519 11.2 14.252 11.2C14.252 11.2 14.2521 11.2 14.2521 11.2C14.2522 11.2 14.2522 11.2 14.2523 11.2C14.2523 11.2 14.2524 11.2 14.2524 11.2C14.2525 11.2 14.2525 11.2 14.2526 11.2C14.2526 11.2 14.2527 11.2 14.2527 11.2C14.2528 11.2 14.2528 11.2 14.2529 11.2C14.2529 11.2 14.2529 11.2 14.253 11.2C14.253 11.2 14.2531 11.2 14.2531 11.2C14.2532 11.2 14.2532 11.2 14.2533 11.2C14.2533 11.2 14.2534 11.2 14.2534 11.2C14.2535 11.2 14.2535 11.2 14.2536 11.2C14.2536 11.2 14.2537 11.2 14.2537 11.2C14.2538 11.2 14.2538 11.2 14.2539 11.2C14.2539 11.2 14.254 11.2 14.254 11.2C14.254 11.2 14.2541 11.2 14.2541 11.2C14.2542 11.2 14.2542 11.2 14.2543 11.2C14.2543 11.2 14.2544 11.2 14.2544 11.2C14.2545 11.2 14.2545 11.2 14.2546 11.2C14.2546 11.2 14.2547 11.2 14.2547 11.2C14.2548 11.2 14.2548 11.2 14.2549 11.2C14.2549 11.2 14.255 11.2 14.255 11.2C14.255 11.2 14.2551 11.2 14.2551 11.2C14.2552 11.2 14.2552 11.2 14.2553 11.2C14.2553 11.2 14.2554 11.2 14.2554 11.2C14.2555 11.2 14.2555 11.2 14.2556 11.2C14.2556 11.2 14.2557 11.2 14.2557 11.2C14.2558 11.2 14.2558 11.2 14.2559 11.2C14.2559 11.2 14.256 11.2 14.256 11.2C14.2561 11.2 14.2561 11.2 14.2561 11.2C14.2562 11.2 14.2562 11.2 14.2563 11.2C14.2563 11.2 14.2564 11.2 14.2564 11.2C14.2565 11.2 14.2565 11.2 14.2566 11.2C14.2566 11.2 14.2567 11.2 14.2567 11.2C14.2568 11.2 14.2568 11.2 14.2569 11.2C14.2569 11.2 14.257 11.2 14.257 11.2C14.2571 11.2 14.2571 11.2 14.2571 11.2C14.2572 11.2 14.2572 11.2 14.2573 11.2C14.2573 11.2 14.2574 11.2 14.2574 11.2C14.2575 11.2 14.2575 11.2 14.2576 11.2C14.2576 11.2 14.2577 11.2 14.2577 11.2C14.2578 11.2 14.2578 11.2 14.2579 11.2C14.2579 11.2 14.258 11.2 14.258 11.2C14.2581 11.2 14.2581 11.2 14.2582 11.2C14.2582 11.2 14.2582 11.2 14.2583 11.2C14.2583 11.2 14.2584 11.2 14.2584 11.2C14.2585 11.2 14.2585 11.2 14.2586 11.2C14.2586 11.2 14.2587 11.2 14.2587 11.2C14.2588 11.2 14.2588 11.2 14.2589 11.2C14.2589 11.2 14.259 11.2 14.259 11.2C14.2591 11.2 14.2591 11.2 14.2592 11.2C14.2592 11.2 14.2592 11.2 14.2593 11.2C14.2593 11.2 14.2594 11.2 14.2594 11.2C14.2595 11.2 14.2595 11.2 14.2596 11.2C14.2596 11.2 14.2597 11.2 14.2597 11.2C14.2598 11.2 14.2598 11.2 14.2599 11.2C14.2599 11.2 14.26 11.2 14.26 11.2C14.2601 11.2 14.2601 11.2 14.2602 11.2C14.2602 11.2 14.2603 11.2 14.2603 11.2C14.2603 11.2 14.2604 11.2 14.2604 11.2C14.2605 11.2 14.2605 11.2 14.2606 11.2C14.2606 11.2 14.2607 11.2 14.2607 11.2C14.2608 11.2 14.2608 11.2 14.2609 11.2C14.2609 11.2 14.261 11.2 14.261 11.2C14.2611 11.2 14.2611 11.2 14.2612 11.2C14.2612 11.2 14.2613 11.2 14.2613 11.2C14.2613 11.2 14.2614 11.2 14.2614 11.2C14.2615 11.2 14.2615 11.2 14.2616 11.2C14.2616 11.2 14.2617 11.2 14.2617 11.2C14.2618 11.2 14.2618 11.2 14.2619 11.2C14.2619 11.2 14.262 11.2 14.262 11.2C14.2621 11.2 14.2621 11.2 14.2622 11.2C14.2622 11.2 14.2623 11.2 14.2623 11.2C14.2624 11.2 14.2624 11.2 14.2624 11.2C14.2625 11.2 14.2625 11.2 14.2626 11.2C14.2626 11.2 14.2627 11.2 14.2627 11.2C14.2628 11.2 14.2628 11.2 14.2629 11.2C14.2629 11.2 14.263 11.2 14.263 11.2C14.2631 11.2 14.2631 11.2 14.2632 11.2C14.2632 11.2 14.2633 11.2 14.2633 11.2C14.2634 11.2 14.2634 11.2 14.2635 11.2C14.2635 11.2 14.2635 11.2 14.2636 11.2C14.2636 11.2 14.2637 11.2 14.2637 11.2C14.2638 11.2 14.2638 11.2 14.2639 11.2C14.2639 11.2 14.264 11.2 14.264 11.2C14.2641 11.2 14.2641 11.2 14.2642 11.2C14.2642 11.2 14.2643 11.2 14.2643 11.2C14.2644 11.2 14.2644 11.2 14.2645 11.2C14.2645 11.2 14.2645 11.2 14.2646 11.2C14.2646 11.2 14.2647 11.2 14.2647 11.2C14.2648 11.2 14.2648 11.2 14.2649 11.2C14.2649 11.2 14.265 11.2 14.265 11.2C14.2651 11.2 14.2651 11.2 14.2652 11.2C14.2652 11.2 14.2653 11.2 14.2653 11.2C14.2654 11.2 14.2654 11.2 14.2655 11.2C14.2655 11.2 14.2656 11.2 14.2656 11.2C14.2656 11.2 14.2657 11.2 14.2657 11.2C14.2658 11.2 14.2658 11.2 14.2659 11.2C14.2659 11.2 14.266 11.2 14.266 11.2C14.2661 11.2 14.2661 11.2 14.2662 11.2C14.2662 11.2 14.2663 11.2 14.2663 11.2C14.2664 11.2 14.2664 11.2 14.2665 11.2C14.2665 11.2 14.2666 11.2 14.2666 11.2C14.2666 11.2 14.2667 11.2 14.2667 11.2C14.2668 11.2 14.2668 11.2 14.2669 11.2C14.2669 11.2 14.267 11.2 14.267 11.2C14.2671 11.2 14.2671 11.2 14.2672 11.2C14.2672 11.2 14.2673 11.2 14.2673 11.2C14.2674 11.2 14.2674 11.2 14.2675 11.2C14.2675 11.2 14.2676 11.2 14.2676 11.2C14.2677 11.2 14.2677 11.2 14.2677 11.2C14.2678 11.2 14.2678 11.2 14.2679 11.2C14.2679 11.2 14.268 11.2 14.268 11.2C14.2681 11.2 14.2681 11.2 14.2682 11.2C14.2682 11.2 14.2683 11.2 14.2683 11.2C14.2684 11.2 14.2684 11.2 14.2685 11.2C14.2685 11.2 14.2686 11.2 14.2686 11.2C14.2687 11.2 14.2687 11.2 14.2688 11.2C14.2688 11.2 14.2688 11.2 14.2689 11.2C14.2689 11.2 14.269 11.2 14.269 11.2C14.2691 11.2 14.2691 11.2 14.2692 11.2C14.2692 11.2 14.2693 11.2 14.2693 11.2C14.2694 11.2 14.2694 11.2 14.2695 11.2C14.2695 11.2 14.2696 11.2 14.2696 11.2C14.2697 11.2 14.2697 11.2 14.2698 11.2C14.2698 11.2 14.2698 11.2 14.2699 11.2C14.2699 11.2 14.27 11.2 14.27 11.2C14.2701 11.2 14.2701 11.2 14.2702 11.2C14.2702 11.2 14.2703 11.2 14.2703 11.2C14.2704 11.2 14.2704 11.2 14.2705 11.2C14.2705 11.2 14.2706 11.2 14.2706 11.2C14.2707 11.2 14.2707 11.2 14.2708 11.2C14.2708 11.2 14.2709 11.2 14.2709 11.2C14.2709 11.2 14.271 11.2 14.271 11.2C14.2711 11.2 14.2711 11.2 14.2712 11.2C14.2712 11.2 14.2713 11.2 14.2713 11.2C14.2714 11.2 14.2714 11.2 14.2715 11.2C14.2715 11.2 14.2716 11.2 14.2716 11.2C14.2717 11.2 14.2717 11.2 14.2718 11.2C14.2718 11.2 14.2719 11.2 14.2719 11.2C14.2719 11.2 14.272 11.2 14.272 11.2C14.2721 11.2 14.2721 11.2 14.2722 11.2C14.2722 11.2 14.2723 11.2 14.2723 11.2C14.2724 11.2 14.2724 11.2 14.2725 11.2C14.2725 11.2 14.2726 11.2 14.2726 11.2C14.2727 11.2 14.2727 11.2 14.2728 11.2C14.2728 11.2 14.2729 11.2 14.2729 11.2C14.273 11.2 14.273 11.2 14.273 11.2C14.2731 11.2 14.2731 11.2 14.2732 11.2C14.2732 11.2 14.2733 11.2 14.2733 11.2V10.8C14.2733 10.8 14.2732 10.8 14.2732 10.8C14.2731 10.8 14.2731 10.8 14.273 10.8C14.273 10.8 14.273 10.8 14.2729 10.8C14.2729 10.8 14.2728 10.8 14.2728 10.8C14.2727 10.8 14.2727 10.8 14.2726 10.8C14.2726 10.8 14.2725 10.8 14.2725 10.8C14.2724 10.8 14.2724 10.8 14.2723 10.8C14.2723 10.8 14.2722 10.8 14.2722 10.8C14.2721 10.8 14.2721 10.8 14.272 10.8C14.272 10.8 14.2719 10.8 14.2719 10.8C14.2719 10.8 14.2718 10.8 14.2718 10.8C14.2717 10.8 14.2717 10.8 14.2716 10.8C14.2716 10.8 14.2715 10.8 14.2715 10.8C14.2714 10.8 14.2714 10.8 14.2713 10.8C14.2713 10.8 14.2712 10.8 14.2712 10.8C14.2711 10.8 14.2711 10.8 14.271 10.8C14.271 10.8 14.2709 10.8 14.2709 10.8C14.2709 10.8 14.2708 10.8 14.2708 10.8C14.2707 10.8 14.2707 10.8 14.2706 10.8C14.2706 10.8 14.2705 10.8 14.2705 10.8C14.2704 10.8 14.2704 10.8 14.2703 10.8C14.2703 10.8 14.2702 10.8 14.2702 10.8C14.2701 10.8 14.2701 10.8 14.27 10.8C14.27 10.8 14.2699 10.8 14.2699 10.8C14.2698 10.8 14.2698 10.8 14.2698 10.8C14.2697 10.8 14.2697 10.8 14.2696 10.8C14.2696 10.8 14.2695 10.8 14.2695 10.8C14.2694 10.8 14.2694 10.8 14.2693 10.8C14.2693 10.8 14.2692 10.8 14.2692 10.8C14.2691 10.8 14.2691 10.8 14.269 10.8C14.269 10.8 14.2689 10.8 14.2689 10.8C14.2688 10.8 14.2688 10.8 14.2688 10.8C14.2687 10.8 14.2687 10.8 14.2686 10.8C14.2686 10.8 14.2685 10.8 14.2685 10.8C14.2684 10.8 14.2684 10.8 14.2683 10.8C14.2683 10.8 14.2682 10.8 14.2682 10.8C14.2681 10.8 14.2681 10.8 14.268 10.8C14.268 10.8 14.2679 10.8 14.2679 10.8C14.2678 10.8 14.2678 10.8 14.2677 10.8C14.2677 10.8 14.2677 10.8 14.2676 10.8C14.2676 10.8 14.2675 10.8 14.2675 10.8C14.2674 10.8 14.2674 10.8 14.2673 10.8C14.2673 10.8 14.2672 10.8 14.2672 10.8C14.2671 10.8 14.2671 10.8 14.267 10.8C14.267 10.8 14.2669 10.8 14.2669 10.8C14.2668 10.8 14.2668 10.8 14.2667 10.8C14.2667 10.8 14.2666 10.8 14.2666 10.8C14.2666 10.8 14.2665 10.8 14.2665 10.8C14.2664 10.8 14.2664 10.8 14.2663 10.8C14.2663 10.8 14.2662 10.8 14.2662 10.8C14.2661 10.8 14.2661 10.8 14.266 10.8C14.266 10.8 14.2659 10.8 14.2659 10.8C14.2658 10.8 14.2658 10.8 14.2657 10.8C14.2657 10.8 14.2656 10.8 14.2656 10.8C14.2656 10.8 14.2655 10.8 14.2655 10.8C14.2654 10.8 14.2654 10.8 14.2653 10.8C14.2653 10.8 14.2652 10.8 14.2652 10.8C14.2651 10.8 14.2651 10.8 14.265 10.8C14.265 10.8 14.2649 10.8 14.2649 10.8C14.2648 10.8 14.2648 10.8 14.2647 10.8C14.2647 10.8 14.2646 10.8 14.2646 10.8C14.2645 10.8 14.2645 10.8 14.2645 10.8C14.2644 10.8 14.2644 10.8 14.2643 10.8C14.2643 10.8 14.2642 10.8 14.2642 10.8C14.2641 10.8 14.2641 10.8 14.264 10.8C14.264 10.8 14.2639 10.8 14.2639 10.8C14.2638 10.8 14.2638 10.8 14.2637 10.8C14.2637 10.8 14.2636 10.8 14.2636 10.8C14.2635 10.8 14.2635 10.8 14.2635 10.8C14.2634 10.8 14.2634 10.8 14.2633 10.8C14.2633 10.8 14.2632 10.8 14.2632 10.8C14.2631 10.8 14.2631 10.8 14.263 10.8C14.263 10.8 14.2629 10.8 14.2629 10.8C14.2628 10.8 14.2628 10.8 14.2627 10.8C14.2627 10.8 14.2626 10.8 14.2626 10.8C14.2625 10.8 14.2625 10.8 14.2624 10.8C14.2624 10.8 14.2624 10.8 14.2623 10.8C14.2623 10.8 14.2622 10.8 14.2622 10.8C14.2621 10.8 14.2621 10.8 14.262 10.8C14.262 10.8 14.2619 10.8 14.2619 10.8C14.2618 10.8 14.2618 10.8 14.2617 10.8C14.2617 10.8 14.2616 10.8 14.2616 10.8C14.2615 10.8 14.2615 10.8 14.2614 10.8C14.2614 10.8 14.2613 10.8 14.2613 10.8C14.2613 10.8 14.2612 10.8 14.2612 10.8C14.2611 10.8 14.2611 10.8 14.261 10.8C14.261 10.8 14.2609 10.8 14.2609 10.8C14.2608 10.8 14.2608 10.8 14.2607 10.8C14.2607 10.8 14.2606 10.8 14.2606 10.8C14.2605 10.8 14.2605 10.8 14.2604 10.8C14.2604 10.8 14.2603 10.8 14.2603 10.8C14.2603 10.8 14.2602 10.8 14.2602 10.8C14.2601 10.8 14.2601 10.8 14.26 10.8C14.26 10.8 14.2599 10.8 14.2599 10.8C14.2598 10.8 14.2598 10.8 14.2597 10.8C14.2597 10.8 14.2596 10.8 14.2596 10.8C14.2595 10.8 14.2595 10.8 14.2594 10.8C14.2594 10.8 14.2593 10.8 14.2593 10.8C14.2592 10.8 14.2592 10.8 14.2592 10.8C14.2591 10.8 14.2591 10.8 14.259 10.8C14.259 10.8 14.2589 10.8 14.2589 10.8C14.2588 10.8 14.2588 10.8 14.2587 10.8C14.2587 10.8 14.2586 10.8 14.2586 10.8C14.2585 10.8 14.2585 10.8 14.2584 10.8C14.2584 10.8 14.2583 10.8 14.2583 10.8C14.2582 10.8 14.2582 10.8 14.2582 10.8C14.2581 10.8 14.2581 10.8 14.258 10.8C14.258 10.8 14.2579 10.8 14.2579 10.8C14.2578 10.8 14.2578 10.8 14.2577 10.8C14.2577 10.8 14.2576 10.8 14.2576 10.8C14.2575 10.8 14.2575 10.8 14.2574 10.8C14.2574 10.8 14.2573 10.8 14.2573 10.8C14.2572 10.8 14.2572 10.8 14.2571 10.8C14.2571 10.8 14.2571 10.8 14.257 10.8C14.257 10.8 14.2569 10.8 14.2569 10.8C14.2568 10.8 14.2568 10.8 14.2567 10.8C14.2567 10.8 14.2566 10.8 14.2566 10.8C14.2565 10.8 14.2565 10.8 14.2564 10.8C14.2564 10.8 14.2563 10.8 14.2563 10.8C14.2562 10.8 14.2562 10.8 14.2561 10.8C14.2561 10.8 14.2561 10.8 14.256 10.8C14.256 10.8 14.2559 10.8 14.2559 10.8C14.2558 10.8 14.2558 10.8 14.2557 10.8C14.2557 10.8 14.2556 10.8 14.2556 10.8C14.2555 10.8 14.2555 10.8 14.2554 10.8C14.2554 10.8 14.2553 10.8 14.2553 10.8C14.2552 10.8 14.2552 10.8 14.2551 10.8C14.2551 10.8 14.255 10.8 14.255 10.8C14.255 10.8 14.2549 10.8 14.2549 10.8C14.2548 10.8 14.2548 10.8 14.2547 10.8C14.2547 10.8 14.2546 10.8 14.2546 10.8C14.2545 10.8 14.2545 10.8 14.2544 10.8C14.2544 10.8 14.2543 10.8 14.2543 10.8C14.2542 10.8 14.2542 10.8 14.2541 10.8C14.2541 10.8 14.254 10.8 14.254 10.8C14.254 10.8 14.2539 10.8 14.2539 10.8C14.2538 10.8 14.2538 10.8 14.2537 10.8C14.2537 10.8 14.2536 10.8 14.2536 10.8C14.2535 10.8 14.2535 10.8 14.2534 10.8C14.2534 10.8 14.2533 10.8 14.2533 10.8C14.2532 10.8 14.2532 10.8 14.2531 10.8C14.2531 10.8 14.253 10.8 14.253 10.8C14.2529 10.8 14.2529 10.8 14.2529 10.8C14.2528 10.8 14.2528 10.8 14.2527 10.8C14.2527 10.8 14.2526 10.8 14.2526 10.8C14.2525 10.8 14.2525 10.8 14.2524 10.8C14.2524 10.8 14.2523 10.8 14.2523 10.8C14.2522 10.8 14.2522 10.8 14.2521 10.8C14.2521 10.8 14.252 10.8 14.252 10.8C14.2519 10.8 14.2519 10.8 14.2518 10.8C14.2518 10.8 14.2518 10.8 14.2517 10.8C14.2517 10.8 14.2516 10.8 14.2516 10.8C14.2515 10.8 14.2515 10.8 14.2514 10.8C14.2514 10.8 14.2513 10.8 14.2513 10.8C14.2512 10.8 14.2512 10.8 14.2511 10.8C14.2511 10.8 14.251 10.8 14.251 10.8C14.2509 10.8 14.2509 10.8 14.2508 10.8C14.2508 10.8 14.2508 10.8 14.2507 10.8C14.2507 10.8 14.2506 10.8 14.2506 10.8C14.2505 10.8 14.2505 10.8 14.2504 10.8C14.2504 10.8 14.2503 10.8 14.2503 10.8C14.2502 10.8 14.2502 10.8 14.2501 10.8C14.2501 10.8 14.25 10.8 14.25 10.8C14.2499 10.8 14.2499 10.8 14.2498 10.8C14.2498 10.8 14.2497 10.8 14.2497 10.8C14.2497 10.8 14.2496 10.8 14.2496 10.8C14.2495 10.8 14.2495 10.8 14.2494 10.8C14.2494 10.8 14.2493 10.8 14.2493 10.8C14.2492 10.8 14.2492 10.8 14.2491 10.8C14.2491 10.8 14.249 10.8 14.249 10.8C14.2489 10.8 14.2489 10.8 14.2488 10.8C14.2488 10.8 14.2487 10.8 14.2487 10.8C14.2487 10.8 14.2486 10.8 14.2486 10.8C14.2485 10.8 14.2485 10.8 14.2484 10.8C14.2484 10.8 14.2483 10.8 14.2483 10.8C14.2482 10.8 14.2482 10.8 14.2481 10.8C14.2481 10.8 14.248 10.8 14.248 10.8C14.2479 10.8 14.2479 10.8 14.2478 10.8C14.2478 10.8 14.2477 10.8 14.2477 10.8C14.2476 10.8 14.2476 10.8 14.2476 10.8C14.2475 10.8 14.2475 10.8 14.2474 10.8C14.2474 10.8 14.2473 10.8 14.2473 10.8C14.2472 10.8 14.2472 10.8 14.2471 10.8C14.2471 10.8 14.247 10.8 14.247 10.8C14.2469 10.8 14.2469 10.8 14.2468 10.8C14.2468 10.8 14.2467 10.8 14.2467 10.8C14.2466 10.8 14.2466 10.8 14.2465 10.8C14.2465 10.8 14.2465 10.8 14.2464 10.8C14.2464 10.8 14.2463 10.8 14.2463 10.8C14.2462 10.8 14.2462 10.8 14.2461 10.8C14.2461 10.8 14.246 10.8 14.246 10.8C14.2459 10.8 14.2459 10.8 14.2458 10.8C14.2458 10.8 14.2457 10.8 14.2457 10.8C14.2456 10.8 14.2456 10.8 14.2455 10.8C14.2455 10.8 14.2455 10.8 14.2454 10.8C14.2454 10.8 14.2453 10.8 14.2453 10.8C14.2452 10.8 14.2452 10.8 14.2451 10.8C14.2451 10.8 14.245 10.8 14.245 10.8C14.2449 10.8 14.2449 10.8 14.2448 10.8C14.2448 10.8 14.2447 10.8 14.2447 10.8C14.2446 10.8 14.2446 10.8 14.2445 10.8C14.2445 10.8 14.2444 10.8 14.2444 10.8C14.2444 10.8 14.2443 10.8 14.2443 10.8C14.2442 10.8 14.2442 10.8 14.2441 10.8C14.2441 10.8 14.244 10.8 14.244 10.8C14.2439 10.8 14.2439 10.8 14.2438 10.8C14.2438 10.8 14.2437 10.8 14.2437 10.8C14.2436 10.8 14.2436 10.8 14.2435 10.8C14.2435 10.8 14.2434 10.8 14.2434 10.8C14.2434 10.8 14.2433 10.8 14.2433 10.8C14.2432 10.8 14.2432 10.8 14.2431 10.8C14.2431 10.8 14.243 10.8 14.243 10.8C14.2429 10.8 14.2429 10.8 14.2428 10.8C14.2428 10.8 14.2427 10.8 14.2427 10.8C14.2426 10.8 14.2426 10.8 14.2425 10.8C14.2425 10.8 14.2424 10.8 14.2424 10.8C14.2423 10.8 14.2423 10.8 14.2423 10.8C14.2422 10.8 14.2422 10.8 14.2421 10.8C14.2421 10.8 14.242 10.8 14.242 10.8C14.2419 10.8 14.2419 10.8 14.2418 10.8C14.2418 10.8 14.2417 10.8 14.2417 10.8C14.2416 10.8 14.2416 10.8 14.2415 10.8C14.2415 10.8 14.2414 10.8 14.2414 10.8C14.2413 10.8 14.2413 10.8 14.2413 10.8C14.2412 10.8 14.2412 10.8 14.2411 10.8C14.2411 10.8 14.241 10.8 14.241 10.8C14.2409 10.8 14.2409 10.8 14.2408 10.8C14.2408 10.8 14.2407 10.8 14.2407 10.8C14.2406 10.8 14.2406 10.8 14.2405 10.8C14.2405 10.8 14.2404 10.8 14.2404 10.8C14.2403 10.8 14.2403 10.8 14.2402 10.8C14.2402 10.8 14.2402 10.8 14.2401 10.8C14.2401 10.8 14.24 10.8 14.24 10.8C14.2399 10.8 14.2399 10.8 14.2398 10.8C14.2398 10.8 14.2397 10.8 14.2397 10.8C14.2396 10.8 14.2396 10.8 14.2395 10.8C14.2395 10.8 14.2394 10.8 14.2394 10.8C14.2393 10.8 14.2393 10.8 14.2392 10.8C14.2392 10.8 14.2392 10.8 14.2391 10.8C14.2391 10.8 14.239 10.8 14.239 10.8C14.2389 10.8 14.2389 10.8 14.2388 10.8C14.2388 10.8 14.2387 10.8 14.2387 10.8C14.2386 10.8 14.2386 10.8 14.2385 10.8C14.2385 10.8 14.2384 10.8 14.2384 10.8C14.2383 10.8 14.2383 10.8 14.2382 10.8C14.2382 10.8 14.2381 10.8 14.2381 10.8C14.2381 10.8 14.238 10.8 14.238 10.8C14.2379 10.8 14.2379 10.8 14.2378 10.8C14.2378 10.8 14.2377 10.8 14.2377 10.8C14.2376 10.8 14.2376 10.8 14.2375 10.8C14.2375 10.8 14.2374 10.8 14.2374 10.8C14.2373 10.8 14.2373 10.8 14.2372 10.8C14.2372 10.8 14.2371 10.8 14.2371 10.8C14.237 10.8 14.237 10.8 14.237 10.8C14.2369 10.8 14.2369 10.8 14.2368 10.8C14.2368 10.8 14.2367 10.8 14.2367 10.8C14.2366 10.8 14.2366 10.8 14.2365 10.8C14.2365 10.8 14.2364 10.8 14.2364 10.8C14.2363 10.8 14.2363 10.8 14.2362 10.8C14.2362 10.8 14.2361 10.8 14.2361 10.8C14.236 10.8 14.236 10.8 14.236 10.8C14.2359 10.8 14.2359 10.8 14.2358 10.8C14.2358 10.8 14.2357 10.8 14.2357 10.8C14.2356 10.8 14.2356 10.8 14.2355 10.8C14.2355 10.8 14.2354 10.8 14.2354 10.8C14.2353 10.8 14.2353 10.8 14.2352 10.8C14.2352 10.8 14.2351 10.8 14.2351 10.8C14.235 10.8 14.235 10.8 14.2349 10.8C14.2349 10.8 14.2349 10.8 14.2348 10.8C14.2348 10.8 14.2347 10.8 14.2347 10.8C14.2346 10.8 14.2346 10.8 14.2345 10.8C14.2345 10.8 14.2344 10.8 14.2344 10.8C14.2343 10.8 14.2343 10.8 14.2342 10.8C14.2342 10.8 14.2341 10.8 14.2341 10.8C14.234 10.8 14.234 10.8 14.2339 10.8C14.2339 10.8 14.2339 10.8 14.2338 10.8C14.2338 10.8 14.2337 10.8 14.2337 10.8C14.2336 10.8 14.2336 10.8 14.2335 10.8C14.2335 10.8 14.2334 10.8 14.2334 10.8C14.2333 10.8 14.2333 10.8 14.2332 10.8C14.2332 10.8 14.2331 10.8 14.2331 10.8C14.233 10.8 14.233 10.8 14.2329 10.8C14.2329 10.8 14.2328 10.8 14.2328 10.8C14.2328 10.8 14.2327 10.8 14.2327 10.8C14.2326 10.8 14.2326 10.8 14.2325 10.8C14.2325 10.8 14.2324 10.8 14.2324 10.8C14.2323 10.8 14.2323 10.8 14.2322 10.8C14.2322 10.8 14.2321 10.8 14.2321 10.8C14.232 10.8 14.232 10.8 14.2319 10.8C14.2319 10.8 14.2318 10.8 14.2318 10.8C14.2317 10.8 14.2317 10.8 14.2317 10.8C14.2316 10.8 14.2316 10.8 14.2315 10.8C14.2315 10.8 14.2314 10.8 14.2314 10.8C14.2313 10.8 14.2313 10.8 14.2312 10.8C14.2312 10.8 14.2311 10.8 14.2311 10.8C14.231 10.8 14.231 10.8 14.2309 10.8C14.2309 10.8 14.2308 10.8 14.2308 10.8C14.2307 10.8 14.2307 10.8 14.2307 10.8C14.2306 10.8 14.2306 10.8 14.2305 10.8C14.2305 10.8 14.2304 10.8 14.2304 10.8C14.2303 10.8 14.2303 10.8 14.2302 10.8C14.2302 10.8 14.2301 10.8 14.2301 10.8C14.23 10.8 14.23 10.8 14.2299 10.8C14.2299 10.8 14.2298 10.8 14.2298 10.8C14.2297 10.8 14.2297 10.8 14.2296 10.8C14.2296 10.8 14.2296 10.8 14.2295 10.8C14.2295 10.8 14.2294 10.8 14.2294 10.8C14.2293 10.8 14.2293 10.8 14.2292 10.8C14.2292 10.8 14.2291 10.8 14.2291 10.8C14.229 10.8 14.229 10.8 14.2289 10.8C14.2289 10.8 14.2288 10.8 14.2288 10.8C14.2287 10.8 14.2287 10.8 14.2286 10.8C14.2286 10.8 14.2286 10.8 14.2285 10.8C14.2285 10.8 14.2284 10.8 14.2284 10.8C14.2283 10.8 14.2283 10.8 14.2282 10.8C14.2282 10.8 14.2281 10.8 14.2281 10.8C14.228 10.8 14.228 10.8 14.2279 10.8C14.2279 10.8 14.2278 10.8 14.2278 10.8C14.2277 10.8 14.2277 10.8 14.2276 10.8C14.2276 10.8 14.2275 10.8 14.2275 10.8C14.2275 10.8 14.2274 10.8 14.2274 10.8C14.2273 10.8 14.2273 10.8 14.2272 10.8C14.2272 10.8 14.2271 10.8 14.2271 10.8C14.227 10.8 14.227 10.8 14.2269 10.8C14.2269 10.8 14.2268 10.8 14.2268 10.8C14.2267 10.8 14.2267 10.8 14.2266 10.8C14.2266 10.8 14.2265 10.8 14.2265 10.8C14.2264 10.8 14.2264 10.8 14.2264 10.8C14.2263 10.8 14.2263 10.8 14.2262 10.8C14.2262 10.8 14.2261 10.8 14.2261 10.8C14.226 10.8 14.226 10.8 14.2259 10.8C14.2259 10.8 14.2258 10.8 14.2258 10.8C14.2257 10.8 14.2257 10.8 14.2256 10.8C14.2256 10.8 14.2255 10.8 14.2255 10.8C14.2254 10.8 14.2254 10.8 14.2254 10.8C14.2253 10.8 14.2253 10.8 14.2252 10.8C14.2252 10.8 14.2251 10.8 14.2251 10.8C14.225 10.8 14.225 10.8 14.2249 10.8C14.2249 10.8 14.2248 10.8 14.2248 10.8C14.2247 10.8 14.2247 10.8 14.2246 10.8C14.2246 10.8 14.2245 10.8 14.2245 10.8C14.2244 10.8 14.2244 10.8 14.2243 10.8C14.2243 10.8 14.2243 10.8 14.2242 10.8C14.2242 10.8 14.2241 10.8 14.2241 10.8C14.224 10.8 14.224 10.8 14.2239 10.8C14.2239 10.8 14.2238 10.8 14.2238 10.8C14.2237 10.8 14.2237 10.8 14.2236 10.8C14.2236 10.8 14.2235 10.8 14.2235 10.8C14.2234 10.8 14.2234 10.8 14.2233 10.8C14.2233 10.8 14.2233 10.8 14.2232 10.8C14.2232 10.8 14.2231 10.8 14.2231 10.8C14.223 10.8 14.223 10.8 14.2229 10.8C14.2229 10.8 14.2228 10.8 14.2228 10.8C14.2227 10.8 14.2227 10.8 14.2226 10.8C14.2226 10.8 14.2225 10.8 14.2225 10.8C14.2224 10.8 14.2224 10.8 14.2223 10.8C14.2223 10.8 14.2222 10.8 14.2222 10.8C14.2222 10.8 14.2221 10.8 14.2221 10.8C14.222 10.8 14.222 10.8 14.2219 10.8C14.2219 10.8 14.2218 10.8 14.2218 10.8C14.2217 10.8 14.2217 10.8 14.2216 10.8C14.2216 10.8 14.2215 10.8 14.2215 10.8C14.2214 10.8 14.2214 10.8 14.2213 10.8C14.2213 10.8 14.2212 10.8 14.2212 10.8C14.2212 10.8 14.2211 10.8 14.2211 10.8C14.221 10.8 14.221 10.8 14.2209 10.8C14.2209 10.8 14.2208 10.8 14.2208 10.8C14.2207 10.8 14.2207 10.8 14.2206 10.8C14.2206 10.8 14.2205 10.8 14.2205 10.8C14.2204 10.8 14.2204 10.8 14.2203 10.8C14.2203 10.8 14.2202 10.8 14.2202 10.8C14.2201 10.8 14.2201 10.8 14.2201 10.8C14.22 10.8 14.22 10.8 14.2199 10.8C14.2199 10.8 14.2198 10.8 14.2198 10.8C14.2197 10.8 14.2197 10.8 14.2196 10.8C14.2196 10.8 14.2195 10.8 14.2195 10.8C14.2194 10.8 14.2194 10.8 14.2193 10.8C14.2193 10.8 14.2192 10.8 14.2192 10.8C14.2191 10.8 14.2191 10.8 14.2191 10.8C14.219 10.8 14.219 10.8 14.2189 10.8C14.2189 10.8 14.2188 10.8 14.2188 10.8C14.2187 10.8 14.2187 10.8 14.2186 10.8C14.2186 10.8 14.2185 10.8 14.2185 10.8C14.2184 10.8 14.2184 10.8 14.2183 10.8C14.2183 10.8 14.2182 10.8 14.2182 10.8C14.2181 10.8 14.2181 10.8 14.218 10.8C14.218 10.8 14.218 10.8 14.2179 10.8C14.2179 10.8 14.2178 10.8 14.2178 10.8C14.2177 10.8 14.2177 10.8 14.2176 10.8C14.2176 10.8 14.2175 10.8 14.2175 10.8C14.2174 10.8 14.2174 10.8 14.2173 10.8C14.2173 10.8 14.2172 10.8 14.2172 10.8C14.2171 10.8 14.2171 10.8 14.217 10.8C14.217 10.8 14.2169 10.8 14.2169 10.8C14.2169 10.8 14.2168 10.8 14.2168 10.8C14.2167 10.8 14.2167 10.8 14.2166 10.8C14.2166 10.8 14.2165 10.8 14.2165 10.8C14.2164 10.8 14.2164 10.8 14.2163 10.8C14.2163 10.8 14.2162 10.8 14.2162 10.8C14.2161 10.8 14.2161 10.8 14.216 10.8C14.216 10.8 14.2159 10.8 14.2159 10.8C14.2159 10.8 14.2158 10.8 14.2158 10.8C14.2157 10.8 14.2157 10.8 14.2156 10.8C14.2156 10.8 14.2155 10.8 14.2155 10.8C14.2154 10.8 14.2154 10.8 14.2153 10.8C14.2153 10.8 14.2152 10.8 14.2152 10.8C14.2151 10.8 14.2151 10.8 14.215 10.8C14.215 10.8 14.2149 10.8 14.2149 10.8C14.2148 10.8 14.2148 10.8 14.2148 10.8C14.2147 10.8 14.2147 10.8 14.2146 10.8C14.2146 10.8 14.2145 10.8 14.2145 10.8C14.2144 10.8 14.2144 10.8 14.2143 10.8C14.2143 10.8 14.2142 10.8 14.2142 10.8C14.2141 10.8 14.2141 10.8 14.214 10.8C14.214 10.8 14.2139 10.8 14.2139 10.8C14.2138 10.8 14.2138 10.8 14.2138 10.8C14.2137 10.8 14.2137 10.8 14.2136 10.8C14.2136 10.8 14.2135 10.8 14.2135 10.8C14.2134 10.8 14.2134 10.8 14.2133 10.8C14.2133 10.8 14.2132 10.8 14.2132 10.8C14.2131 10.8 14.2131 10.8 14.213 10.8C14.213 10.8 14.2129 10.8 14.2129 10.8C14.2128 10.8 14.2128 10.8 14.2127 10.8C14.2127 10.8 14.2127 10.8 14.2126 10.8C14.2126 10.8 14.2125 10.8 14.2125 10.8C14.2124 10.8 14.2124 10.8 14.2123 10.8C14.2123 10.8 14.2122 10.8 14.2122 10.8C14.2121 10.8 14.2121 10.8 14.212 10.8C14.212 10.8 14.2119 10.8 14.2119 10.8C14.2118 10.8 14.2118 10.8 14.2117 10.8C14.2117 10.8 14.2116 10.8 14.2116 10.8C14.2116 10.8 14.2115 10.8 14.2115 10.8C14.2114 10.8 14.2114 10.8 14.2113 10.8C14.2113 10.8 14.2112 10.8 14.2112 10.8C14.2111 10.8 14.2111 10.8 14.211 10.8C14.211 10.8 14.2109 10.8 14.2109 10.8C14.2108 10.8 14.2108 10.8 14.2107 10.8C14.2107 10.8 14.2106 10.8 14.2106 10.8C14.2106 10.8 14.2105 10.8 14.2105 10.8C14.2104 10.8 14.2104 10.8 14.2103 10.8C14.2103 10.8 14.2102 10.8 14.2102 10.8C14.2101 10.8 14.2101 10.8 14.21 10.8C14.21 10.8 14.2099 10.8 14.2099 10.8C14.2098 10.8 14.2098 10.8 14.2097 10.8C14.2097 10.8 14.2096 10.8 14.2096 10.8C14.2095 10.8 14.2095 10.8 14.2095 10.8C14.2094 10.8 14.2094 10.8 14.2093 10.8C14.2093 10.8 14.2092 10.8 14.2092 10.8C14.2091 10.8 14.2091 10.8 14.209 10.8C14.209 10.8 14.2089 10.8 14.2089 10.8C14.2088 10.8 14.2088 10.8 14.2087 10.8C14.2087 10.8 14.2086 10.8 14.2086 10.8C14.2085 10.8 14.2085 10.8 14.2085 10.8C14.2084 10.8 14.2084 10.8 14.2083 10.8C14.2083 10.8 14.2082 10.8 14.2082 10.8C14.2081 10.8 14.2081 10.8 14.208 10.8C14.208 10.8 14.2079 10.8 14.2079 10.8C14.2078 10.8 14.2078 10.8 14.2077 10.8C14.2077 10.8 14.2076 10.8 14.2076 10.8C14.2075 10.8 14.2075 10.8 14.2074 10.8C14.2074 10.8 14.2074 10.8 14.2073 10.8C14.2073 10.8 14.2072 10.8 14.2072 10.8C14.2071 10.8 14.2071 10.8 14.207 10.8C14.207 10.8 14.2069 10.8 14.2069 10.8C14.2068 10.8 14.2068 10.8 14.2067 10.8C14.2067 10.8 14.2066 10.8 14.2066 10.8C14.2065 10.8 14.2065 10.8 14.2064 10.8C14.2064 10.8 14.2064 10.8 14.2063 10.8C14.2063 10.8 14.2062 10.8 14.2062 10.8C14.2061 10.8 14.2061 10.8 14.206 10.8C14.206 10.8 14.2059 10.8 14.2059 10.8C14.2058 10.8 14.2058 10.8 14.2057 10.8C14.2057 10.8 14.2056 10.8 14.2056 10.8C14.2055 10.8 14.2055 10.8 14.2054 10.8C14.2054 10.8 14.2053 10.8 14.2053 10.8C14.2053 10.8 14.2052 10.8 14.2052 10.8C14.2051 10.8 14.2051 10.8 14.205 10.8C14.205 10.8 14.2049 10.8 14.2049 10.8C14.2048 10.8 14.2048 10.8 14.2047 10.8C14.2047 10.8 14.2046 10.8 14.2046 10.8C14.2045 10.8 14.2045 10.8 14.2044 10.8C14.2044 10.8 14.2043 10.8 14.2043 10.8C14.2043 10.8 14.2042 10.8 14.2042 10.8C14.2041 10.8 14.2041 10.8 14.204 10.8C14.204 10.8 14.2039 10.8 14.2039 10.8C14.2038 10.8 14.2038 10.8 14.2037 10.8C14.2037 10.8 14.2036 10.8 14.2036 10.8C14.2035 10.8 14.2035 10.8 14.2034 10.8C14.2034 10.8 14.2033 10.8 14.2033 10.8C14.2032 10.8 14.2032 10.8 14.2032 10.8C14.2031 10.8 14.2031 10.8 14.203 10.8C14.203 10.8 14.2029 10.8 14.2029 10.8C14.2028 10.8 14.2028 10.8 14.2027 10.8C14.2027 10.8 14.2026 10.8 14.2026 10.8C14.2025 10.8 14.2025 10.8 14.2024 10.8C14.2024 10.8 14.2023 10.8 14.2023 10.8C14.2022 10.8 14.2022 10.8 14.2021 10.8C14.2021 10.8 14.2021 10.8 14.202 10.8C14.202 10.8 14.2019 10.8 14.2019 10.8C14.2018 10.8 14.2018 10.8 14.2017 10.8C14.2017 10.8 14.2016 10.8 14.2016 10.8C14.2015 10.8 14.2015 10.8 14.2014 10.8C14.2014 10.8 14.2013 10.8 14.2013 10.8C14.2012 10.8 14.2012 10.8 14.2011 10.8C14.2011 10.8 14.2011 10.8 14.201 10.8C14.201 10.8 14.2009 10.8 14.2009 10.8C14.2008 10.8 14.2008 10.8 14.2007 10.8C14.2007 10.8 14.2006 10.8 14.2006 10.8C14.2005 10.8 14.2005 10.8 14.2004 10.8C14.2004 10.8 14.2003 10.8 14.2003 10.8C14.2002 10.8 14.2002 10.8 14.2001 10.8C14.2001 10.8 14.2 10.8 14.2 10.8V11.2ZM14.2733 11.2H15.6667V10.8H14.2733V11.2ZM7.02216 16.2C7.29207 16.2 7.55853 16.2607 7.80181 16.3776L7.97507 16.0171C7.67773 15.8742 7.35205 15.8 7.02216 15.8V16.2Z" fill="#5D5FEF" mask="url(#path-1-outside-1_301_4006)"/>
</svg>
