<svg width="24" height="24" viewBox="0 0 24 24" fill="none" xmlns="http://www.w3.org/2000/svg">
<path d="M8.84109 12.4599L8.8414 12.4592L8.83005 12.4553L8.82369 12.4532C8.75479 12.4297 8.66789 12.4 8.57778 12.4H2.71111C1.70044 12.4 0.9 13.2219 0.9 14.25C0.9 15.2781 1.70044 16.1 2.71111 16.1H7.02216C7.30707 16.1 7.58833 16.1641 7.84513 16.2875L11.4922 18.0401L11.4919 18.0408L11.5033 18.0447L11.5048 18.0452C11.5404 18.0573 11.5793 18.0706 11.6156 18.0807C11.6511 18.0906 11.6925 18.1 11.7311 18.1H21.2644C22.2746 18.1 23.0748 17.2789 23.0756 16.2514C23.0999 15.3555 22.4707 14.6084 21.6333 14.441V11.059C22.4715 10.8915 23.1 10.1442 23.1 9.25C23.1 8.2219 22.2996 7.4 21.2889 7.4H15.6667C15.1862 7.4 14.7889 6.9969 14.7889 6.5C14.7889 6.1719 14.5262 5.9 14.2 5.9C13.4881 5.9 12.8253 6.1864 12.3415 6.73284C11.8591 7.25265 11.6052 7.954 11.6557 8.68107C11.7059 9.64858 12.2914 10.4402 13.1222 10.8388V14.4H12.8783L8.84109 12.4599ZM7.86331 14.9599L7.86363 14.9592L7.85227 14.9553L7.84591 14.9532C7.77701 14.9297 7.69012 14.9 7.6 14.9H2.71111C2.35502 14.9 2.07778 14.5991 2.07778 14.25C2.07778 13.8781 2.35289 13.6 2.71111 13.6H7.99994C8.28485 13.6 8.56611 13.6641 8.8229 13.7875L12.47 15.5401L12.4697 15.5408L12.4811 15.5447L12.4825 15.5451C12.5181 15.5573 12.5571 15.5706 12.5934 15.5807C12.6289 15.5906 12.6703 15.6 12.7089 15.6L21.2644 15.6C21.6227 15.6 21.8978 15.8781 21.8978 16.25H21.8976L21.898 16.2561C21.9189 16.5993 21.6461 16.9 21.2889 16.9H12.3334C12.0485 16.9 11.7672 16.8359 11.5104 16.7125L7.86331 14.9599ZM12.8332 8.59399C12.8104 8.19676 12.9471 7.82354 13.1975 7.54335C13.358 7.37947 13.5326 7.2541 13.7208 7.1785C14.0045 7.99155 14.7504 8.6 15.6667 8.6L21.2889 8.6C21.6471 8.6 21.9222 8.8781 21.9222 9.25C21.9222 9.5991 21.645 9.9 21.2889 9.9L14.2733 9.9C13.5167 9.9 12.8787 9.31339 12.8332 8.59399ZM20.4556 11.1V14.4H19.1889V11.1H20.4556ZM18.0111 11.1V14.4L16.7444 14.4V11.1H18.0111ZM15.5667 11.1V14.4H14.3V11.1H15.5667Z" fill="#5D5FEF" stroke="#5D5FEF" stroke-width="0.2"/>
</svg>
