<svg width="30" height="43" viewBox="0 0 30 43" fill="none" xmlns="http://www.w3.org/2000/svg">
<path fill-rule="evenodd" clip-rule="evenodd" d="M29.0413 17.8559C29.0413 23.1232 27.8376 27.0488 25.4314 29.6068C23.0246 32.1642 19.3064 33.443 14.2938 33.443C9.61026 33.443 6.05722 32.1642 3.63469 29.6068C1.21096 27.0494 0.000602722 23.1921 0.000602722 18.0356V0.734924C0.00108185 0.540157 0.0786649 0.353505 0.216386 0.215783C0.354107 0.0780622 0.54076 0.000479133 0.735526 0L9.22798 0C9.42264 0.000796201 9.60911 0.0784811 9.74677 0.216134C9.88442 0.353786 9.9621 0.540255 9.9629 0.734924V18.4136C9.9629 20.5192 10.3524 22.1396 11.1454 23.2829C11.7389 24.0698 12.5853 24.6285 13.5422 24.865C14.4991 25.1015 15.5082 25.0014 16.4 24.5815C16.9912 24.3034 17.5111 23.894 17.92 23.3845C18.6955 22.312 19.0814 20.7315 19.079 18.6423V15.3318H29.0413V17.8559V17.8559Z" fill="white"/>
<path fill-rule="evenodd" clip-rule="evenodd" d="M28.2719 13.398H19.0802V0.770006C19.0807 0.565935 19.1619 0.370359 19.3062 0.226059C19.4505 0.0817585 19.6461 0.000479229 19.8502 0L21.2263 0C21.2279 2.07076 22.0518 4.05611 23.5169 5.51949C24.9823 6.98333 26.9688 7.80568 29.0401 7.80592H29.0425V13.398H28.2719V13.398Z" fill="white"/>
<path fill-rule="evenodd" clip-rule="evenodd" d="M23.1837 0H28.2725C28.4765 0.000638072 28.672 0.0819684 28.8163 0.226235C28.9605 0.370501 29.0418 0.565984 29.0425 0.770006V5.86306C27.489 5.86274 25.9993 5.24562 24.9007 4.14733C23.802 3.04905 23.1845 1.55949 23.1837 0.00604875V0Z" fill="#F4821F"/>
<path fill-rule="evenodd" clip-rule="evenodd" d="M1.66885 41.8453C2.79331 41.8453 3.33589 41.2198 3.33589 40.301V38.0866H2.5314V40.2787C2.5314 40.5085 2.44008 40.729 2.27753 40.8916C2.11497 41.0541 1.8945 41.1454 1.66462 41.1454C1.43473 41.1454 1.21426 41.0541 1.05171 40.8916C0.889152 40.729 0.79783 40.5085 0.79783 40.2787V38.0866H0V40.3077C0 41.215 0.542573 41.8465 1.66704 41.8465L1.66885 41.8453ZM8.19183 41.7787V41.0874H6.40865L8.15372 38.7163V38.0848H5.37855V38.7767H7.12362L5.37855 41.1412V41.7763L8.19183 41.7787ZM11.9511 41.8453C12.2676 41.8525 12.5798 41.7713 12.8526 41.611C13.1255 41.4506 13.3483 41.2173 13.496 40.9374L12.8185 40.6107C12.7361 40.7709 12.6115 40.9055 12.4582 41.0001C12.305 41.0948 12.1288 41.1459 11.9487 41.1479C11.7167 41.1361 11.4929 41.0581 11.3038 40.9231C11.1148 40.788 10.9685 40.6016 10.8822 40.3858C10.7959 40.1701 10.7733 39.9342 10.8171 39.706C10.8609 39.4779 10.9691 39.267 11.1291 39.0985C11.3438 38.8729 11.6372 38.738 11.9487 38.7229C12.1285 38.726 12.3041 38.7775 12.4572 38.8719C12.6102 38.9663 12.735 39.1002 12.8185 39.2594L13.496 38.9268C13.3485 38.6471 13.1256 38.4144 12.8525 38.2551C12.5794 38.0958 12.2671 38.0162 11.9511 38.0255C11.6311 38.0162 11.3139 38.0873 11.0286 38.2325C10.7433 38.3776 10.499 38.5921 10.318 38.8562C10.1371 39.1203 10.0254 39.4256 9.99319 39.7441C9.96094 40.0626 10.0092 40.3841 10.1335 40.6791C10.2834 41.0342 10.5373 41.3356 10.8617 41.5437C11.1861 41.7518 11.5659 41.857 11.9511 41.8453ZM18.8225 41.7787L17.3992 38.0866H16.4133L14.984 41.7787H15.8816L16.1139 41.1533H17.6987L17.9255 41.7787H18.8225V41.7787ZM17.4821 40.4613H16.3298L16.9063 38.8723L17.4821 40.4613ZM24.1321 42.7054L22.7772 40.3736C23.0193 40.3152 23.2331 40.1733 23.3809 39.9728C23.5287 39.7723 23.6011 39.5262 23.5853 39.2776C23.5915 39.1153 23.5633 38.9536 23.5025 38.803C23.4417 38.6524 23.3497 38.5164 23.2326 38.404C23.1154 38.2915 22.9758 38.2051 22.8229 38.1505C22.6699 38.0959 22.5072 38.0743 22.3453 38.0872H20.6154V41.78H21.4017V40.4674H21.9781L23.2284 42.7048L24.1315 42.7054H24.1321ZM22.2286 39.776H21.4035V38.7798H22.2261C22.2964 38.7716 22.3676 38.7785 22.435 38.7998C22.5024 38.8211 22.5646 38.8564 22.6174 38.9035C22.6702 38.9505 22.7124 39.0082 22.7414 39.0727C22.7703 39.1373 22.7852 39.2072 22.7852 39.2779C22.7852 39.3486 22.7703 39.4185 22.7414 39.483C22.7124 39.5476 22.6702 39.6053 22.6174 39.6523C22.5646 39.6993 22.5024 39.7347 22.435 39.756C22.3676 39.7773 22.2964 39.7841 22.2261 39.776H22.2286ZM27.0839 41.78C28.2416 41.78 29.0449 41.0493 29.0449 39.9363C29.0449 38.8233 28.2398 38.0872 27.0839 38.0872H25.6274V41.78H27.0839ZM27.0839 41.088H26.4137V38.7798H27.0839C27.2387 38.7684 27.3942 38.7906 27.5397 38.8446C27.6853 38.8987 27.8174 38.9835 27.9273 39.0933C28.0371 39.203 28.122 39.3351 28.1763 39.4805C28.2305 39.626 28.2528 39.7814 28.2416 39.9363C28.2484 40.09 28.223 40.2435 28.167 40.3868C28.1109 40.5302 28.0256 40.6602 27.9163 40.7686C27.8071 40.877 27.6764 40.9613 27.5326 41.0162C27.3888 41.0711 27.2352 41.0954 27.0815 41.0874L27.0839 41.088V41.088ZM30 38.0164V38.0261C30 38.162 29.9597 38.2948 29.8842 38.4078C29.8088 38.5208 29.7015 38.6088 29.576 38.6609C29.4504 38.7129 29.3123 38.7265 29.179 38.7001C29.0458 38.6736 28.9233 38.6082 28.8272 38.5122C28.7311 38.4162 28.6656 38.2938 28.639 38.1605C28.6124 38.0273 28.6259 37.8891 28.6779 37.7636C28.7298 37.638 28.8177 37.5306 28.9307 37.4551C29.0436 37.3795 29.1764 37.3391 29.3123 37.339H29.9994V38.0164H30Z" fill="white"/>
</svg>
