<svg width="60" height="60" viewBox="0 0 60 60" fill="none" xmlns="http://www.w3.org/2000/svg">
<g clip-path="url(#clip0_866_6934)">
<path d="M44.8769 27.5667L41.9791 28.3432L43.5321 34.1388L37.7365 35.6917L38.513 38.5895L44.3085 37.0365L45.8614 42.8321L48.7592 42.0556L47.2063 36.2601L53.0019 34.7072L52.2254 31.8094L46.4298 33.3623L44.8769 27.5667Z" fill="#5D5FEF"/>
<path d="M43.1164 9.40366L25.7298 14.0624L8.34309 18.7211C8.00474 18.8118 7.67945 18.8989 7.37692 18.98C6.30999 19.2659 5.67707 20.3625 5.96295 21.4294L12.4334 45.5776C12.8605 47.1714 14.5139 48.126 16.1077 47.6989L36.3921 42.2637L35.6157 39.366L15.3312 44.8011L9.11956 21.6189L19.5516 18.8237L25.3471 17.2708L43.8929 12.3014L46.9987 23.8926L49.8965 23.1161L46.7907 11.525C46.3636 9.93121 44.7102 8.97661 43.1164 9.40366Z" fill="#5D5FEF"/>
<rect x="9.89453" y="24.5166" width="36" height="3" transform="rotate(-15 9.89453 24.5166)" fill="#5D5FEF"/>
<rect x="16.6758" y="38.229" width="10.5" height="3" transform="rotate(-15 16.6758 38.229)" fill="#5D5FEF"/>
</g>
<defs>
<clipPath id="clip0_866_6934">
<rect width="48" height="48" fill="white" transform="translate(0.605469 13.0295) rotate(-15)"/>
</clipPath>
</defs>
</svg>
