<svg width="16" height="16" viewBox="0 0 16 16" fill="none" xmlns="http://www.w3.org/2000/svg">
<mask id="path-1-inside-1_235_8975" fill="white">
<path d="M12 6.5H11C10.9996 6.10231 10.8414 5.72103 10.5602 5.43982C10.279 5.15861 9.89769 5.00044 9.5 5V4C10.1628 4.00075 10.7983 4.26439 11.2669 4.73307C11.7356 5.20174 11.9992 5.83719 12 6.5Z"/>
</mask>
<path d="M12 6.5H11C10.9996 6.10231 10.8414 5.72103 10.5602 5.43982C10.279 5.15861 9.89769 5.00044 9.5 5V4C10.1628 4.00075 10.7983 4.26439 11.2669 4.73307C11.7356 5.20174 11.9992 5.83719 12 6.5Z" fill="white"/>
<path d="M11 6.5L10 6.5011L10.0011 7.5H11V6.5ZM9.5 5H8.5V5.9989L9.4989 6L9.5 5ZM9.5 4L9.50114 3L8.5 2.99886V4H9.5ZM12 5.5H11V7.5H12V5.5ZM12 6.4989C11.9993 5.83638 11.7358 5.20119 11.2673 4.73272L9.85307 6.14693C9.94701 6.24087 9.99985 6.36824 10 6.5011L12 6.4989ZM11.2673 4.73272C10.7988 4.26424 10.1636 4.00073 9.5011 4L9.4989 6C9.63176 6.00015 9.75913 6.05299 9.85307 6.14693L11.2673 4.73272ZM10.5 5V4H8.5V5H10.5ZM9.49886 5C9.89685 5.00045 10.2784 5.15875 10.5598 5.44017L11.974 4.02596C11.3181 3.37002 10.4288 3.00106 9.50114 3L9.49886 5ZM10.5598 5.44017C10.8412 5.72159 10.9995 6.10315 11 6.50114L13 6.49886C12.9989 5.57123 12.63 4.68189 11.974 4.02596L10.5598 5.44017Z" fill="#000" mask="url(#path-1-inside-1_235_8975)"/>
<mask id="path-3-inside-2_235_8975" fill="white">
<path d="M14 6.5H13C12.999 5.57206 12.6299 4.68242 11.9737 4.02627C11.3176 3.37011 10.4279 3.00103 9.5 3V2C10.6931 2.00132 11.8369 2.47585 12.6805 3.31948C13.5241 4.16311 13.9987 5.30693 14 6.5Z"/>
</mask>
<path d="M14 6.5H13C12.999 5.57206 12.6299 4.68242 11.9737 4.02627C11.3176 3.37011 10.4279 3.00103 9.5 3V2C10.6931 2.00132 11.8369 2.47585 12.6805 3.31948C13.5241 4.16311 13.9987 5.30693 14 6.5Z" fill="white"/>
<path d="M13 6.5L12 6.50111L12.0011 7.5H13V6.5ZM9.5 3H8.5V3.99889L9.49889 4L9.5 3ZM9.5 2L9.50111 1L8.5 0.99889V2H9.5ZM14 5.5H13V7.5H14V5.5ZM14 6.49889C13.9987 5.30612 13.5243 4.16258 12.6808 3.31916L11.2666 4.73337C11.7355 5.20226 11.9993 5.838 12 6.50111L14 6.49889ZM12.6808 3.31916C11.8374 2.47574 10.6939 2.00133 9.50111 2L9.49889 4C10.162 4.00074 10.7977 4.26448 11.2666 4.73337L12.6808 3.31916ZM10.5 3V2H8.5V3H10.5ZM9.49889 3C10.4271 3.00103 11.317 3.37023 11.9734 4.02659L13.3876 2.61237C12.3567 1.58148 10.959 1.00162 9.50111 1L9.49889 3ZM11.9734 4.02659C12.6298 4.68295 12.999 5.57287 13 6.50111L15 6.49889C14.9984 5.04099 14.4185 3.64327 13.3876 2.61237L11.9734 4.02659Z" fill="#000" mask="url(#path-3-inside-2_235_8975)"/>
<path d="M13.0005 14.5H12.9155C3.09051 13.935 1.69551 5.645 1.50051 3.115C1.48541 2.9186 1.50914 2.72114 1.57034 2.5339C1.63155 2.34667 1.72904 2.17332 1.85724 2.02376C1.98544 1.87421 2.14184 1.75136 2.31752 1.66225C2.4932 1.57314 2.6847 1.5195 2.88111 1.5044C2.92071 1.50147 2.96051 1.5 3.00051 1.5H5.63551C5.83579 1.49981 6.03151 1.55976 6.19733 1.67208C6.36314 1.78441 6.49141 1.94394 6.56551 2.13L7.32551 4C7.39869 4.18177 7.41685 4.38104 7.37773 4.57305C7.33862 4.76505 7.24396 4.94134 7.10551 5.08L6.04051 6.155C6.20619 7.10066 6.6587 7.97249 7.33668 8.65226C8.01465 9.33202 8.88529 9.78683 9.83051 9.955L10.9155 8.88C11.0563 8.74308 11.2342 8.65063 11.4272 8.61417C11.6201 8.57771 11.8195 8.59887 12.0005 8.675L13.8855 9.43C14.0688 9.50644 14.2251 9.63571 14.3347 9.80134C14.4442 9.96696 14.5019 10.1614 14.5005 10.36V13C14.5005 13.3978 14.3425 13.7794 14.0612 14.0607C13.7799 14.342 13.3983 14.5 13.0005 14.5ZM3.00051 2.5C2.93485 2.49979 2.86979 2.51251 2.80905 2.53745C2.7483 2.56238 2.69307 2.59903 2.64649 2.64531C2.59991 2.6916 2.5629 2.7466 2.53758 2.80718C2.51226 2.86776 2.49912 2.93274 2.49891 2.9984C2.49891 3.0123 2.49944 3.02617 2.50051 3.04C2.73051 6 4.20551 13 12.9705 13.5C13.0361 13.5039 13.1017 13.4949 13.1638 13.4735C13.2259 13.452 13.2831 13.4186 13.3322 13.375C13.3813 13.3315 13.4214 13.2787 13.4501 13.2196C13.4789 13.1606 13.4957 13.0964 13.4996 13.0309C13.5002 13.0206 13.5005 13.0103 13.5005 13V10.36L11.6155 9.605L10.1805 11.03L9.94051 11C5.59051 10.455 5.00051 6.105 5.00051 6.06L4.97051 5.82L6.39051 4.385L5.64051 2.5H3.00051Z" fill="#000"/>
</svg>
