<svg width="48" height="48" viewBox="0 0 48 48" fill="none" xmlns="http://www.w3.org/2000/svg">
<path d="M39 25.5H36V31.5H30V34.5H36V40.5H39V34.5H45V31.5H39V25.5Z" fill="#5D5FEF"/>
<path d="M42 7.50005H24L6 7.5C5.64971 7.5 5.31295 7.5 4.99975 7.5C3.89518 7.5 3 8.39543 3 9.5V34.5001C3 36.1501 4.35 37.5001 6 37.5001H27V34.5001H6V10.5001H16.8H22.8H42V22.5001H45V10.5001C45 8.85005 43.65 7.50005 42 7.50005Z" fill="#5D5FEF"/>
<rect x="6" y="13.5" width="36" height="3" fill="#5D5FEF"/>
<rect x="9" y="28.5" width="10.5" height="3" fill="#5D5FEF"/>
</svg>
