<svg width="59" height="59" viewBox="0 0 59 59" fill="none" xmlns="http://www.w3.org/2000/svg">
<g clip-path="url(#clip0_301_13524)">
<path d="M16.9496 46.7045L13.3888 33.4154L9.58544 40.0033L6.98757 38.5034L13.3515 27.4807L24.3742 33.8446L22.8744 36.4425L16.2866 32.6389L19.8474 45.928L37.2341 41.2693L38.0105 44.167L20.6239 48.8258C19.8554 49.0307 19.0369 48.9225 18.3481 48.5248C17.6593 48.1271 17.1564 47.4725 16.9496 46.7045Z" fill="#5D5FEF"/>
<path d="M43.3138 34.9814L49.1093 33.4284C49.8779 33.2233 50.6963 33.3315 51.3852 33.7292C52.074 34.1269 52.5769 34.7817 52.7836 35.5498L54.3365 41.3453C54.5416 42.1138 54.4334 42.9323 54.0357 43.6212C53.638 44.31 52.9833 44.8129 52.2152 45.0196L46.4196 46.5725C45.6511 46.7776 44.8326 46.6694 44.1438 46.2717C43.4549 45.874 42.952 45.2192 42.7454 44.4511L41.1925 38.6556C40.9874 37.8871 41.0955 37.0686 41.4932 36.3798C41.8909 35.6909 42.5457 35.188 43.3138 34.9814V34.9814ZM51.4387 42.1218L49.8858 36.3262L44.0881 37.8797L45.6432 43.6747L51.4387 42.1218Z" fill="#5D5FEF"/>
<path d="M41.4496 10.6345L45.0104 23.9235L48.8137 17.3357L51.4116 18.8355L45.0477 29.8582L34.0249 23.4943L35.5248 20.8964L42.1126 24.7L38.5518 11.4109L21.1651 16.0697L20.3887 13.1719L37.7753 8.51313C38.5438 8.3082 39.3622 8.41644 40.051 8.81412C40.7398 9.2118 41.2428 9.86644 41.4496 10.6345Z" fill="#5D5FEF"/>
<path d="M13.9199 18.011L5.22656 20.3403L6.00302 23.2381L14.6964 20.9087L13.9199 18.011Z" fill="#5D5FEF"/>
<path d="M15.2649 11.4386L3.67383 14.5444L4.45029 17.4422L16.0414 14.3364L15.2649 11.4386Z" fill="#5D5FEF"/>
</g>
<defs>
<clipPath id="clip0_301_13524">
<rect width="48" height="48" fill="white" transform="translate(0 12.4233) rotate(-15)"/>
</clipPath>
</defs>
</svg>
