<svg width="20" height="20" viewBox="0 0 20 20" fill="none" xmlns="http://www.w3.org/2000/svg">
<path fill-rule="evenodd" clip-rule="evenodd" d="M10 2.5C7.96312 2.5 7.70771 2.50863 6.90776 2.54513C6.10947 2.58154 5.56427 2.70834 5.08721 2.89376C4.59402 3.08539 4.17577 3.34184 3.75879 3.75879C3.34184 4.17577 3.08539 4.59402 2.89376 5.08721C2.70834 5.56427 2.58154 6.10947 2.54513 6.90776C2.50863 7.70771 2.5 7.96312 2.5 10C2.5 12.0369 2.50863 12.2923 2.54513 13.0922C2.58154 13.8905 2.70834 14.4357 2.89376 14.9128C3.08539 15.406 3.34184 15.8242 3.75879 16.2412C4.17577 16.6582 4.59402 16.9146 5.08721 17.1063C5.56427 17.2917 6.10947 17.4185 6.90776 17.4549C7.70771 17.4914 7.96312 17.5 10 17.5C12.0369 17.5 12.2923 17.4914 13.0922 17.4549C13.8905 17.4185 14.4357 17.2917 14.9128 17.1063C15.406 16.9146 15.8242 16.6582 16.2412 16.2412C16.6582 15.8242 16.9146 15.406 17.1063 14.9128C17.2917 14.4357 17.4185 13.8905 17.4549 13.0922C17.4914 12.2923 17.5 12.0369 17.5 10C17.5 7.96312 17.4914 7.70771 17.4549 6.90776C17.4185 6.10947 17.2917 5.56427 17.1063 5.08721C16.9146 4.59402 16.6582 4.17577 16.2412 3.75879C15.8242 3.34184 15.406 3.08539 14.9128 2.89376C14.4357 2.70834 13.8905 2.58154 13.0922 2.54513C12.2923 2.50863 12.0369 2.5 10 2.5ZM10.0004 3.85132C12.003 3.85132 12.2402 3.85897 13.031 3.89505C13.7623 3.9284 14.1594 4.05058 14.4237 4.15329C14.7737 4.28934 15.0236 4.45186 15.286 4.71433C15.5485 4.97676 15.711 5.2266 15.8471 5.57668C15.9498 5.84096 16.0719 6.23808 16.1053 6.96933C16.1414 7.76017 16.149 7.99739 16.149 9.99998C16.149 12.0026 16.1414 12.2398 16.1053 13.0306C16.0719 13.7619 15.9498 14.159 15.8471 14.4233C15.711 14.7733 15.5485 15.0232 15.286 15.2856C15.0236 15.5481 14.7737 15.7106 14.4237 15.8467C14.1594 15.9494 13.7623 16.0715 13.031 16.1049C12.2403 16.141 12.0031 16.1486 10.0004 16.1486C7.99765 16.1486 7.76049 16.141 6.96973 16.1049C6.23849 16.0715 5.84137 15.9494 5.57709 15.8467C5.22701 15.7106 4.97717 15.5481 4.71474 15.2856C4.4523 15.0232 4.28975 14.7733 4.1537 14.4233C4.05098 14.159 3.9288 13.7619 3.89546 13.0306C3.85938 12.2398 3.85173 12.0026 3.85173 9.99998C3.85173 7.99739 3.85938 7.76017 3.89546 6.96933C3.9288 6.23808 4.05098 5.84096 4.1537 5.57668C4.28975 5.2266 4.45227 4.97676 4.71474 4.71433C4.97717 4.45186 5.22701 4.28934 5.57709 4.15329C5.84137 4.05058 6.23849 3.9284 6.96973 3.89505C7.76058 3.85897 7.9978 3.85132 10.0004 3.85132ZM6.14827 10C6.14827 7.87298 7.87257 6.14868 9.99964 6.14868C12.1267 6.14868 13.851 7.87298 13.851 10C13.851 12.1271 12.1267 13.8514 9.99964 13.8514C7.87257 13.8514 6.14827 12.1271 6.14827 10ZM10 12.5C8.61928 12.5 7.5 11.3807 7.5 10C7.5 8.61928 8.61928 7.5 10 7.5C11.3807 7.5 12.5 8.61928 12.5 10C12.5 11.3807 11.3807 12.5 10 12.5ZM14.0038 6.89644C14.5009 6.89644 14.9038 6.49351 14.9038 5.99645C14.9038 5.49939 14.5009 5.09644 14.0038 5.09644C13.5068 5.09644 13.1038 5.49939 13.1038 5.99645C13.1038 6.49351 13.5068 6.89644 14.0038 6.89644Z" fill="white"/>
</svg>
