<svg width="20" height="20" viewBox="0 0 20 20" fill="none" xmlns="http://www.w3.org/2000/svg">
<path fill-rule="evenodd" clip-rule="evenodd" d="M5.45676 1.32227C4.02658 1.32227 2.86719 2.50978 2.86719 3.97466V16.3825C2.86719 17.8473 4.02658 19.0348 5.45676 19.0348C6.88694 19.0348 8.04633 17.8473 8.04633 16.3825V13.1937H11.7109C14.9079 13.1937 17.4996 10.5392 17.4996 7.26467C17.4996 3.99015 14.9079 1.33562 11.7109 1.33562H5.71822C5.63223 1.32679 5.54501 1.32227 5.45676 1.32227Z" fill="#FF7643"/>
<path fill-rule="evenodd" clip-rule="evenodd" d="M8.05594 13.1949V16.3824C8.05594 17.8473 6.89654 19.0348 5.46636 19.0348C4.74804 19.0348 4.09802 18.7352 3.62891 18.2514C3.94924 15.3879 5.76993 13.1937 7.96801 13.1937C7.99739 13.1937 8.02669 13.1941 8.05594 13.1949Z" fill="#1E1E1E"/>
</svg>
