<svg width="300" height="100" viewBox="0 0 699 181" fill="none" xmlns="http://www.w3.org/2000/svg">
<path d="M376.312 22.4575C378.17 23.3759 380.935 25.2651 382.086 26.0949C396.222 35.2466 425.332 53.7504 428.885 56.0475C434.337 59.5712 435.224 60.647 437.976 64.8564C439.789 67.6284 440.289 84.4287 440.718 92.4453L345.648 31.7275L362.758 21.8495C368.927 18.2875 373.99 21.3094 376.312 22.4575Z" fill="url(#paint0_linear_2_3)"/>
<path d="M413.845 158.406C411.987 157.487 409.221 155.598 408.071 154.768C393.935 145.617 364.825 127.113 361.271 124.816C355.82 121.292 354.933 120.216 352.181 116.007C350.368 113.235 349.868 96.4344 349.438 88.4179L444.508 149.136L427.399 159.014C421.229 162.576 416.166 159.554 413.845 158.406Z" fill="url(#paint1_linear_2_3)"/>
<g filter="url(#filter0_i_2_3)">
<path d="M411.717 60.4111C404.166 42.4522 389.176 30.8797 382.121 26.1073C395.93 34.9299 424.883 53.4415 430.212 56.9072C436.874 61.2393 438.37 64.8237 439.017 68.1808C439.664 71.5379 440.909 95.0674 441.25 98.8882C441.59 102.709 440.817 105.595 438.557 106.899L417.788 118.89C416.061 100.122 415.445 69.2755 411.717 60.4111Z" fill="url(#paint2_radial_2_3)"/>
</g>
<path d="M412.178 60.2173C407.098 48.1362 398.684 38.9323 391.545 32.7236C406.21 42.098 425.668 54.5487 429.94 57.3263C433.234 59.4682 435.219 61.4051 436.459 63.1945C437.696 64.9777 438.211 66.6416 438.526 68.2754C438.681 69.0804 438.878 71.1472 439.092 73.8966C439.305 76.6307 439.532 80.0033 439.749 83.3926C439.899 85.7264 440.044 88.0701 440.177 90.218C440.43 94.3002 440.64 97.6755 440.752 98.9326C441.089 102.712 440.298 105.317 438.307 106.466L418.216 118.066C417.741 112.722 417.349 106.477 416.946 100.062C416.65 95.3357 416.347 90.5173 416.002 85.8994C415.583 80.3134 415.102 75.0279 414.491 70.5808C413.882 66.1479 413.138 62.4997 412.178 60.2173Z" stroke="url(#paint3_linear_2_3)"/>
<g filter="url(#filter1_i_2_3)">
<path d="M378.439 120.452C385.991 138.411 400.98 149.984 408.036 154.756C394.226 145.934 365.274 127.422 359.944 123.956C353.282 119.624 351.787 116.04 351.14 112.683C350.493 109.326 349.248 85.7962 348.907 81.9754C348.566 78.1546 349.34 75.269 351.599 73.9643L372.368 61.9733C374.096 80.7415 374.712 111.588 378.439 120.452Z" fill="url(#paint4_radial_2_3)"/>
</g>
<path d="M377.978 120.646C383.058 132.727 391.473 141.931 398.612 148.14C383.947 138.766 364.489 126.315 360.217 123.537C356.923 121.395 354.938 119.458 353.697 117.669C352.461 115.886 351.946 114.222 351.631 112.588C351.476 111.783 351.278 109.716 351.064 106.967C350.852 104.233 350.625 100.86 350.408 97.471C350.258 95.1372 350.113 92.7935 349.979 90.6456C349.726 86.5634 349.517 83.1881 349.405 81.931C349.068 78.1518 349.859 75.5464 351.849 74.3973L371.941 62.7974C372.416 68.142 372.808 74.3871 373.21 80.8016C373.507 85.5279 373.809 90.3463 374.155 94.9641C374.573 100.55 375.055 105.836 375.666 110.283C376.275 114.716 377.019 118.364 377.978 120.646Z" stroke="url(#paint5_linear_2_3)"/>
<g filter="url(#filter2_ii_2_3)">
<path d="M475.912 70.2399C477.192 68.2772 478.792 66.7412 480.712 65.6319C482.632 64.4799 484.765 63.9039 487.112 63.9039V75.4879H484.104C481.373 75.4879 479.325 76.0852 477.96 77.2799C476.595 78.4319 475.912 80.4799 475.912 83.4239V99.9999H464.968V64.2879H475.912V70.2399ZM512.247 90.7199V99.9999H506.679C502.711 99.9999 499.618 99.0399 497.399 97.1199C495.18 95.1572 494.071 91.9785 494.071 87.5839V73.3759H489.719V64.2879H494.071V55.5839H505.015V64.2879H512.183V73.3759H505.015V87.7119C505.015 88.7785 505.271 89.5465 505.783 90.0159C506.295 90.4852 507.148 90.7199 508.343 90.7199H512.247ZM552.007 81.5679C552.007 82.5919 551.943 83.6585 551.815 84.7679H527.047C527.218 86.9865 527.922 88.6932 529.159 89.8879C530.439 91.0399 531.996 91.6159 533.831 91.6159C536.562 91.6159 538.46 90.4639 539.527 88.1599H551.175C550.578 90.5065 549.49 92.6185 547.911 94.4959C546.375 96.3732 544.434 97.8452 542.087 98.9119C539.74 99.9785 537.116 100.512 534.215 100.512C530.716 100.512 527.602 99.7652 524.871 98.2719C522.14 96.7785 520.007 94.6452 518.471 91.8719C516.935 89.0985 516.167 85.8559 516.167 82.1439C516.167 78.4319 516.914 75.1892 518.407 72.4159C519.943 69.6425 522.076 67.5092 524.807 66.0159C527.538 64.5225 530.674 63.7759 534.215 63.7759C537.671 63.7759 540.743 64.5012 543.431 65.9519C546.119 67.4025 548.21 69.4719 549.703 72.1599C551.239 74.8479 552.007 77.9839 552.007 81.5679ZM540.807 78.6879C540.807 76.8105 540.167 75.3172 538.887 74.2079C537.607 73.0985 536.007 72.5439 534.087 72.5439C532.252 72.5439 530.695 73.0772 529.415 74.1439C528.178 75.2105 527.41 76.7252 527.111 78.6879H540.807ZM555.605 82.1439C555.605 78.4319 556.351 75.1892 557.845 72.4159C559.381 69.6425 561.493 67.5092 564.181 66.0159C566.911 64.5225 570.026 63.7759 573.525 63.7759C578.005 63.7759 581.738 64.9492 584.725 67.2959C587.754 69.6425 589.738 72.9492 590.677 77.2159H579.029C578.047 74.4852 576.149 73.1199 573.333 73.1199C571.327 73.1199 569.727 73.9092 568.533 75.4879C567.338 77.0239 566.741 79.2425 566.741 82.1439C566.741 85.0452 567.338 87.2852 568.533 88.8639C569.727 90.3999 571.327 91.1679 573.333 91.1679C576.149 91.1679 578.047 89.8025 579.029 87.0719H590.677C589.738 91.2532 587.754 94.5385 584.725 96.9279C581.695 99.3172 577.962 100.512 573.525 100.512C570.026 100.512 566.911 99.7652 564.181 98.2719C561.493 96.7785 559.381 94.6452 557.845 91.8719C556.351 89.0985 555.605 85.8559 555.605 82.1439ZM612.787 100.512C609.288 100.512 606.131 99.7652 603.315 98.2719C600.541 96.7785 598.344 94.6452 596.723 91.8719C595.144 89.0985 594.355 85.8559 594.355 82.1439C594.355 78.4745 595.165 75.2532 596.786 72.4799C598.408 69.6639 600.627 67.5092 603.443 66.0159C606.259 64.5225 609.416 63.7759 612.915 63.7759C616.413 63.7759 619.571 64.5225 622.387 66.0159C625.203 67.5092 627.421 69.6639 629.043 72.4799C630.664 75.2532 631.475 78.4745 631.475 82.1439C631.475 85.8132 630.643 89.0559 628.979 91.8719C627.357 94.6452 625.117 96.7785 622.259 98.2719C619.443 99.7652 616.285 100.512 612.787 100.512ZM612.787 91.0399C614.877 91.0399 616.648 90.2719 618.099 88.7359C619.592 87.1999 620.339 85.0025 620.339 82.1439C620.339 79.2852 619.613 77.0879 618.163 75.5519C616.755 74.0159 615.005 73.2479 612.915 73.2479C610.781 73.2479 609.011 74.0159 607.603 75.5519C606.195 77.0452 605.491 79.2425 605.491 82.1439C605.491 85.0025 606.173 87.1999 607.539 88.7359C608.947 90.2719 610.696 91.0399 612.787 91.0399Z" fill="white"/>
</g>
<path d="M474.08 129.894V133.632H472.876V131H465.358V121.004H466.618V129.88H471.616V121.004H472.862V129.894H474.08ZM479.109 121.004H480.285V126.492C480.285 126.725 480.28 126.982 480.271 127.262C480.271 127.533 480.266 127.803 480.257 128.074C480.248 128.345 480.234 128.587 480.215 128.802C480.206 129.007 480.196 129.166 480.187 129.278H480.243L485.745 121.004H487.145V131H485.969V125.568C485.969 125.316 485.974 125.045 485.983 124.756C485.992 124.457 486.002 124.173 486.011 123.902C486.03 123.622 486.044 123.375 486.053 123.16C486.062 122.945 486.072 122.787 486.081 122.684H486.025L480.509 131H479.109V121.004ZM498.087 120.864V122.096C499.17 122.115 500.024 122.292 500.649 122.628C501.274 122.964 501.718 123.412 501.979 123.972C502.24 124.523 502.371 125.139 502.371 125.82C502.371 126.268 502.301 126.716 502.161 127.164C502.03 127.603 501.802 128.004 501.475 128.368C501.148 128.723 500.71 129.012 500.159 129.236C499.608 129.46 498.918 129.581 498.087 129.6V131.14H496.841V129.6C495.992 129.581 495.287 129.46 494.727 129.236C494.176 129.003 493.742 128.704 493.425 128.34C493.108 127.967 492.884 127.561 492.753 127.122C492.622 126.683 492.557 126.249 492.557 125.82C492.557 125.325 492.627 124.859 492.767 124.42C492.916 123.972 493.154 123.58 493.481 123.244C493.817 122.899 494.26 122.623 494.811 122.418C495.362 122.213 496.038 122.105 496.841 122.096V120.864H498.087ZM496.841 123.16C496.094 123.179 495.497 123.3 495.049 123.524C494.61 123.748 494.298 124.056 494.111 124.448C493.924 124.831 493.831 125.283 493.831 125.806C493.831 126.357 493.934 126.837 494.139 127.248C494.354 127.649 494.68 127.962 495.119 128.186C495.567 128.41 496.141 128.536 496.841 128.564V123.16ZM498.087 128.564C498.806 128.536 499.384 128.405 499.823 128.172C500.271 127.939 500.593 127.621 500.789 127.22C500.994 126.809 501.097 126.338 501.097 125.806C501.097 125.274 501.004 124.817 500.817 124.434C500.63 124.042 500.318 123.739 499.879 123.524C499.44 123.3 498.843 123.179 498.087 123.16V128.564ZM510.459 121.004C511.766 121.004 512.718 121.261 513.315 121.774C513.912 122.287 514.211 123.011 514.211 123.944C514.211 124.355 514.141 124.751 514.001 125.134C513.87 125.507 513.651 125.843 513.343 126.142C513.035 126.441 512.624 126.679 512.111 126.856C511.598 127.024 510.968 127.108 510.221 127.108H509.073V131H507.813V121.004H510.459ZM510.347 122.082H509.073V126.03H510.081C510.716 126.03 511.243 125.965 511.663 125.834C512.083 125.694 512.396 125.475 512.601 125.176C512.806 124.877 512.909 124.485 512.909 124C512.909 123.356 512.704 122.875 512.293 122.558C511.882 122.241 511.234 122.082 510.347 122.082ZM528.372 125.988C528.372 126.763 528.274 127.467 528.078 128.102C527.882 128.727 527.588 129.269 527.196 129.726C526.813 130.183 526.332 130.533 525.754 130.776C525.184 131.019 524.522 131.14 523.766 131.14C522.982 131.14 522.3 131.019 521.722 130.776C521.143 130.524 520.662 130.174 520.28 129.726C519.897 129.269 519.612 128.723 519.426 128.088C519.239 127.453 519.146 126.749 519.146 125.974C519.146 124.947 519.314 124.051 519.65 123.286C519.986 122.521 520.494 121.923 521.176 121.494C521.866 121.065 522.734 120.85 523.78 120.85C524.778 120.85 525.618 121.065 526.3 121.494C526.981 121.914 527.494 122.511 527.84 123.286C528.194 124.051 528.372 124.952 528.372 125.988ZM520.476 125.988C520.476 126.828 520.592 127.551 520.826 128.158C521.059 128.765 521.418 129.231 521.904 129.558C522.398 129.885 523.019 130.048 523.766 130.048C524.522 130.048 525.138 129.885 525.614 129.558C526.099 129.231 526.458 128.765 526.692 128.158C526.925 127.551 527.042 126.828 527.042 125.988C527.042 124.728 526.78 123.743 526.258 123.034C525.735 122.315 524.909 121.956 523.78 121.956C523.024 121.956 522.398 122.119 521.904 122.446C521.418 122.763 521.059 123.225 520.826 123.832C520.592 124.429 520.476 125.148 520.476 125.988ZM536.803 121.004C537.634 121.004 538.329 121.083 538.889 121.242C539.458 121.401 539.883 121.662 540.163 122.026C540.452 122.39 540.597 122.875 540.597 123.482C540.597 123.874 540.522 124.224 540.373 124.532C540.233 124.831 540.018 125.083 539.729 125.288C539.449 125.484 539.104 125.619 538.693 125.694V125.764C539.113 125.829 539.491 125.951 539.827 126.128C540.172 126.305 540.443 126.557 540.639 126.884C540.835 127.211 540.933 127.635 540.933 128.158C540.933 128.765 540.793 129.283 540.513 129.712C540.233 130.132 539.832 130.454 539.309 130.678C538.796 130.893 538.18 131 537.461 131H533.947V121.004H536.803ZM537.055 125.26C537.914 125.26 538.502 125.125 538.819 124.854C539.136 124.574 539.295 124.163 539.295 123.622C539.295 123.071 539.099 122.679 538.707 122.446C538.324 122.203 537.708 122.082 536.859 122.082H535.207V125.26H537.055ZM535.207 126.31V129.936H537.223C538.11 129.936 538.726 129.763 539.071 129.418C539.416 129.073 539.589 128.62 539.589 128.06C539.589 127.705 539.51 127.397 539.351 127.136C539.202 126.875 538.945 126.674 538.581 126.534C538.226 126.385 537.741 126.31 537.125 126.31H535.207ZM552.685 131L551.481 127.906H547.519L546.329 131H545.055L548.961 120.962H550.095L553.987 131H552.685ZM549.983 123.762C549.955 123.687 549.908 123.552 549.843 123.356C549.777 123.16 549.712 122.959 549.647 122.754C549.591 122.539 549.544 122.376 549.507 122.264C549.46 122.451 549.409 122.642 549.353 122.838C549.306 123.025 549.255 123.197 549.199 123.356C549.152 123.515 549.11 123.65 549.073 123.762L547.939 126.786H551.103L549.983 123.762ZM561.724 126.856L559.134 131H557.664L560.464 126.632C560.109 126.511 559.773 126.343 559.456 126.128C559.148 125.913 558.896 125.619 558.7 125.246C558.504 124.873 558.406 124.392 558.406 123.804C558.406 122.899 558.719 122.208 559.344 121.732C559.969 121.247 560.903 121.004 562.144 121.004H564.944V131H563.684V126.856H561.724ZM562.172 122.082C561.64 122.082 561.192 122.143 560.828 122.264C560.464 122.385 560.184 122.577 559.988 122.838C559.801 123.099 559.708 123.44 559.708 123.86C559.708 124.476 559.913 124.952 560.324 125.288C560.735 125.624 561.369 125.792 562.228 125.792H563.684V122.082H562.172ZM580.754 121.004C582.06 121.004 583.012 121.261 583.61 121.774C584.207 122.287 584.506 123.011 584.506 123.944C584.506 124.355 584.436 124.751 584.296 125.134C584.165 125.507 583.946 125.843 583.638 126.142C583.33 126.441 582.919 126.679 582.406 126.856C581.892 127.024 581.262 127.108 580.516 127.108H579.368V131H578.108V121.004H580.754ZM580.642 122.082H579.368V126.03H580.376C581.01 126.03 581.538 125.965 581.958 125.834C582.378 125.694 582.69 125.475 582.896 125.176C583.101 124.877 583.204 124.485 583.204 124C583.204 123.356 582.998 122.875 582.588 122.558C582.177 122.241 581.528 122.082 580.642 122.082ZM595.519 131L594.315 127.906H590.353L589.163 131H587.889L591.795 120.962H592.929L596.821 131H595.519ZM592.817 123.762C592.789 123.687 592.742 123.552 592.677 123.356C592.612 123.16 592.546 122.959 592.481 122.754C592.425 122.539 592.378 122.376 592.341 122.264C592.294 122.451 592.243 122.642 592.187 122.838C592.14 123.025 592.089 123.197 592.033 123.356C591.986 123.515 591.944 123.65 591.907 123.762L590.773 126.786H593.937L592.817 123.762ZM607.456 123.342C607.456 124.023 607.242 124.565 606.812 124.966C606.383 125.358 605.809 125.61 605.09 125.722V125.778C605.93 125.89 606.57 126.151 607.008 126.562C607.447 126.973 607.666 127.509 607.666 128.172C607.666 128.76 607.517 129.278 607.218 129.726C606.92 130.165 606.472 130.51 605.874 130.762C605.277 131.014 604.53 131.14 603.634 131.14C603.093 131.14 602.575 131.098 602.08 131.014C601.595 130.939 601.142 130.799 600.722 130.594V129.446C601.012 129.586 601.32 129.707 601.646 129.81C601.982 129.903 602.318 129.978 602.654 130.034C602.99 130.081 603.312 130.104 603.62 130.104C604.516 130.104 605.193 129.936 605.65 129.6C606.117 129.264 606.35 128.788 606.35 128.172C606.35 127.537 606.08 127.075 605.538 126.786C604.997 126.497 604.241 126.352 603.27 126.352H601.842V125.302H603.2C603.863 125.302 604.409 125.227 604.838 125.078C605.277 124.929 605.604 124.719 605.818 124.448C606.042 124.168 606.154 123.841 606.154 123.468C606.154 122.964 605.968 122.577 605.594 122.306C605.221 122.035 604.736 121.9 604.138 121.9C603.513 121.9 602.99 121.979 602.57 122.138C602.16 122.297 601.758 122.502 601.366 122.754L600.764 121.9C601.026 121.704 601.324 121.531 601.66 121.382C602.006 121.223 602.388 121.097 602.808 121.004C603.228 120.911 603.676 120.864 604.152 120.864C604.871 120.864 605.473 120.971 605.958 121.186C606.453 121.401 606.826 121.695 607.078 122.068C607.33 122.432 607.456 122.857 607.456 123.342ZM615.785 121.004C617.092 121.004 618.044 121.261 618.641 121.774C619.238 122.287 619.537 123.011 619.537 123.944C619.537 124.355 619.467 124.751 619.327 125.134C619.196 125.507 618.977 125.843 618.669 126.142C618.361 126.441 617.95 126.679 617.437 126.856C616.924 127.024 616.294 127.108 615.547 127.108H614.399V131H613.139V121.004H615.785ZM615.673 122.082H614.399V126.03H615.407C616.042 126.03 616.569 125.965 616.989 125.834C617.409 125.694 617.722 125.475 617.927 125.176C618.132 124.877 618.235 124.485 618.235 124C618.235 123.356 618.03 122.875 617.619 122.558C617.208 122.241 616.56 122.082 615.673 122.082ZM630.55 131L629.346 127.906H625.384L624.194 131H622.92L626.826 120.962H627.96L631.852 131H630.55ZM627.848 123.762C627.82 123.687 627.774 123.552 627.708 123.356C627.643 123.16 627.578 122.959 627.512 122.754C627.456 122.539 627.41 122.376 627.372 122.264C627.326 122.451 627.274 122.642 627.218 122.838C627.172 123.025 627.12 123.197 627.064 123.356C627.018 123.515 626.976 123.65 626.938 123.762L625.804 126.786H628.968L627.848 123.762ZM636.58 131V121.004H642.516V122.11H637.84V125.232H639.324C640.322 125.232 641.097 125.358 641.648 125.61C642.198 125.853 642.581 126.189 642.796 126.618C643.01 127.038 643.118 127.523 643.118 128.074C643.118 128.681 642.996 129.203 642.754 129.642C642.52 130.081 642.138 130.417 641.606 130.65C641.074 130.883 640.374 131 639.506 131H636.58ZM639.38 129.922C640.276 129.922 640.906 129.773 641.27 129.474C641.634 129.166 641.816 128.699 641.816 128.074C641.816 127.645 641.727 127.304 641.55 127.052C641.382 126.791 641.102 126.604 640.71 126.492C640.327 126.38 639.814 126.324 639.17 126.324H637.84V129.922H639.38ZM657.275 125.988C657.275 126.763 657.177 127.467 656.981 128.102C656.785 128.727 656.491 129.269 656.099 129.726C655.716 130.183 655.236 130.533 654.657 130.776C654.088 131.019 653.425 131.14 652.669 131.14C651.885 131.14 651.204 131.019 650.625 130.776C650.046 130.524 649.566 130.174 649.183 129.726C648.8 129.269 648.516 128.723 648.329 128.088C648.142 127.453 648.049 126.749 648.049 125.974C648.049 124.947 648.217 124.051 648.553 123.286C648.889 122.521 649.398 121.923 650.079 121.494C650.77 121.065 651.638 120.85 652.683 120.85C653.682 120.85 654.522 121.065 655.203 121.494C655.884 121.914 656.398 122.511 656.743 123.286C657.098 124.051 657.275 124.952 657.275 125.988ZM649.379 125.988C649.379 126.828 649.496 127.551 649.729 128.158C649.962 128.765 650.322 129.231 650.807 129.558C651.302 129.885 651.922 130.048 652.669 130.048C653.425 130.048 654.041 129.885 654.517 129.558C655.002 129.231 655.362 128.765 655.595 128.158C655.828 127.551 655.945 126.828 655.945 125.988C655.945 124.728 655.684 123.743 655.161 123.034C654.638 122.315 653.812 121.956 652.683 121.956C651.927 121.956 651.302 122.119 650.807 122.446C650.322 122.763 649.962 123.225 649.729 123.832C649.496 124.429 649.379 125.148 649.379 125.988ZM665.591 131H664.331V122.11H661.209V121.004H668.699V122.11H665.591V131ZM680.86 131H679.348L674.826 125.932V131H673.566V121.004H674.826V125.848L679.236 121.004H680.664L676.324 125.862L680.86 131ZM691.852 131L690.648 127.906H686.686L685.496 131H684.222L688.128 120.962H689.262L693.154 131H691.852ZM689.15 123.762C689.122 123.687 689.076 123.552 689.01 123.356C688.945 123.16 688.88 122.959 688.814 122.754C688.758 122.539 688.712 122.376 688.674 122.264C688.628 122.451 688.576 122.642 688.52 122.838C688.474 123.025 688.422 123.197 688.366 123.356C688.32 123.515 688.278 123.65 688.24 123.762L687.106 126.786H690.27L689.15 123.762Z" fill="white" fill-opacity="0.7"/>
<path d="M6.864 79.864C9.104 79.864 10.736 80.304 11.76 81.184C12.784 82.064 13.296 83.304 13.296 84.904C13.296 85.608 13.176 86.288 12.936 86.944C12.712 87.584 12.336 88.16 11.808 88.672C11.28 89.184 10.576 89.592 9.696 89.896C8.816 90.184 7.736 90.328 6.456 90.328H4.488V97H2.328V79.864H6.864ZM6.672 81.712H4.488V88.48H6.216C7.304 88.48 8.208 88.368 8.928 88.144C9.648 87.904 10.184 87.528 10.536 87.016C10.888 86.504 11.064 85.832 11.064 85C11.064 83.896 10.712 83.072 10.008 82.528C9.304 81.984 8.192 81.712 6.672 81.712ZM37.2159 97L35.1519 91.696H28.3599L26.3199 97H24.1359L30.8319 79.792H32.7759L39.4479 97H37.2159ZM32.5839 84.592C32.5359 84.464 32.4559 84.232 32.3439 83.896C32.2319 83.56 32.1199 83.216 32.0079 82.864C31.9119 82.496 31.8319 82.216 31.7679 82.024C31.6879 82.344 31.5999 82.672 31.5039 83.008C31.4239 83.328 31.3359 83.624 31.2399 83.896C31.1599 84.168 31.0879 84.4 31.0239 84.592L29.0799 89.776H34.5039L32.5839 84.592ZM62.7201 83.872C62.7201 85.04 62.3521 85.968 61.6161 86.656C60.8801 87.328 59.8961 87.76 58.6641 87.952V88.048C60.1041 88.24 61.2001 88.688 61.9521 89.392C62.7041 90.096 63.0801 91.016 63.0801 92.152C63.0801 93.16 62.8241 94.048 62.3121 94.816C61.8001 95.568 61.0321 96.16 60.0081 96.592C58.9841 97.024 57.7041 97.24 56.1681 97.24C55.2401 97.24 54.3521 97.168 53.5041 97.024C52.6721 96.896 51.8961 96.656 51.1761 96.304V94.336C51.6721 94.576 52.2001 94.784 52.7601 94.96C53.3361 95.12 53.9121 95.248 54.4881 95.344C55.0641 95.424 55.6161 95.464 56.1441 95.464C57.6801 95.464 58.8401 95.176 59.6241 94.6C60.4241 94.024 60.8241 93.208 60.8241 92.152C60.8241 91.064 60.3601 90.272 59.4321 89.776C58.5041 89.28 57.2081 89.032 55.5441 89.032H53.0961V87.232H55.4241C56.5601 87.232 57.4961 87.104 58.2321 86.848C58.9841 86.592 59.5441 86.232 59.9121 85.768C60.2961 85.288 60.4881 84.728 60.4881 84.088C60.4881 83.224 60.1681 82.56 59.5281 82.096C58.8881 81.632 58.0561 81.4 57.0321 81.4C55.9601 81.4 55.0641 81.536 54.3441 81.808C53.6401 82.08 52.9521 82.432 52.2801 82.864L51.2481 81.4C51.6961 81.064 52.2081 80.768 52.7841 80.512C53.3761 80.24 54.0321 80.024 54.7521 79.864C55.4721 79.704 56.2401 79.624 57.0561 79.624C58.2881 79.624 59.3201 79.808 60.1521 80.176C61.0001 80.544 61.6401 81.048 62.0721 81.688C62.5041 82.312 62.7201 83.04 62.7201 83.872ZM82.0374 79.864C84.2774 79.864 85.9094 80.304 86.9334 81.184C87.9574 82.064 88.4694 83.304 88.4694 84.904C88.4694 85.608 88.3494 86.288 88.1094 86.944C87.8854 87.584 87.5094 88.16 86.9814 88.672C86.4534 89.184 85.7494 89.592 84.8694 89.896C83.9894 90.184 82.9094 90.328 81.6294 90.328H79.6614V97H77.5014V79.864H82.0374ZM81.8454 81.712H79.6614V88.48H81.3894C82.4774 88.48 83.3814 88.368 84.1014 88.144C84.8214 87.904 85.3574 87.528 85.7094 87.016C86.0614 86.504 86.2374 85.832 86.2374 85C86.2374 83.896 85.8854 83.072 85.1814 82.528C84.4774 81.984 83.3654 81.712 81.8454 81.712ZM112.389 97L110.325 91.696H103.533L101.493 97H99.3094L106.005 79.792H107.949L114.621 97H112.389ZM107.757 84.592C107.709 84.464 107.629 84.232 107.517 83.896C107.405 83.56 107.293 83.216 107.181 82.864C107.085 82.496 107.005 82.216 106.941 82.024C106.861 82.344 106.773 82.672 106.677 83.008C106.597 83.328 106.509 83.624 106.413 83.896C106.333 84.168 106.261 84.4 106.197 84.592L104.253 89.776H109.677L107.757 84.592ZM127.766 97V79.864H137.942V81.76H129.926V87.112H132.47C134.182 87.112 135.51 87.328 136.454 87.76C137.398 88.176 138.054 88.752 138.422 89.488C138.79 90.208 138.974 91.04 138.974 91.984C138.974 93.024 138.766 93.92 138.35 94.672C137.95 95.424 137.294 96 136.382 96.4C135.47 96.8 134.27 97 132.782 97H127.766ZM132.566 95.152C134.102 95.152 135.182 94.896 135.806 94.384C136.43 93.856 136.742 93.056 136.742 91.984C136.742 91.248 136.59 90.664 136.286 90.232C135.998 89.784 135.518 89.464 134.846 89.272C134.19 89.08 133.31 88.984 132.206 88.984H129.926V95.152H132.566ZM168.283 88.408C168.283 89.736 168.115 90.944 167.779 92.032C167.443 93.104 166.939 94.032 166.267 94.816C165.611 95.6 164.787 96.2 163.795 96.616C162.819 97.032 161.683 97.24 160.387 97.24C159.043 97.24 157.875 97.032 156.883 96.616C155.891 96.184 155.067 95.584 154.411 94.816C153.755 94.032 153.267 93.096 152.947 92.008C152.627 90.92 152.467 89.712 152.467 88.384C152.467 86.624 152.755 85.088 153.331 83.776C153.907 82.464 154.779 81.44 155.947 80.704C157.131 79.968 158.619 79.6 160.411 79.6C162.123 79.6 163.563 79.968 164.731 80.704C165.899 81.424 166.779 82.448 167.371 83.776C167.979 85.088 168.283 86.632 168.283 88.408ZM154.747 88.408C154.747 89.848 154.947 91.088 155.347 92.128C155.747 93.168 156.363 93.968 157.195 94.528C158.043 95.088 159.107 95.368 160.387 95.368C161.683 95.368 162.739 95.088 163.555 94.528C164.387 93.968 165.003 93.168 165.403 92.128C165.803 91.088 166.003 89.848 166.003 88.408C166.003 86.248 165.555 84.56 164.659 83.344C163.763 82.112 162.347 81.496 160.411 81.496C159.115 81.496 158.043 81.776 157.195 82.336C156.363 82.88 155.747 83.672 155.347 84.712C154.947 85.736 154.747 86.968 154.747 88.408ZM187.579 97H185.419V81.76H180.067V79.864H192.907V81.76H187.579V97ZM215.355 97L213.291 91.696H206.499L204.459 97H202.275L208.971 79.792H210.915L217.587 97H215.355ZM210.723 84.592C210.675 84.464 210.595 84.232 210.483 83.896C210.371 83.56 210.259 83.216 210.147 82.864C210.051 82.496 209.971 82.216 209.907 82.024C209.827 82.344 209.739 82.672 209.643 83.008C209.563 83.328 209.475 83.624 209.379 83.896C209.299 84.168 209.227 84.4 209.163 84.592L207.219 89.776H212.643L210.723 84.592ZM243.835 97H241.675V89.008H232.891V97H230.731V79.864H232.891V87.112H241.675V79.864H243.835V97ZM274.272 88.408C274.272 89.736 274.104 90.944 273.768 92.032C273.432 93.104 272.928 94.032 272.256 94.816C271.6 95.6 270.776 96.2 269.784 96.616C268.808 97.032 267.672 97.24 266.376 97.24C265.032 97.24 263.864 97.032 262.872 96.616C261.88 96.184 261.056 95.584 260.4 94.816C259.744 94.032 259.256 93.096 258.936 92.008C258.616 90.92 258.456 89.712 258.456 88.384C258.456 86.624 258.744 85.088 259.32 83.776C259.896 82.464 260.768 81.44 261.936 80.704C263.12 79.968 264.608 79.6 266.4 79.6C268.112 79.6 269.552 79.968 270.72 80.704C271.888 81.424 272.768 82.448 273.36 83.776C273.968 85.088 274.272 86.632 274.272 88.408ZM260.736 88.408C260.736 89.848 260.936 91.088 261.336 92.128C261.736 93.168 262.352 93.968 263.184 94.528C264.032 95.088 265.096 95.368 266.376 95.368C267.672 95.368 268.728 95.088 269.544 94.528C270.376 93.968 270.992 93.168 271.392 92.128C271.792 91.088 271.992 89.848 271.992 88.408C271.992 86.248 271.544 84.56 270.648 83.344C269.752 82.112 268.336 81.496 266.4 81.496C265.104 81.496 264.032 81.776 263.184 82.336C262.352 82.88 261.736 83.672 261.336 84.712C260.936 85.736 260.736 86.968 260.736 88.408ZM310.965 79.864C312.389 79.864 313.581 80 314.541 80.272C315.517 80.544 316.245 80.992 316.725 81.616C317.221 82.24 317.469 83.072 317.469 84.112C317.469 84.784 317.341 85.384 317.085 85.912C316.845 86.424 316.477 86.856 315.981 87.208C315.501 87.544 314.909 87.776 314.205 87.904V88.024C314.925 88.136 315.573 88.344 316.149 88.648C316.741 88.952 317.205 89.384 317.541 89.944C317.877 90.504 318.045 91.232 318.045 92.128C318.045 93.168 317.805 94.056 317.325 94.792C316.845 95.512 316.157 96.064 315.261 96.448C314.381 96.816 313.325 97 312.093 97H306.069V79.864H310.965ZM311.397 87.16C312.869 87.16 313.877 86.928 314.421 86.464C314.965 85.984 315.237 85.28 315.237 84.352C315.237 83.408 314.901 82.736 314.229 82.336C313.573 81.92 312.517 81.712 311.061 81.712H308.229V87.16H311.397ZM308.229 88.96V95.176H311.685C313.205 95.176 314.261 94.88 314.853 94.288C315.445 93.696 315.741 92.92 315.741 91.96C315.741 91.352 315.605 90.824 315.333 90.376C315.077 89.928 314.637 89.584 314.013 89.344C313.405 89.088 312.573 88.96 311.517 88.96H308.229Z" fill="white" fill-opacity="0.7"/>
<defs>
<filter id="filter0_i_2_3" x="378.121" y="22.1073" width="63.206" height="96.7831" filterUnits="userSpaceOnUse" color-interpolation-filters="sRGB">
<feFlood flood-opacity="0" result="BackgroundImageFix"/>
<feBlend mode="normal" in="SourceGraphic" in2="BackgroundImageFix" result="shape"/>
<feColorMatrix in="SourceAlpha" type="matrix" values="0 0 0 0 0 0 0 0 0 0 0 0 0 0 0 0 0 0 127 0" result="hardAlpha"/>
<feOffset dx="-4" dy="-4"/>
<feGaussianBlur stdDeviation="6"/>
<feComposite in2="hardAlpha" operator="arithmetic" k2="-1" k3="1"/>
<feColorMatrix type="matrix" values="0 0 0 0 1 0 0 0 0 1 0 0 0 0 1 0 0 0 0.12 0"/>
<feBlend mode="normal" in2="shape" result="effect1_innerShadow_2_3"/>
</filter>
<filter id="filter1_i_2_3" x="348.83" y="61.9733" width="63.206" height="96.783" filterUnits="userSpaceOnUse" color-interpolation-filters="sRGB">
<feFlood flood-opacity="0" result="BackgroundImageFix"/>
<feBlend mode="normal" in="SourceGraphic" in2="BackgroundImageFix" result="shape"/>
<feColorMatrix in="SourceAlpha" type="matrix" values="0 0 0 0 0 0 0 0 0 0 0 0 0 0 0 0 0 0 127 0" result="hardAlpha"/>
<feOffset dx="4" dy="4"/>
<feGaussianBlur stdDeviation="6"/>
<feComposite in2="hardAlpha" operator="arithmetic" k2="-1" k3="1"/>
<feColorMatrix type="matrix" values="0 0 0 0 1 0 0 0 0 1 0 0 0 0 1 0 0 0 0.12 0"/>
<feBlend mode="normal" in2="shape" result="effect1_innerShadow_2_3"/>
</filter>
<filter id="filter2_ii_2_3" x="460.968" y="51.5839" width="174.507" height="52.928" filterUnits="userSpaceOnUse" color-interpolation-filters="sRGB">
<feFlood flood-opacity="0" result="BackgroundImageFix"/>
<feBlend mode="normal" in="SourceGraphic" in2="BackgroundImageFix" result="shape"/>
<feColorMatrix in="SourceAlpha" type="matrix" values="0 0 0 0 0 0 0 0 0 0 0 0 0 0 0 0 0 0 127 0" result="hardAlpha"/>
<feOffset dx="-4" dy="-4"/>
<feGaussianBlur stdDeviation="2"/>
<feComposite in2="hardAlpha" operator="arithmetic" k2="-1" k3="1"/>
<feColorMatrix type="matrix" values="0 0 0 0 0.321569 0 0 0 0 0.0901961 0 0 0 0 0.784314 0 0 0 0.24 0"/>
<feBlend mode="normal" in2="shape" result="effect1_innerShadow_2_3"/>
<feColorMatrix in="SourceAlpha" type="matrix" values="0 0 0 0 0 0 0 0 0 0 0 0 0 0 0 0 0 0 127 0" result="hardAlpha"/>
<feOffset dx="4" dy="4"/>
<feGaussianBlur stdDeviation="4"/>
<feComposite in2="hardAlpha" operator="arithmetic" k2="-1" k3="1"/>
<feColorMatrix type="matrix" values="0 0 0 0 0.980392 0 0 0 0 0.486275 0 0 0 0 0.0745098 0 0 0 0.04 0"/>
<feBlend mode="normal" in2="effect1_innerShadow_2_3" result="effect2_innerShadow_2_3"/>
</filter>
<linearGradient id="paint0_linear_2_3" x1="348.291" y1="30.202" x2="424.102" y2="92.5739" gradientUnits="userSpaceOnUse">
<stop stop-color="#7733FF"/>
<stop offset="1" stop-color="#330099"/>
</linearGradient>
<linearGradient id="paint1_linear_2_3" x1="441.866" y1="150.661" x2="366.055" y2="88.2892" gradientUnits="userSpaceOnUse">
<stop stop-color="#FE7919"/>
<stop offset="1" stop-color="#B33C00"/>
</linearGradient>
<radialGradient id="paint2_radial_2_3" cx="0" cy="0" r="1" gradientUnits="userSpaceOnUse" gradientTransform="translate(408.424 46.29) rotate(63.2379) scale(104.623 74.3933)">
<stop stop-color="#7C4DFF"/>
<stop offset="1" stop-color="#3F1F99"/>
</radialGradient>
<linearGradient id="paint3_linear_2_3" x1="387.991" y1="22.718" x2="437.084" y2="107.75" gradientUnits="userSpaceOnUse">
<stop stop-color="white" stop-opacity="0.12"/>
<stop offset="1" stop-color="white" stop-opacity="0"/>
</linearGradient>
<radialGradient id="paint4_radial_2_3" cx="0" cy="0" r="1" gradientUnits="userSpaceOnUse" gradientTransform="translate(381.733 134.574) rotate(-117.839) scale(98.3228 69.9138)">
<stop stop-color="#FF8214"/>
<stop offset="1" stop-color="#CC4400"/>
</radialGradient>
<linearGradient id="paint5_linear_2_3" x1="402.166" y1="158.146" x2="353.073" y2="73.1137" gradientUnits="userSpaceOnUse">
<stop stop-color="white" stop-opacity="0"/>
<stop offset="1" stop-color="white" stop-opacity="0.08"/>
</linearGradient>
</defs>
</svg>
