<svg width="20" height="20" viewBox="0 0 24 24" fill="none" xmlns="http://www.w3.org/2000/svg">
<path d="M21.75 20.6894L16.0859 15.0253C17.447 13.3913 18.1257 11.2955 17.9808 9.17387C17.836 7.05224 16.8788 5.06812 15.3083 3.63426C13.7378 2.20041 11.675 1.42721 9.54902 1.47552C7.42299 1.52384 5.39744 2.38993 3.89372 3.89365C2.39001 5.39736 1.52391 7.42292 1.4756 9.54894C1.42729 11.675 2.20048 13.7378 3.63434 15.3082C5.06819 16.8787 7.05231 17.8359 9.17395 17.9808C11.2956 18.1256 13.3914 17.4469 15.0254 16.0859L20.6894 21.7499L21.75 20.6894ZM3.00001 9.74993C3.00001 8.41491 3.39589 7.10987 4.13759 5.99983C4.87929 4.8898 5.9335 4.02464 7.1669 3.51375C8.4003 3.00285 9.7575 2.86918 11.0669 3.12963C12.3762 3.39008 13.579 4.03296 14.523 4.97696C15.467 5.92097 16.1099 7.1237 16.3703 8.43307C16.6308 9.74245 16.4971 11.0996 15.9862 12.333C15.4753 13.5664 14.6101 14.6207 13.5001 15.3624C12.3901 16.1041 11.085 16.4999 9.75001 16.4999C7.96041 16.4979 6.24467 15.7862 4.97923 14.5207C3.71379 13.2553 3.00199 11.5395 3.00001 9.74993Z" fill="grey"/>
</svg>