<svg width="16" height="16" viewBox="0 0 16 16" fill="none" xmlns="http://www.w3.org/2000/svg">
<path d="M9.66294 5.38886C9.88267 5.71771 9.99997 6.10432 10 6.49983L10 6.49943C10 6.49954 10 6.49965 10 6.49977L10 6.49945C9.99942 5.96934 9.78858 5.46111 9.41373 5.08627C9.03889 4.71143 8.53066 4.50058 8.00055 4.5H8C7.99204 4.5 7.98409 4.50005 7.97614 4.50014C8.24553 4.49693 8.51412 4.54817 8.76537 4.65224C9.13082 4.80362 9.44318 5.05996 9.66294 5.38886Z" stroke="#5D5FEF"/>
<path d="M8 15L3.78226 10.0257C3.75831 9.9971 3.60816 9.7999 3.60816 9.7999C2.88761 8.85084 2.49832 7.6916 2.50001 6.5C2.50001 5.04131 3.07947 3.64236 4.11092 2.61091C5.14237 1.57946 6.54131 1 8 1C9.45869 1 10.8576 1.57946 11.8891 2.61091C12.9205 3.64236 13.5 5.04131 13.5 6.5C13.5018 7.69111 13.1128 8.84991 12.3926 9.79865L12.3919 9.7999C12.3919 9.7999 12.2419 9.9971 12.2195 10.0236L8 15ZM4.40626 9.1975C4.40676 9.19785 4.52296 9.3516 4.54956 9.3847L8 13.4539L11.455 9.37895C11.477 9.35135 11.5942 9.1965 11.5944 9.1961C12.183 8.42064 12.5012 7.47356 12.5 6.5C12.5 5.30653 12.0259 4.16193 11.182 3.31802C10.3381 2.47411 9.19348 2 8 2C6.80653 2 5.66194 2.47411 4.81802 3.31802C3.97411 4.16193 3.50001 5.30653 3.50001 6.5C3.4989 7.47409 3.81725 8.42167 4.40626 9.1975Z" fill="#5D5FEF"/>
</svg>
