<svg width="20" height="20" viewBox="0 0 20 20" fill="none" xmlns="http://www.w3.org/2000/svg">
<path d="M1.36761 9.24674C6.70786 6.87118 10.2689 5.30506 12.0506 4.54839C17.1379 2.38794 18.195 2.01264 18.884 2.00012C19.0355 1.99753 19.3744 2.03587 19.5938 2.21771C19.7792 2.37125 19.8302 2.57865 19.8546 2.72423C19.879 2.8698 19.9093 3.20141 19.8852 3.46053C19.6095 6.41802 18.4166 13.5951 17.8098 16.9075C17.553 18.3091 17.0474 18.7791 16.5579 18.8251C15.4941 18.925 14.6863 18.1073 13.6559 17.4177C12.0436 16.3386 11.1328 15.6668 9.56782 14.6139C7.7592 13.397 8.93165 12.7281 9.96238 11.6351C10.2321 11.349 14.9192 6.99611 15.01 6.60123C15.0213 6.55185 15.0318 6.36776 14.9247 6.27055C14.8176 6.17335 14.6595 6.20659 14.5454 6.23303C14.3837 6.2705 11.8081 8.00868 6.81854 11.4476C6.08746 11.9601 5.42526 12.2099 4.83196 12.1968C4.17789 12.1824 2.91972 11.8192 1.98441 11.5088C0.8372 11.128 -0.0745757 10.9267 0.00481951 10.2801C0.0461734 9.94329 0.500437 9.59884 1.36761 9.24674Z" fill="white"/>
</svg>
